NotoSansArabic-Thin.ufo
<glyph name="exclam" format="2">
  <advance width="244"/>
  <unicode hex="0021"/>
  <outline>
    <contour>
      <point x="111" y="174" type="line"/>
      <point x="135" y="174" type="line"/>
      <point x="137" y="714" type="line"/>
      <point x="109" y="714" type="line"/>
    </contour>
    <contour>
      <point x="121" y="-8" type="curve" smooth="yes"/>
      <point x="145" y="-8"/>
      <point x="148" y="6"/>
      <point x="148" y="23" type="curve" smooth="yes"/>
      <point x="148" y="39"/>
      <point x="145" y="54"/>
      <point x="121" y="54" type="curve" smooth="yes"/>
      <point x="101" y="54"/>
      <point x="96" y="39"/>
      <point x="96" y="23" type="curve" smooth="yes"/>
      <point x="96" y="6"/>
      <point x="101" y="-8"/>
    </contour>
  </outline>
</glyph>
<glyph name="parenleft" format="2">
  <advance width="363"/>
  <unicode hex="0028"/>
  <outline>
    <contour>
      <point x="258" y="-172" type="curve"/>
      <point x="284" y="-172" type="line"/>
      <point x="191" y="-23"/>
      <point x="149" y="131"/>
      <point x="149" y="309" type="curve" smooth="yes"/>
      <point x="149" y="468"/>
      <point x="190" y="640"/>
      <point x="284" y="785" type="curve"/>
      <point x="258" y="785" type="line"/>
      <point x="169" y="648"/>
      <point x="124" y="480"/>
      <point x="124" y="317" type="curve" smooth="yes"/>
      <point x="124" y="128"/>
      <point x="165" y="-29"/>
    </contour>
  </outline>
</glyph>
<glyph name="comma" format="2">
  <advance width="221"/>
  <unicode hex="002C"/>
  <outline>
    <contour>
      <point x="67" y="-129" type="curve"/>
      <point x="89" y="-129" type="line"/>
      <point x="117" y="-60"/>
      <point x="139" y="30"/>
      <point x="154" y="104" type="curve"/>
      <point x="151" y="116" type="line"/>
      <point x="123" y="116" type="line"/>
      <point x="112" y="40"/>
      <point x="96" y="-32"/>
    </contour>
  </outline>
</glyph>
<glyph name="period" format="2">
  <advance width="220"/>
  <unicode hex="002E"/>
  <outline>
    <contour>
      <point x="110" y="-8" type="curve" smooth="yes"/>
      <point x="134" y="-8"/>
      <point x="140" y="6"/>
      <point x="140" y="23" type="curve" smooth="yes"/>
      <point x="140" y="39"/>
      <point x="134" y="54"/>
      <point x="110" y="54" type="curve" smooth="yes"/>
      <point x="90" y="54"/>
      <point x="82" y="39"/>
      <point x="82" y="23" type="curve" smooth="yes"/>
      <point x="82" y="6"/>
      <point x="90" y="-8"/>
    </contour>
  </outline>
</glyph>
<glyph name="colon" format="2">
  <advance width="222"/>
  <unicode hex="003A"/>
  <outline>
    <contour>
      <point x="111" y="470" type="curve" smooth="yes"/>
      <point x="138" y="470"/>
      <point x="142" y="484"/>
      <point x="142" y="501" type="curve" smooth="yes"/>
      <point x="142" y="517"/>
      <point x="138" y="532"/>
      <point x="111" y="532" type="curve" smooth="yes"/>
      <point x="88" y="532"/>
      <point x="82" y="517"/>
      <point x="82" y="501" type="curve" smooth="yes"/>
      <point x="82" y="484"/>
      <point x="88" y="470"/>
    </contour>
    <contour>
      <point x="111" y="-8" type="curve" smooth="yes"/>
      <point x="138" y="-8"/>
      <point x="142" y="6"/>
      <point x="142" y="23" type="curve" smooth="yes"/>
      <point x="142" y="39"/>
      <point x="138" y="54"/>
      <point x="111" y="54" type="curve" smooth="yes"/>
      <point x="88" y="54"/>
      <point x="82" y="39"/>
      <point x="82" y="23" type="curve" smooth="yes"/>
      <point x="82" y="6"/>
      <point x="88" y="-8"/>
    </contour>
  </outline>
</glyph>
<glyph name="guillemotleft" format="2">
  <advance width="409"/>
  <unicode hex="00AB"/>
  <outline>
    <contour>
      <point x="353" y="87" type="line"/>
      <point x="373" y="100" type="line"/>
      <point x="234" y="279" type="line"/>
      <point x="373" y="457" type="line"/>
      <point x="353" y="472" type="line"/>
      <point x="205" y="285" type="line"/>
      <point x="205" y="272" type="line"/>
    </contour>
    <contour>
      <point x="184" y="87" type="line"/>
      <point x="204" y="100" type="line"/>
      <point x="65" y="279" type="line"/>
      <point x="204" y="457" type="line"/>
      <point x="184" y="472" type="line"/>
      <point x="36" y="285" type="line"/>
      <point x="36" y="272" type="line"/>
    </contour>
  </outline>
</glyph>
<glyph name="guillemotright" format="2">
  <advance width="409"/>
  <unicode hex="00BB"/>
  <outline>
    <contour>
      <point x="225" y="87" type="line"/>
      <point x="373" y="274" type="line"/>
      <point x="373" y="287" type="line"/>
      <point x="225" y="472" type="line"/>
      <point x="205" y="457" type="line"/>
      <point x="344" y="280" type="line"/>
      <point x="205" y="101" type="line"/>
    </contour>
    <contour>
      <point x="56" y="87" type="line"/>
      <point x="204" y="274" type="line"/>
      <point x="204" y="287" type="line"/>
      <point x="56" y="472" type="line"/>
      <point x="36" y="457" type="line"/>
      <point x="175" y="280" type="line"/>
      <point x="36" y="101" type="line"/>
    </contour>
  </outline>
</glyph>
<glyph name="number-ar" format="2">
  <advance width="1133"/>
  <unicode hex="0600"/>
  <outline>
    <contour>
      <point x="43" y="-216" type="line"/>
      <point x="903" y="-216" type="line" smooth="yes"/>
      <point x="999" y="-216"/>
      <point x="1071" y="-202"/>
      <point x="1120" y="-187" type="curve"/>
      <point x="1116" y="-163" type="line"/>
      <point x="1066" y="-177"/>
      <point x="1005" y="-186"/>
      <point x="967" y="-186" type="curve" smooth="yes"/>
      <point x="895" y="-186"/>
      <point x="862" y="-127"/>
      <point x="862" y="-66" type="curve" smooth="yes"/>
      <point x="862" y="6"/>
      <point x="914" y="56"/>
      <point x="997" y="56" type="curve" smooth="yes"/>
      <point x="1029" y="56"/>
      <point x="1053" y="51"/>
      <point x="1083" y="39" type="curve"/>
      <point x="1088" y="62" type="line"/>
      <point x="1064" y="74"/>
      <point x="1034" y="82"/>
      <point x="998" y="82" type="curve" smooth="yes"/>
      <point x="902" y="82"/>
      <point x="837" y="24"/>
      <point x="837" y="-69" type="curve" smooth="yes"/>
      <point x="837" y="-129"/>
      <point x="870" y="-191"/>
      <point x="924" y="-202" type="curve"/>
      <point x="925" y="-190" type="line"/>
      <point x="40" y="-190" type="line"/>
    </contour>
  </outline>
</glyph>
<glyph name="year-ar" format="2">
  <advance width="1472"/>
  <unicode hex="0601"/>
  <outline>
    <contour>
      <point x="114" y="-338" type="curve" smooth="yes"/>
      <point x="162" y="-338"/>
      <point x="181" y="-301"/>
      <point x="217" y="-235" type="curve" smooth="yes"/>
      <point x="244" y="-185"/>
      <point x="255" y="-150"/>
      <point x="287" y="-150" type="curve" smooth="yes"/>
      <point x="340" y="-150"/>
      <point x="345" y="-291"/>
      <point x="417" y="-291" type="curve" smooth="yes"/>
      <point x="457" y="-291"/>
      <point x="480" y="-254"/>
      <point x="496" y="-177" type="curve"/>
      <point x="583" y="-184"/>
      <point x="739" y="-190"/>
      <point x="887" y="-190" type="curve" smooth="yes"/>
      <point x="1067" y="-190"/>
      <point x="1253" y="-171"/>
      <point x="1332" y="-171" type="curve" smooth="yes"/>
      <point x="1386" y="-171"/>
      <point x="1406" y="-190"/>
      <point x="1406" y="-240" type="curve" smooth="yes"/>
      <point x="1406" y="-270"/>
      <point x="1398" y="-302"/>
      <point x="1388" y="-329" type="curve"/>
      <point x="1412" y="-335" type="line"/>
      <point x="1424" y="-309"/>
      <point x="1432" y="-270"/>
      <point x="1432" y="-239" type="curve" smooth="yes"/>
      <point x="1432" y="-179"/>
      <point x="1407" y="-145"/>
      <point x="1339" y="-145" type="curve" smooth="yes"/>
      <point x="1257" y="-145"/>
      <point x="1078" y="-164"/>
      <point x="893" y="-164" type="curve" smooth="yes"/>
      <point x="748" y="-164"/>
      <point x="584" y="-159"/>
      <point x="478" y="-150" type="curve"/>
      <point x="465" y="-225"/>
      <point x="448" y="-265"/>
      <point x="419" y="-265" type="curve" smooth="yes"/>
      <point x="360" y="-265"/>
      <point x="363" y="-124"/>
      <point x="287" y="-124" type="curve" smooth="yes"/>
      <point x="241" y="-124"/>
      <point x="221" y="-176"/>
      <point x="194" y="-227" type="curve" smooth="yes"/>
      <point x="160" y="-291"/>
      <point x="144" y="-312"/>
      <point x="115" y="-312" type="curve" smooth="yes"/>
      <point x="77" y="-312"/>
      <point x="65" y="-286"/>
      <point x="65" y="-237" type="curve" smooth="yes"/>
      <point x="65" y="-200"/>
      <point x="71" y="-173"/>
      <point x="77" y="-146" type="curve"/>
      <point x="52" y="-146" type="line"/>
      <point x="46" y="-173"/>
      <point x="40" y="-203"/>
      <point x="40" y="-240" type="curve" smooth="yes"/>
      <point x="40" y="-308"/>
      <point x="70" y="-338"/>
    </contour>
  </outline>
</glyph>
<glyph name="footnotemarker-ar" format="2">
  <advance width="1108"/>
  <unicode hex="0602"/>
  <outline>
    <contour>
      <point x="202" y="-216" type="curve" smooth="yes"/>
      <point x="1064" y="-216" type="line"/>
      <point x="1068" y="-190" type="line"/>
      <point x="211" y="-189" type="line" smooth="yes"/>
      <point x="106" y="-189"/>
      <point x="66" y="-153"/>
      <point x="66" y="-76" type="curve" smooth="yes"/>
      <point x="66" y="2"/>
      <point x="128" y="60"/>
      <point x="202" y="60" type="curve" smooth="yes"/>
      <point x="264" y="60"/>
      <point x="302" y="19"/>
      <point x="302" y="-62" type="curve" smooth="yes"/>
      <point x="302" y="-116"/>
      <point x="289" y="-168"/>
      <point x="279" y="-201" type="curve"/>
      <point x="303" y="-206" type="line"/>
      <point x="316" y="-171"/>
      <point x="328" y="-113"/>
      <point x="328" y="-60" type="curve" smooth="yes"/>
      <point x="328" y="24"/>
      <point x="289" y="86"/>
      <point x="200" y="86" type="curve" smooth="yes"/>
      <point x="115" y="86"/>
      <point x="40" y="17"/>
      <point x="40" y="-79" type="curve" smooth="yes"/>
      <point x="40" y="-176"/>
      <point x="98" y="-216"/>
    </contour>
  </outline>
</glyph>
<glyph name="pagenumber-ar" format="2">
  <advance width="1324"/>
  <unicode hex="0603"/>
  <outline>
    <contour>
      <point x="44" y="-216" type="line"/>
      <point x="722" y="-216" type="line" smooth="yes"/>
      <point x="770" y="-216"/>
      <point x="815" y="-201"/>
      <point x="825" y="-147" type="curve"/>
      <point x="817" y="-146" type="line"/>
      <point x="828" y="-201"/>
      <point x="843" y="-216"/>
      <point x="1018" y="-216" type="curve" smooth="yes"/>
      <point x="1190" y="-216"/>
      <point x="1284" y="-174"/>
      <point x="1284" y="-77" type="curve" smooth="yes"/>
      <point x="1284" y="8"/>
      <point x="1225" y="61"/>
      <point x="1148" y="61" type="curve" smooth="yes"/>
      <point x="1037" y="61"/>
      <point x="947" y="-48"/>
      <point x="856" y="-183" type="curve"/>
      <point x="876" y="-196" type="line"/>
      <point x="968" y="-58"/>
      <point x="1053" y="35"/>
      <point x="1144" y="35" type="curve" smooth="yes"/>
      <point x="1213" y="35"/>
      <point x="1259" y="-14"/>
      <point x="1259" y="-78" type="curve" smooth="yes"/>
      <point x="1259" y="-155"/>
      <point x="1180" y="-190"/>
      <point x="1024" y="-190" type="curve" smooth="yes"/>
      <point x="868" y="-190"/>
      <point x="849" y="-180"/>
      <point x="838" y="-144" type="curve" smooth="yes"/>
      <point x="832" y="-124"/>
      <point x="833" y="-105"/>
      <point x="831" y="-75" type="curve"/>
      <point x="809" y="-75" type="line"/>
      <point x="808" y="-108"/>
      <point x="808" y="-124"/>
      <point x="804" y="-142" type="curve" smooth="yes"/>
      <point x="797" y="-176"/>
      <point x="776" y="-190"/>
      <point x="720" y="-190" type="curve" smooth="yes"/>
      <point x="40" y="-190" type="line"/>
    </contour>
  </outline>
</glyph>
<glyph name="samvat-ar" format="2">
  <advance width="1952"/>
  <unicode hex="0604"/>
  <outline>
    <contour>
      <point x="1149" y="-26" type="curve"/>
      <point x="1160" y="-5" type="line"/>
      <point x="1059" y="47"/>
      <point x="996" y="112"/>
      <point x="996" y="213" type="curve" smooth="yes"/>
      <point x="996" y="301"/>
      <point x="1052" y="362"/>
      <point x="1128" y="362" type="curve" smooth="yes"/>
      <point x="1198" y="362"/>
      <point x="1233" y="330"/>
      <point x="1276" y="245" type="curve" smooth="yes"/>
      <point x="1326" y="145"/>
      <point x="1363" y="107"/>
      <point x="1454" y="107" type="curve" smooth="yes"/>
      <point x="1522" y="107"/>
      <point x="1586" y="134"/>
      <point x="1602" y="219" type="curve"/>
      <point x="1593" y="217" type="line"/>
      <point x="1600" y="147"/>
      <point x="1637" y="107"/>
      <point x="1743" y="107" type="curve" smooth="yes"/>
      <point x="1832" y="107"/>
      <point x="1892" y="152"/>
      <point x="1892" y="254" type="curve" smooth="yes"/>
      <point x="1892" y="330"/>
      <point x="1874" y="394"/>
      <point x="1846" y="480" type="curve"/>
      <point x="1822" y="471" type="line"/>
      <point x="1852" y="380"/>
      <point x="1867" y="317"/>
      <point x="1867" y="248" type="curve" smooth="yes"/>
      <point x="1867" y="172"/>
      <point x="1823" y="133"/>
      <point x="1748" y="133" type="curve" smooth="yes"/>
      <point x="1653" y="133"/>
      <point x="1622" y="163"/>
      <point x="1616" y="227" type="curve" smooth="yes"/>
      <point x="1613" y="261"/>
      <point x="1615" y="335"/>
      <point x="1613" y="401" type="curve"/>
      <point x="1588" y="399" type="line"/>
      <point x="1589" y="332"/>
      <point x="1588" y="277"/>
      <point x="1581" y="235" type="curve" smooth="yes"/>
      <point x="1569" y="163"/>
      <point x="1526" y="133"/>
      <point x="1458" y="133" type="curve" smooth="yes"/>
      <point x="1377" y="133"/>
      <point x="1346" y="165"/>
      <point x="1299" y="257" type="curve" smooth="yes"/>
      <point x="1253" y="346"/>
      <point x="1215" y="388"/>
      <point x="1133" y="388" type="curve" smooth="yes"/>
      <point x="1040" y="388"/>
      <point x="971" y="314"/>
      <point x="971" y="211" type="curve" smooth="yes"/>
      <point x="971" y="146"/>
      <point x="998" y="82"/>
      <point x="1049" y="43" type="curve"/>
      <point x="1049" y="56" type="line"/>
      <point x="953" y="69"/>
      <point x="796" y="74"/>
      <point x="575" y="74" type="curve" smooth="yes"/>
      <point x="411" y="74"/>
      <point x="192" y="65"/>
      <point x="30" y="48" type="curve"/>
      <point x="30" y="22" type="line"/>
      <point x="190" y="38"/>
      <point x="404" y="48"/>
      <point x="573" y="48" type="curve" smooth="yes"/>
      <point x="781" y="48"/>
      <point x="939" y="48"/>
      <point x="1050" y="32" type="curve"/>
      <point x="1084" y="12"/>
      <point x="1109" y="-5"/>
    </contour>
  </outline>
</glyph>
<glyph name="numbermark-ar" format="2">
  <advance width="1248"/>
  <unicode hex="0605"/>
  <outline>
    <contour>
      <point x="81" y="547" type="line"/>
      <point x="126" y="623"/>
      <point x="154" y="662"/>
      <point x="214" y="662" type="curve" smooth="yes"/>
      <point x="282" y="662"/>
      <point x="416" y="575"/>
      <point x="693" y="575" type="curve" smooth="yes"/>
      <point x="880" y="575"/>
      <point x="1059" y="599"/>
      <point x="1183" y="645" type="curve"/>
      <point x="1177" y="667" type="line"/>
      <point x="1057" y="626"/>
      <point x="885" y="601"/>
      <point x="697" y="601" type="curve" smooth="yes"/>
      <point x="420" y="601"/>
      <point x="291" y="688"/>
      <point x="215" y="688" type="curve" smooth="yes"/>
      <point x="148" y="688"/>
      <point x="106" y="645"/>
      <point x="60" y="557" type="curve"/>
    </contour>
  </outline>
</glyph>
<glyph name="ray-ar" format="2">
  <advance width="917"/>
  <unicode hex="0608"/>
  <outline>
    <contour>
      <point x="456" y="-260" type="curve" smooth="yes"/>
      <point x="725" y="-260"/>
      <point x="823" y="-146"/>
      <point x="823" y="55" type="curve" smooth="yes"/>
      <point x="823" y="211"/>
      <point x="767" y="346"/>
      <point x="636" y="346" type="curve" smooth="yes"/>
      <point x="536" y="346"/>
      <point x="466" y="255"/>
      <point x="466" y="142" type="curve" smooth="yes"/>
      <point x="466" y="48"/>
      <point x="520" y="-5"/>
      <point x="652" y="-5" type="curve" smooth="yes"/>
      <point x="917" y="-5" type="line" smooth="yes"/>
      <point x="925" y="-5"/>
      <point x="931" y="2"/>
      <point x="931" y="8" type="curve" smooth="yes"/>
      <point x="931" y="14"/>
      <point x="928" y="21"/>
      <point x="920" y="21" type="curve" smooth="yes"/>
      <point x="810" y="21" type="line"/>
      <point x="758" y="21"/>
      <point x="705" y="21"/>
      <point x="653" y="21" type="curve" smooth="yes"/>
      <point x="547" y="21"/>
      <point x="491" y="56"/>
      <point x="491" y="145" type="curve" smooth="yes"/>
      <point x="491" y="240"/>
      <point x="551" y="319"/>
      <point x="634" y="319" type="curve" smooth="yes"/>
      <point x="745" y="319"/>
      <point x="798" y="205"/>
      <point x="798" y="48" type="curve" smooth="yes"/>
      <point x="798" y="-135"/>
      <point x="707" y="-233"/>
      <point x="460" y="-233" type="curve" smooth="yes"/>
      <point x="262" y="-233"/>
      <point x="180" y="-142"/>
      <point x="180" y="-9" type="curve" smooth="yes"/>
      <point x="180" y="43"/>
      <point x="193" y="101"/>
      <point x="219" y="163" type="curve"/>
      <point x="200" y="173" type="line"/>
      <point x="5" y="108" type="line"/>
      <point x="11" y="85" type="line"/>
      <point x="194" y="146" type="line"/>
      <point x="189" y="151" type="line"/>
      <point x="163" y="85"/>
      <point x="155" y="34"/>
      <point x="155" y="-12" type="curve" smooth="yes"/>
      <point x="155" y="-155"/>
      <point x="244" y="-260"/>
    </contour>
  </outline>
</glyph>
<glyph name="perthousand-ar" format="2">
  <advance width="656"/>
  <unicode hex="0609"/>
  <outline>
    <contour>
      <point x="575" y="-9" type="curve"/>
      <point x="616" y="31" type="line"/>
      <point x="604" y="47"/>
      <point x="587" y="64"/>
      <point x="569" y="78" type="curve"/>
      <point x="529" y="35" type="line"/>
      <point x="547" y="20"/>
      <point x="557" y="9"/>
    </contour>
    <component base="percent-ar"/>
  </outline>
</glyph>
<glyph name="pertenthousand-ar" format="2">
  <advance width="826"/>
  <unicode hex="060A"/>
  <outline>
    <contour>
      <point x="573" y="-9" type="curve"/>
      <point x="614" y="31" type="line"/>
      <point x="602" y="47"/>
      <point x="585" y="64"/>
      <point x="567" y="78" type="curve"/>
      <point x="527" y="35" type="line"/>
      <point x="545" y="20"/>
      <point x="555" y="9"/>
    </contour>
    <contour>
      <point x="745" y="-9" type="curve"/>
      <point x="786" y="31" type="line"/>
      <point x="774" y="47"/>
      <point x="757" y="64"/>
      <point x="739" y="78" type="curve"/>
      <point x="699" y="35" type="line"/>
      <point x="717" y="20"/>
      <point x="727" y="9"/>
    </contour>
    <component base="percent-ar"/>
  </outline>
</glyph>
<glyph name="comma-ar" format="2">
  <advance width="229"/>
  <unicode hex="060C"/>
  <outline>
    <contour>
      <point x="111" y="-4" type="curve" smooth="yes"/>
      <point x="132" y="-4"/>
      <point x="142" y="9"/>
      <point x="142" y="25" type="curve" smooth="yes"/>
      <point x="142" y="43"/>
      <point x="126" y="54"/>
      <point x="103" y="58" type="curve"/>
      <point x="103" y="106"/>
      <point x="125" y="158"/>
      <point x="165" y="212" type="curve"/>
      <point x="146" y="223" type="line"/>
      <point x="104" y="171"/>
      <point x="76" y="109"/>
      <point x="76" y="52" type="curve" smooth="yes"/>
      <point x="76" y="11"/>
      <point x="96" y="-4"/>
    </contour>
  </outline>
</glyph>
<glyph name="dateseparator-ar" format="2">
  <advance width="317"/>
  <unicode hex="060D"/>
  <guideline x="100" y="682" angle="0"/>
  <outline>
    <contour>
      <point x="61" y="-157" type="line"/>
      <point x="115" y="-42"/>
      <point x="189" y="78"/>
      <point x="260" y="164" type="curve"/>
      <point x="243" y="179" type="line"/>
      <point x="169" y="92"/>
      <point x="98" y="-24"/>
      <point x="40" y="-148" type="curve"/>
    </contour>
  </outline>
</glyph>
<glyph name="verseComma-ar" format="2">
  <advance width="1023"/>
  <unicode hex="060E"/>
  <outline>
    <contour>
      <point x="467" y="-5" type="curve" smooth="yes"/>
      <point x="689" y="-5"/>
      <point x="868" y="15"/>
      <point x="983" y="38" type="curve"/>
      <point x="983" y="64" type="line"/>
      <point x="869" y="41"/>
      <point x="687" y="21"/>
      <point x="475" y="21" type="curve" smooth="yes"/>
      <point x="216" y="21"/>
      <point x="96" y="69"/>
      <point x="96" y="182" type="curve" smooth="yes"/>
      <point x="96" y="303"/>
      <point x="200" y="382"/>
      <point x="299" y="382" type="curve" smooth="yes"/>
      <point x="388" y="382"/>
      <point x="423" y="325"/>
      <point x="423" y="214" type="curve" smooth="yes"/>
      <point x="423" y="150"/>
      <point x="415" y="89"/>
      <point x="391" y="12" type="curve"/>
      <point x="415" y="6" type="line"/>
      <point x="440" y="86"/>
      <point x="449" y="154"/>
      <point x="449" y="217" type="curve" smooth="yes"/>
      <point x="449" y="333"/>
      <point x="405" y="408"/>
      <point x="301" y="408" type="curve" smooth="yes"/>
      <point x="181" y="408"/>
      <point x="70" y="313"/>
      <point x="70" y="180" type="curve" smooth="yes"/>
      <point x="70" y="59"/>
      <point x="180" y="-5"/>
    </contour>
  </outline>
</glyph>
<glyph name="misraComma-ar" format="2">
  <advance width="560"/>
  <unicode hex="060F"/>
  <outline>
    <contour>
      <point x="22" y="-388" type="line"/>
      <point x="109" y="-199"/>
      <point x="247" y="-69"/>
      <point x="400" y="-69" type="curve" smooth="yes"/>
      <point x="501" y="-69"/>
      <point x="557" y="-117"/>
      <point x="557" y="-200" type="curve" smooth="yes"/>
      <point x="557" y="-302"/>
      <point x="454" y="-358"/>
      <point x="325" y="-358" type="curve" smooth="yes"/>
      <point x="164" y="-358"/>
      <point x="61" y="-299"/>
      <point x="61" y="-151" type="curve" smooth="yes"/>
      <point x="61" y="-49"/>
      <point x="140" y="34"/>
      <point x="264" y="90" type="curve" smooth="yes"/>
      <point x="320" y="115"/>
      <point x="417" y="137"/>
      <point x="487" y="154" type="curve"/>
      <point x="486" y="180" type="line"/>
      <point x="414" y="162"/>
      <point x="332" y="140"/>
      <point x="284" y="140" type="curve" smooth="yes"/>
      <point x="197" y="140"/>
      <point x="104" y="193"/>
      <point x="104" y="306" type="curve" smooth="yes"/>
      <point x="104" y="421"/>
      <point x="195" y="486"/>
      <point x="306" y="486" type="curve" smooth="yes"/>
      <point x="362" y="486"/>
      <point x="399" y="474"/>
      <point x="434" y="463" type="curve"/>
      <point x="437" y="487" type="line"/>
      <point x="401" y="501"/>
      <point x="361" y="512"/>
      <point x="304" y="512" type="curve" smooth="yes"/>
      <point x="171" y="512"/>
      <point x="79" y="427"/>
      <point x="79" y="305" type="curve" smooth="yes"/>
      <point x="79" y="178"/>
      <point x="186" y="114"/>
      <point x="278" y="114" type="curve"/>
      <point x="277" y="123" type="line"/>
      <point x="143" y="68"/>
      <point x="36" y="-20"/>
      <point x="36" y="-156" type="curve" smooth="yes"/>
      <point x="36" y="-306"/>
      <point x="137" y="-384"/>
      <point x="321" y="-384" type="curve" smooth="yes"/>
      <point x="471" y="-384"/>
      <point x="582" y="-316"/>
      <point x="582" y="-200" type="curve" smooth="yes"/>
      <point x="582" y="-101"/>
      <point x="516" y="-43"/>
      <point x="404" y="-43" type="curve" smooth="yes"/>
      <point x="241" y="-43"/>
      <point x="96" y="-174"/>
      <point x="1" y="-377" type="curve"/>
    </contour>
  </outline>
</glyph>
<glyph name="sadabove-ar" format="2">
  <unicode hex="0610"/>
  <anchor x="147" y="356" name="_top"/>
  <anchor x="156" y="656" name="top"/>
  <outline>
    <contour>
      <point x="34" y="401" type="curve"/>
      <point x="51" y="398" type="line"/>
      <point x="60" y="436"/>
      <point x="62" y="478"/>
      <point x="62" y="516" type="curve"/>
      <point x="56" y="516" type="line"/>
      <point x="64" y="491"/>
      <point x="96" y="479"/>
      <point x="157" y="479" type="curve" smooth="yes"/>
      <point x="241" y="479"/>
      <point x="285" y="498"/>
      <point x="285" y="554" type="curve" smooth="yes"/>
      <point x="285" y="598"/>
      <point x="257" y="625"/>
      <point x="216" y="625" type="curve" smooth="yes"/>
      <point x="156" y="625"/>
      <point x="111" y="559"/>
      <point x="79" y="505" type="curve"/>
      <point x="93" y="496" type="line"/>
      <point x="126" y="551"/>
      <point x="168" y="606"/>
      <point x="214" y="606" type="curve" smooth="yes"/>
      <point x="249" y="606"/>
      <point x="267" y="580"/>
      <point x="267" y="554" type="curve" smooth="yes"/>
      <point x="267" y="514"/>
      <point x="235" y="497"/>
      <point x="159" y="497" type="curve" smooth="yes"/>
      <point x="97" y="497"/>
      <point x="72" y="506"/>
      <point x="62" y="536" type="curve" smooth="yes"/>
      <point x="58" y="548"/>
      <point x="54" y="569"/>
      <point x="48" y="595" type="curve"/>
      <point x="31" y="591" type="line"/>
      <point x="37" y="563"/>
      <point x="44" y="532"/>
      <point x="44" y="494" type="curve" smooth="yes"/>
      <point x="44" y="475"/>
      <point x="43" y="438"/>
    </contour>
  </outline>
</glyph>
<glyph name="ainabove-ar" format="2">
  <unicode hex="0611"/>
  <anchor x="137" y="356" name="_top"/>
  <anchor x="146" y="656" name="top"/>
  <outline>
    <contour>
      <point x="34" y="401" type="curve"/>
      <point x="51" y="398" type="line"/>
      <point x="60" y="436"/>
      <point x="62" y="478"/>
      <point x="62" y="516" type="curve"/>
      <point x="56" y="516" type="line"/>
      <point x="64" y="491"/>
      <point x="96" y="479"/>
      <point x="156" y="479" type="curve" smooth="yes"/>
      <point x="201" y="479"/>
      <point x="230" y="485"/>
      <point x="267" y="499" type="curve"/>
      <point x="263" y="516" type="line"/>
      <point x="237" y="507"/>
      <point x="215" y="501"/>
      <point x="193" y="501" type="curve" smooth="yes"/>
      <point x="160" y="501"/>
      <point x="142" y="525"/>
      <point x="142" y="554" type="curve" smooth="yes"/>
      <point x="142" y="588"/>
      <point x="166" y="610"/>
      <point x="202" y="610" type="curve" smooth="yes"/>
      <point x="217" y="610"/>
      <point x="226" y="607"/>
      <point x="239" y="603" type="curve"/>
      <point x="243" y="620" type="line"/>
      <point x="230" y="625"/>
      <point x="215" y="628"/>
      <point x="201" y="628" type="curve" smooth="yes"/>
      <point x="158" y="628"/>
      <point x="124" y="602"/>
      <point x="124" y="555" type="curve" smooth="yes"/>
      <point x="124" y="520"/>
      <point x="141" y="496"/>
      <point x="166" y="490" type="curve"/>
      <point x="171" y="497" type="line"/>
      <point x="99" y="497"/>
      <point x="73" y="504"/>
      <point x="62" y="536" type="curve" smooth="yes"/>
      <point x="58" y="548"/>
      <point x="54" y="569"/>
      <point x="48" y="595" type="curve"/>
      <point x="31" y="591" type="line"/>
      <point x="37" y="563"/>
      <point x="44" y="535"/>
      <point x="44" y="494" type="curve" smooth="yes"/>
      <point x="44" y="475"/>
      <point x="43" y="438"/>
    </contour>
  </outline>
</glyph>
<glyph name="rehHahabove-ar" format="2">
  <unicode hex="0612"/>
  <anchor x="158" y="356" name="_top"/>
  <anchor x="157" y="646" name="top"/>
  <outline>
    <contour>
      <point x="27" y="412" type="curve"/>
      <point x="47" y="412" type="line"/>
      <point x="47" y="512"/>
      <point x="120" y="556"/>
      <point x="209" y="565" type="curve"/>
      <point x="211" y="584" type="line"/>
      <point x="156" y="586"/>
      <point x="115" y="619"/>
      <point x="66" y="619" type="curve" smooth="yes"/>
      <point x="47" y="619"/>
      <point x="33" y="616"/>
      <point x="22" y="610" type="curve"/>
      <point x="22" y="592" type="line"/>
      <point x="34" y="597"/>
      <point x="45" y="600"/>
      <point x="63" y="600" type="curve" smooth="yes"/>
      <point x="102" y="600"/>
      <point x="130" y="580"/>
      <point x="185" y="570" type="curve"/>
      <point x="185" y="579" type="line"/>
      <point x="69" y="558"/>
      <point x="27" y="494"/>
    </contour>
    <contour>
      <point x="199" y="420" type="curve" smooth="yes"/>
      <point x="263" y="420"/>
      <point x="304" y="451"/>
      <point x="304" y="518" type="curve" smooth="yes"/>
      <point x="304" y="545"/>
      <point x="296" y="579"/>
      <point x="283" y="606" type="curve"/>
      <point x="264" y="600" type="line"/>
      <point x="277" y="571"/>
      <point x="284" y="545"/>
      <point x="284" y="517" type="curve" smooth="yes"/>
      <point x="284" y="460"/>
      <point x="251" y="439"/>
      <point x="198" y="439" type="curve" smooth="yes"/>
      <point x="184" y="439"/>
      <point x="175" y="441"/>
      <point x="162" y="443" type="curve"/>
      <point x="161" y="425" type="line"/>
      <point x="170" y="422"/>
      <point x="186" y="420"/>
    </contour>
  </outline>
</glyph>
<glyph name="rehDadabove-ar" format="2">
  <unicode hex="0613"/>
  <guideline x="48" y="604" angle="0"/>
  <guideline x="48" y="825" angle="0"/>
  <anchor x="198" y="356" name="_top"/>
  <anchor x="197" y="656" name="top"/>
  <outline>
    <contour>
      <point x="279" y="420" type="curve" smooth="yes"/>
      <point x="343" y="420"/>
      <point x="384" y="451"/>
      <point x="384" y="518" type="curve" smooth="yes"/>
      <point x="384" y="545"/>
      <point x="376" y="579"/>
      <point x="363" y="606" type="curve"/>
      <point x="344" y="600" type="line"/>
      <point x="357" y="571"/>
      <point x="364" y="545"/>
      <point x="364" y="517" type="curve" smooth="yes"/>
      <point x="364" y="460"/>
      <point x="331" y="439"/>
      <point x="278" y="439" type="curve" smooth="yes"/>
      <point x="264" y="439"/>
      <point x="255" y="441"/>
      <point x="242" y="443" type="curve"/>
      <point x="241" y="425" type="line"/>
      <point x="250" y="422"/>
      <point x="266" y="420"/>
    </contour>
    <contour>
      <point x="92" y="630" type="curve" smooth="yes"/>
      <point x="101" y="630"/>
      <point x="109" y="638"/>
      <point x="109" y="646" type="curve" smooth="yes"/>
      <point x="109" y="656"/>
      <point x="101" y="663"/>
      <point x="92" y="663" type="curve" smooth="yes"/>
      <point x="83" y="663"/>
      <point x="76" y="656"/>
      <point x="76" y="646" type="curve" smooth="yes"/>
      <point x="76" y="638"/>
      <point x="83" y="630"/>
    </contour>
    <component base="sadabove-ar" xOffset="-10"/>
  </outline>
</glyph>
<glyph name="takhallusabove-ar" format="2">
  <unicode hex="0614"/>
  <guideline x="275" y="691" angle="0"/>
  <anchor x="222" y="356" name="_top"/>
  <anchor x="222" y="594" name="top"/>
  <outline>
    <contour>
      <point x="200" y="420" type="curve" smooth="yes"/>
      <point x="236" y="420"/>
      <point x="266" y="431"/>
      <point x="273" y="463" type="curve"/>
      <point x="266" y="464" type="line"/>
      <point x="267" y="433"/>
      <point x="291" y="420"/>
      <point x="328" y="420" type="curve" smooth="yes"/>
      <point x="370" y="420"/>
      <point x="390" y="440"/>
      <point x="390" y="480" type="curve" smooth="yes"/>
      <point x="390" y="508"/>
      <point x="384" y="537"/>
      <point x="374" y="571" type="curve"/>
      <point x="356" y="566" type="line"/>
      <point x="366" y="530"/>
      <point x="371" y="505"/>
      <point x="371" y="479" type="curve" smooth="yes"/>
      <point x="371" y="451"/>
      <point x="358" y="439"/>
      <point x="329" y="439" type="curve" smooth="yes"/>
      <point x="297" y="439"/>
      <point x="282" y="447"/>
      <point x="280" y="472" type="curve" smooth="yes"/>
      <point x="279" y="486"/>
      <point x="280" y="512"/>
      <point x="280" y="538" type="curve"/>
      <point x="263" y="538" type="line"/>
      <point x="263" y="509"/>
      <point x="262" y="492"/>
      <point x="260" y="475" type="curve" smooth="yes"/>
      <point x="257" y="449"/>
      <point x="236" y="439"/>
      <point x="198" y="439" type="curve" smooth="yes"/>
      <point x="162" y="439"/>
      <point x="103" y="442"/>
      <point x="33" y="457" type="curve"/>
      <point x="30" y="439" type="line"/>
      <point x="104" y="424"/>
      <point x="159" y="420"/>
    </contour>
  </outline>
</glyph>
<glyph name="alefLamYehabove-ar" format="2">
  <unicode hex="0616"/>
  <anchor x="191" y="356" name="_top"/>
  <anchor x="192" y="715" name="top"/>
  <outline>
    <contour>
      <point x="178" y="417" type="curve" smooth="yes"/>
      <point x="227" y="417"/>
      <point x="298" y="425"/>
      <point x="337" y="434" type="curve"/>
      <point x="337" y="452" type="line"/>
      <point x="298" y="444"/>
      <point x="233" y="436"/>
      <point x="183" y="436" type="curve" smooth="yes"/>
      <point x="91" y="436"/>
      <point x="50" y="446"/>
      <point x="50" y="473" type="curve" smooth="yes"/>
      <point x="50" y="495"/>
      <point x="70" y="499"/>
      <point x="134" y="519" type="curve" smooth="yes"/>
      <point x="187" y="536"/>
      <point x="207" y="550"/>
      <point x="204" y="604" type="curve" smooth="yes"/>
      <point x="199" y="694" type="line"/>
      <point x="179" y="694" type="line"/>
      <point x="184" y="602" type="line" smooth="yes"/>
      <point x="186" y="561"/>
      <point x="173" y="552"/>
      <point x="130" y="538" type="curve" smooth="yes"/>
      <point x="66" y="517"/>
      <point x="30" y="509"/>
      <point x="30" y="472" type="curve" smooth="yes"/>
      <point x="30" y="423"/>
      <point x="101" y="417"/>
    </contour>
    <contour>
      <point x="294" y="510" type="line"/>
      <point x="314" y="510" type="line"/>
      <point x="304" y="694" type="line"/>
      <point x="284" y="694" type="line"/>
    </contour>
  </outline>
</glyph>
<glyph name="zainabove-ar" format="2">
  <unicode hex="0617"/>
  <anchor x="86" y="356" name="_top"/>
  <anchor x="85" y="666" name="top"/>
  <outline>
    <contour>
      <point x="58" y="420" type="curve" smooth="yes"/>
      <point x="122" y="420"/>
      <point x="163" y="451"/>
      <point x="163" y="518" type="curve" smooth="yes"/>
      <point x="163" y="545"/>
      <point x="155" y="579"/>
      <point x="142" y="606" type="curve"/>
      <point x="123" y="600" type="line"/>
      <point x="136" y="571"/>
      <point x="143" y="545"/>
      <point x="143" y="517" type="curve" smooth="yes"/>
      <point x="143" y="460"/>
      <point x="110" y="439"/>
      <point x="57" y="439" type="curve" smooth="yes"/>
      <point x="43" y="439"/>
      <point x="34" y="441"/>
      <point x="21" y="443" type="curve"/>
      <point x="20" y="425" type="line"/>
      <point x="29" y="422"/>
      <point x="45" y="420"/>
    </contour>
    <contour>
      <point x="125" y="630" type="curve" smooth="yes"/>
      <point x="134" y="630"/>
      <point x="142" y="638"/>
      <point x="142" y="646" type="curve" smooth="yes"/>
      <point x="142" y="656"/>
      <point x="134" y="663"/>
      <point x="125" y="663" type="curve" smooth="yes"/>
      <point x="116" y="663"/>
      <point x="109" y="656"/>
      <point x="109" y="646" type="curve" smooth="yes"/>
      <point x="109" y="638"/>
      <point x="116" y="630"/>
    </contour>
  </outline>
</glyph>
<glyph name="fathasmall-ar" format="2">
  <unicode hex="0618"/>
  <anchor x="111" y="383" name="_top"/>
  <anchor x="115" y="492" name="top"/>
  <outline>
    <contour>
      <point x="34" y="397" type="line"/>
      <point x="200" y="435" type="line"/>
      <point x="196" y="458" type="line"/>
      <point x="30" y="419" type="line"/>
    </contour>
  </outline>
</glyph>
<glyph name="dammasmall-ar" format="2">
  <unicode hex="0619"/>
  <anchor x="129" y="376" name="_top"/>
  <anchor x="136" y="654" name="top"/>
  <outline>
    <contour>
      <point x="34" y="402" type="line"/>
      <point x="137" y="415"/>
      <point x="223" y="459"/>
      <point x="223" y="550" type="curve" smooth="yes"/>
      <point x="223" y="607"/>
      <point x="189" y="633"/>
      <point x="146" y="633" type="curve" smooth="yes"/>
      <point x="102" y="633"/>
      <point x="67" y="604"/>
      <point x="67" y="556" type="curve" smooth="yes"/>
      <point x="67" y="509"/>
      <point x="104" y="467"/>
      <point x="150" y="446" type="curve"/>
      <point x="164" y="462" type="line"/>
      <point x="124" y="479"/>
      <point x="89" y="514"/>
      <point x="89" y="554" type="curve" smooth="yes"/>
      <point x="89" y="589"/>
      <point x="110" y="612"/>
      <point x="146" y="612" type="curve" smooth="yes"/>
      <point x="175" y="612"/>
      <point x="201" y="594"/>
      <point x="201" y="550" type="curve" smooth="yes"/>
      <point x="201" y="479"/>
      <point x="145" y="438"/>
      <point x="30" y="422" type="curve"/>
    </contour>
  </outline>
</glyph>
<glyph name="semicolon-ar" format="2">
  <advance width="240"/>
  <unicode hex="061B"/>
  <outline>
    <contour>
      <point x="84" y="225" type="curve"/>
      <point x="115" y="225" type="line"/>
      <point x="127" y="295"/>
      <point x="146" y="384"/>
      <point x="176" y="460" type="curve"/>
      <point x="148" y="460" type="line"/>
      <point x="119" y="388"/>
      <point x="96" y="296"/>
    </contour>
    <contour>
      <point x="110" y="-14" type="curve" smooth="yes"/>
      <point x="126" y="-14"/>
      <point x="141" y="-4"/>
      <point x="141" y="19" type="curve" smooth="yes"/>
      <point x="141" y="42"/>
      <point x="126" y="51"/>
      <point x="110" y="51" type="curve" smooth="yes"/>
      <point x="92" y="51"/>
      <point x="78" y="42"/>
      <point x="78" y="19" type="curve" smooth="yes"/>
      <point x="78" y="-4"/>
      <point x="92" y="-14"/>
    </contour>
  </outline>
</glyph>
<glyph name="question-ar" format="2">
  <advance width="414"/>
  <unicode hex="061F"/>
  <outline>
    <contour>
      <point x="237" y="174" type="curve"/>
      <point x="262" y="174" type="line"/>
      <point x="263" y="262"/>
      <point x="250" y="311"/>
      <point x="177" y="373" type="curve" smooth="yes"/>
      <point x="104" y="435"/>
      <point x="59" y="465"/>
      <point x="59" y="542" type="curve" smooth="yes"/>
      <point x="59" y="625"/>
      <point x="130" y="679"/>
      <point x="245" y="679" type="curve" smooth="yes"/>
      <point x="301" y="679"/>
      <point x="360" y="665"/>
      <point x="401" y="645" type="curve"/>
      <point x="408" y="669" type="line"/>
      <point x="362" y="692"/>
      <point x="300" y="704"/>
      <point x="247" y="704" type="curve" smooth="yes"/>
      <point x="112" y="704"/>
      <point x="32" y="636"/>
      <point x="32" y="540" type="curve" smooth="yes"/>
      <point x="32" y="450"/>
      <point x="91" y="415"/>
      <point x="164" y="351" type="curve" smooth="yes"/>
      <point x="224" y="299"/>
      <point x="238" y="257"/>
    </contour>
    <contour>
      <point x="248" y="-8" type="curve" smooth="yes"/>
      <point x="267" y="-8"/>
      <point x="277" y="6"/>
      <point x="277" y="23" type="curve" smooth="yes"/>
      <point x="277" y="39"/>
      <point x="267" y="54"/>
      <point x="247" y="54" type="curve" smooth="yes"/>
      <point x="226" y="54"/>
      <point x="217" y="39"/>
      <point x="217" y="23" type="curve" smooth="yes"/>
      <point x="217" y="6"/>
      <point x="225" y="-8"/>
    </contour>
  </outline>
</glyph>
<glyph name="hamza-ar" format="2">
  <advance width="436"/>
  <unicode hex="0621"/>
  <anchor x="224" y="-67" name="bottom"/>
  <anchor x="219" y="443" name="top"/>
  <outline>
    <contour>
      <point x="26" y="-34" type="line"/>
      <point x="139" y="-9"/>
      <point x="320" y="19"/>
      <point x="419" y="37" type="curve"/>
      <point x="416" y="62" type="line"/>
      <point x="343" y="49"/>
      <point x="281" y="37"/>
      <point x="239" y="37" type="curve" smooth="yes"/>
      <point x="146" y="37"/>
      <point x="85" y="97"/>
      <point x="85" y="178" type="curve" smooth="yes"/>
      <point x="85" y="273"/>
      <point x="153" y="337"/>
      <point x="250" y="337" type="curve" smooth="yes"/>
      <point x="295" y="337"/>
      <point x="329" y="329"/>
      <point x="363" y="316" type="curve"/>
      <point x="368" y="338" type="line"/>
      <point x="338" y="351"/>
      <point x="299" y="361"/>
      <point x="252" y="361" type="curve" smooth="yes"/>
      <point x="136" y="361"/>
      <point x="60" y="283"/>
      <point x="60" y="179" type="curve" smooth="yes"/>
      <point x="60" y="77"/>
      <point x="134" y="23"/>
      <point x="208" y="16" type="curve"/>
      <point x="207" y="27" type="line"/>
      <point x="151" y="17"/>
      <point x="90" y="5"/>
      <point x="22" y="-9" type="curve"/>
    </contour>
  </outline>
</glyph>
<glyph name="alef-ar" format="2">
  <advance width="264"/>
  <unicode hex="0627"/>
  <guideline x="-804" y="280" angle="0"/>
  <anchor x="141" y="-111" name="bottom"/>
  <anchor x="141" y="-20" name="bottom.dot"/>
  <anchor x="123" y="735" name="top"/>
  <outline>
    <contour>
      <point x="129" y="0" type="line"/>
      <point x="153" y="0" type="line"/>
      <point x="133" y="714" type="line"/>
      <point x="109" y="714" type="line"/>
    </contour>
  </outline>
</glyph>
<glyph name="hah-ar" format="2">
  <advance width="710"/>
  <unicode hex="062D"/>
  <anchor x="333" y="-435" name="bottom"/>
  <anchor x="391" y="-55" name="center"/>
  <anchor x="344" y="580" name="top"/>
  <anchor x="342" y="478" name="top.dot"/>
  <outline>
    <contour>
      <point x="390" y="-394" type="curve" smooth="yes"/>
      <point x="495" y="-394"/>
      <point x="583" y="-378"/>
      <point x="640" y="-358" type="curve"/>
      <point x="638" y="-334" type="line"/>
      <point x="580" y="-352"/>
      <point x="498" y="-368"/>
      <point x="395" y="-368" type="curve" smooth="yes"/>
      <point x="189" y="-368"/>
      <point x="70" y="-277"/>
      <point x="70" y="-116" type="curve" smooth="yes"/>
      <point x="70" y="117"/>
      <point x="369" y="236"/>
      <point x="654" y="293" type="curve"/>
      <point x="654" y="320" type="line"/>
      <point x="593" y="317"/>
      <point x="546" y="328"/>
      <point x="498" y="343" type="curve" smooth="yes"/>
      <point x="389" y="377"/>
      <point x="309" y="456"/>
      <point x="194" y="456" type="curve" smooth="yes"/>
      <point x="141" y="456"/>
      <point x="104" y="445"/>
      <point x="74" y="433" type="curve"/>
      <point x="75" y="408" type="line"/>
      <point x="108" y="420"/>
      <point x="140" y="430"/>
      <point x="196" y="430" type="curve" smooth="yes"/>
      <point x="335" y="430"/>
      <point x="440" y="285"/>
      <point x="632" y="299" type="curve"/>
      <point x="633" y="314" type="line"/>
      <point x="366" y="262"/>
      <point x="45" y="141"/>
      <point x="45" y="-119" type="curve" smooth="yes"/>
      <point x="45" y="-296"/>
      <point x="174" y="-394"/>
    </contour>
  </outline>
</glyph>
<glyph name="dal-ar" format="2">
  <advance width="463"/>
  <unicode hex="062F"/>
  <anchor x="202" y="-111" name="bottom"/>
  <anchor x="205" y="-21" name="bottom.dot"/>
  <anchor x="215" y="602" name="top"/>
  <anchor x="215" y="486" name="top.dot"/>
  <outline>
    <contour>
      <point x="188" y="-10" type="curve" smooth="yes"/>
      <point x="340" y="-10"/>
      <point x="417" y="41"/>
      <point x="417" y="136" type="curve" smooth="yes"/>
      <point x="417" y="231"/>
      <point x="346" y="355"/>
      <point x="225" y="487" type="curve"/>
      <point x="206" y="469" type="line"/>
      <point x="325" y="342"/>
      <point x="392" y="215"/>
      <point x="392" y="136" type="curve" smooth="yes"/>
      <point x="392" y="56"/>
      <point x="319" y="16"/>
      <point x="193" y="16" type="curve" smooth="yes"/>
      <point x="140" y="16"/>
      <point x="73" y="28"/>
      <point x="28" y="53" type="curve"/>
      <point x="22" y="28" type="line"/>
      <point x="65" y="6"/>
      <point x="128" y="-10"/>
    </contour>
  </outline>
</glyph>
<glyph name="reh-ar" format="2">
  <advance width="438"/>
  <unicode hex="0631"/>
  <anchor x="118" y="-297" name="bottom"/>
  <anchor x="118" y="-252" name="bottom.dot"/>
  <anchor x="195" y="1" name="center"/>
  <anchor x="247" y="481" name="top"/>
  <anchor x="251" y="350" name="top.dot"/>
  <outline>
    <contour>
      <point x="66" y="-260" type="curve" smooth="yes"/>
      <point x="255" y="-260"/>
      <point x="352" y="-150"/>
      <point x="352" y="35" type="curve" smooth="yes"/>
      <point x="352" y="127"/>
      <point x="320" y="225"/>
      <point x="268" y="308" type="curve"/>
      <point x="246" y="294" type="line"/>
      <point x="298" y="214"/>
      <point x="327" y="120"/>
      <point x="327" y="34" type="curve" smooth="yes"/>
      <point x="327" y="-139"/>
      <point x="235" y="-234"/>
      <point x="68" y="-234" type="curve" smooth="yes"/>
      <point x="4" y="-234"/>
      <point x="-33" y="-223"/>
      <point x="-75" y="-205" type="curve"/>
      <point x="-75" y="-231" type="line"/>
      <point x="-42" y="-248"/>
      <point x="1" y="-260"/>
    </contour>
  </outline>
</glyph>
<glyph name="seen-ar" format="2">
  <advance width="1267"/>
  <unicode hex="0633"/>
  <anchor x="904" y="-111" name="bottom"/>
  <anchor x="904" y="-20" name="bottom.dot"/>
  <anchor x="913" y="451" name="top"/>
  <anchor x="914" y="341" name="top.dot"/>
  <outline>
    <contour>
      <point x="312" y="-240" type="curve" smooth="yes"/>
      <point x="530" y="-240"/>
      <point x="635" y="-111"/>
      <point x="625" y="92" type="curve"/>
      <point x="610" y="93" type="line"/>
      <point x="622" y="42"/>
      <point x="657" y="-10"/>
      <point x="759" y="-10" type="curve" smooth="yes"/>
      <point x="837" y="-10"/>
      <point x="898" y="17"/>
      <point x="917" y="102" type="curve"/>
      <point x="908" y="100" type="line"/>
      <point x="915" y="30"/>
      <point x="952" y="-10"/>
      <point x="1058" y="-10" type="curve" smooth="yes"/>
      <point x="1147" y="-10"/>
      <point x="1207" y="35"/>
      <point x="1207" y="137" type="curve" smooth="yes"/>
      <point x="1207" y="213"/>
      <point x="1189" y="277"/>
      <point x="1161" y="363" type="curve"/>
      <point x="1137" y="354" type="line"/>
      <point x="1167" y="263"/>
      <point x="1182" y="200"/>
      <point x="1182" y="131" type="curve" smooth="yes"/>
      <point x="1182" y="55"/>
      <point x="1138" y="16"/>
      <point x="1063" y="16" type="curve" smooth="yes"/>
      <point x="968" y="16"/>
      <point x="936" y="46"/>
      <point x="931" y="110" type="curve" smooth="yes"/>
      <point x="928" y="145"/>
      <point x="930" y="218"/>
      <point x="928" y="284" type="curve"/>
      <point x="903" y="282" type="line"/>
      <point x="905" y="212"/>
      <point x="904" y="160"/>
      <point x="898" y="121" type="curve" smooth="yes"/>
      <point x="887" y="52"/>
      <point x="850" y="16"/>
      <point x="763" y="16" type="curve" smooth="yes"/>
      <point x="693" y="16"/>
      <point x="642" y="43"/>
      <point x="626" y="108" type="curve" smooth="yes"/>
      <point x="616" y="148"/>
      <point x="607" y="195"/>
      <point x="590" y="265" type="curve"/>
      <point x="565" y="258" type="line"/>
      <point x="583" y="185"/>
      <point x="601" y="114"/>
      <point x="601" y="56" type="curve" smooth="yes"/>
      <point x="601" y="-91"/>
      <point x="519" y="-214"/>
      <point x="316" y="-214" type="curve" smooth="yes"/>
      <point x="148" y="-214"/>
      <point x="76" y="-122"/>
      <point x="76" y="1" type="curve" smooth="yes"/>
      <point x="76" y="62"/>
      <point x="88" y="117"/>
      <point x="106" y="174" type="curve"/>
      <point x="83" y="181" type="line"/>
      <point x="62" y="117"/>
      <point x="50" y="55"/>
      <point x="50" y="-2" type="curve" smooth="yes"/>
      <point x="50" y="-135"/>
      <point x="128" y="-240"/>
    </contour>
  </outline>
</glyph>
<glyph name="sad-ar" format="2">
  <advance width="1320"/>
  <unicode hex="0635"/>
  <anchor x="939" y="-112" name="bottom"/>
  <anchor x="939" y="-20" name="bottom.dot"/>
  <anchor x="707" y="459" name="top"/>
  <anchor x="1049" y="439" name="top.dot"/>
  <outline>
    <contour>
      <point x="312" y="-240" type="curve" smooth="yes"/>
      <point x="530" y="-240"/>
      <point x="635" y="-109"/>
      <point x="625" y="92" type="curve"/>
      <point x="609" y="89" type="line"/>
      <point x="636" y="23"/>
      <point x="668" y="-5"/>
      <point x="877" y="-5" type="curve" smooth="yes"/>
      <point x="1162" y="-5"/>
      <point x="1274" y="63"/>
      <point x="1274" y="193" type="curve" smooth="yes"/>
      <point x="1274" y="306"/>
      <point x="1208" y="398"/>
      <point x="1091" y="398" type="curve" smooth="yes"/>
      <point x="923" y="398"/>
      <point x="781" y="205"/>
      <point x="660" y="43" type="curve"/>
      <point x="681" y="29" type="line"/>
      <point x="797" y="181"/>
      <point x="932" y="372"/>
      <point x="1090" y="372" type="curve" smooth="yes"/>
      <point x="1193" y="372"/>
      <point x="1249" y="282"/>
      <point x="1249" y="194" type="curve" smooth="yes"/>
      <point x="1249" y="94"/>
      <point x="1166" y="21"/>
      <point x="882" y="21" type="curve" smooth="yes"/>
      <point x="697" y="21"/>
      <point x="648" y="43"/>
      <point x="629" y="100" type="curve" smooth="yes"/>
      <point x="615" y="143"/>
      <point x="607" y="190"/>
      <point x="590" y="264" type="curve"/>
      <point x="565" y="258" type="line"/>
      <point x="585" y="179"/>
      <point x="601" y="114"/>
      <point x="601" y="56" type="curve" smooth="yes"/>
      <point x="601" y="-91"/>
      <point x="519" y="-214"/>
      <point x="316" y="-214" type="curve" smooth="yes"/>
      <point x="148" y="-214"/>
      <point x="76" y="-122"/>
      <point x="76" y="1" type="curve" smooth="yes"/>
      <point x="76" y="62"/>
      <point x="88" y="117"/>
      <point x="106" y="174" type="curve"/>
      <point x="83" y="181" type="line"/>
      <point x="62" y="117"/>
      <point x="50" y="55"/>
      <point x="50" y="-2" type="curve" smooth="yes"/>
      <point x="50" y="-135"/>
      <point x="128" y="-240"/>
    </contour>
  </outline>
</glyph>
<glyph name="tah-ar" format="2">
  <advance width="857"/>
  <unicode hex="0637"/>
  <anchor x="439" y="-112" name="bottom"/>
  <anchor x="439" y="-20" name="bottom.dot"/>
  <anchor x="578" y="536" name="top"/>
  <anchor x="599" y="439" name="top.dot"/>
  <outline>
    <contour>
      <point x="355" y="-5" type="curve" smooth="yes"/>
      <point x="714" y="-5"/>
      <point x="811" y="70"/>
      <point x="811" y="193" type="curve" smooth="yes"/>
      <point x="811" y="301"/>
      <point x="745" y="398"/>
      <point x="628" y="398" type="curve" smooth="yes"/>
      <point x="460" y="398"/>
      <point x="295" y="175"/>
      <point x="184" y="13" type="curve"/>
      <point x="210" y="7" type="line"/>
      <point x="316" y="159"/>
      <point x="468" y="372"/>
      <point x="626" y="372" type="curve" smooth="yes"/>
      <point x="730" y="372"/>
      <point x="786" y="282"/>
      <point x="786" y="194" type="curve" smooth="yes"/>
      <point x="786" y="84"/>
      <point x="686" y="21"/>
      <point x="362" y="21" type="curve" smooth="yes"/>
      <point x="251" y="21"/>
      <point x="129" y="25"/>
      <point x="33" y="32" type="curve"/>
      <point x="30" y="6" type="line"/>
      <point x="123" y="0"/>
      <point x="245" y="-5"/>
    </contour>
    <contour>
      <point x="275" y="124" type="line"/>
      <point x="297" y="161" type="line"/>
      <point x="279" y="714" type="line"/>
      <point x="255" y="714" type="line"/>
    </contour>
  </outline>
</glyph>
<glyph name="ain-ar" format="2">
  <advance width="564"/>
  <unicode hex="0639"/>
  <anchor x="333" y="-435" name="bottom"/>
  <anchor x="352" y="-105" name="center"/>
  <anchor x="280" y="630" name="top"/>
  <anchor x="280" y="510" name="top.dot"/>
  <outline>
    <contour>
      <point x="335" y="-384" type="curve" smooth="yes"/>
      <point x="407" y="-384"/>
      <point x="503" y="-369"/>
      <point x="568" y="-344" type="curve"/>
      <point x="566" y="-319" type="line"/>
      <point x="499" y="-344"/>
      <point x="408" y="-358"/>
      <point x="335" y="-358" type="curve" smooth="yes"/>
      <point x="180" y="-358"/>
      <point x="61" y="-299"/>
      <point x="61" y="-151" type="curve" smooth="yes"/>
      <point x="61" y="-49"/>
      <point x="140" y="34"/>
      <point x="264" y="90" type="curve" smooth="yes"/>
      <point x="320" y="115"/>
      <point x="417" y="137"/>
      <point x="487" y="154" type="curve"/>
      <point x="486" y="180" type="line"/>
      <point x="414" y="162"/>
      <point x="332" y="140"/>
      <point x="284" y="140" type="curve" smooth="yes"/>
      <point x="197" y="140"/>
      <point x="104" y="193"/>
      <point x="104" y="306" type="curve" smooth="yes"/>
      <point x="104" y="421"/>
      <point x="195" y="486"/>
      <point x="306" y="486" type="curve" smooth="yes"/>
      <point x="362" y="486"/>
      <point x="399" y="474"/>
      <point x="434" y="463" type="curve"/>
      <point x="437" y="487" type="line"/>
      <point x="401" y="501"/>
      <point x="361" y="512"/>
      <point x="304" y="512" type="curve" smooth="yes"/>
      <point x="171" y="512"/>
      <point x="79" y="427"/>
      <point x="79" y="305" type="curve" smooth="yes"/>
      <point x="79" y="178"/>
      <point x="186" y="114"/>
      <point x="278" y="114" type="curve"/>
      <point x="277" y="123" type="line"/>
      <point x="143" y="68"/>
      <point x="36" y="-20"/>
      <point x="36" y="-156" type="curve" smooth="yes"/>
      <point x="36" y="-306"/>
      <point x="152" y="-384"/>
    </contour>
  </outline>
</glyph>
<glyph name="kashida-ar" format="2">
  <advance width="280"/>
  <unicode hex="0640"/>
  <outline>
    <contour>
      <point x="0" y="-5" type="line"/>
      <point x="280" y="-5" type="line" smooth="yes"/>
      <point x="288" y="-5"/>
      <point x="294" y="2"/>
      <point x="294" y="8" type="curve" smooth="yes"/>
      <point x="294" y="14"/>
      <point x="291" y="21"/>
      <point x="283" y="21" type="curve" smooth="yes"/>
      <point x="4" y="21" type="line"/>
    </contour>
  </outline>
</glyph>
<glyph name="kaf-ar" format="2">
  <advance width="924"/>
  <unicode hex="0643"/>
  <anchor x="444" y="-111" name="bottom"/>
  <anchor x="445" y="-20" name="bottom.dot"/>
  <anchor x="447" y="610" name="top"/>
  <anchor x="448" y="591" name="top.dot"/>
  <outline>
    <contour>
      <point x="390" y="-15" type="line"/>
      <point x="711" y="-15"/>
      <point x="820" y="74"/>
      <point x="813" y="246" type="curve" smooth="yes"/>
      <point x="793" y="714" type="line"/>
      <point x="769" y="714" type="line"/>
      <point x="788" y="240" type="line" smooth="yes"/>
      <point x="795" y="70"/>
      <point x="645" y="11"/>
      <point x="416" y="11" type="curve"/>
    </contour>
    <contour>
      <point x="315" y="276" type="line"/>
      <point x="447" y="277"/>
      <point x="530" y="307"/>
      <point x="530" y="365" type="curve" smooth="yes"/>
      <point x="530" y="397"/>
      <point x="511" y="415"/>
      <point x="448" y="430" type="curve" smooth="yes"/>
      <point x="391" y="444"/>
      <point x="370" y="453"/>
      <point x="370" y="476" type="curve" smooth="yes"/>
      <point x="370" y="505"/>
      <point x="399" y="535"/>
      <point x="518" y="562" type="curve"/>
      <point x="516" y="585" type="line"/>
      <point x="397" y="559"/>
      <point x="346" y="525"/>
      <point x="346" y="476" type="curve" smooth="yes"/>
      <point x="346" y="441"/>
      <point x="370" y="424"/>
      <point x="444" y="407" type="curve" smooth="yes"/>
      <point x="495" y="395"/>
      <point x="506" y="382"/>
      <point x="506" y="363" type="curve" smooth="yes"/>
      <point x="506" y="327"/>
      <point x="439" y="301"/>
      <point x="312" y="299" type="curve"/>
    </contour>
    <component base="_part.beh.fina" xOffset="-10"/>
  </outline>
</glyph>
<glyph name="lam-ar" format="2">
  <advance width="686"/>
  <unicode hex="0644"/>
  <anchor x="314" y="-271" name="bottom"/>
  <anchor x="314" y="-233" name="bottom.dot"/>
  <anchor x="553" y="389" name="center"/>
  <anchor x="195" y="494" name="top"/>
  <anchor x="544" y="715" name="top.dot"/>
  <outline>
    <contour>
      <point x="301" y="-239" type="curve" smooth="yes"/>
      <point x="473" y="-239"/>
      <point x="583" y="-144"/>
      <point x="574" y="130" type="curve" smooth="yes"/>
      <point x="555" y="714" type="line"/>
      <point x="531" y="714" type="line"/>
      <point x="550" y="138" type="line" smooth="yes"/>
      <point x="559" y="-134"/>
      <point x="456" y="-213"/>
      <point x="302" y="-213" type="curve" smooth="yes"/>
      <point x="147" y="-213"/>
      <point x="75" y="-132"/>
      <point x="75" y="1" type="curve" smooth="yes"/>
      <point x="75" y="72"/>
      <point x="89" y="121"/>
      <point x="105" y="174" type="curve"/>
      <point x="83" y="181" type="line"/>
      <point x="65" y="129"/>
      <point x="50" y="68"/>
      <point x="50" y="-2" type="curve" smooth="yes"/>
      <point x="50" y="-144"/>
      <point x="128" y="-239"/>
    </contour>
  </outline>
</glyph>
<glyph name="meem-ar" format="2">
  <advance width="539"/>
  <unicode hex="0645"/>
  <anchor x="283" y="-111" name="bottom"/>
  <anchor x="283" y="-20" name="bottom.dot"/>
  <anchor x="262" y="490" name="top"/>
  <anchor x="264" y="391" name="top.dot"/>
  <outline>
    <contour>
      <point x="64" y="-393" type="curve"/>
      <point x="89" y="-391" type="line"/>
      <point x="78" y="-273"/>
      <point x="65" y="-169"/>
      <point x="65" y="-99" type="curve" smooth="yes"/>
      <point x="65" y="15"/>
      <point x="134" y="65"/>
      <point x="274" y="65" type="curve" smooth="yes"/>
      <point x="347" y="65"/>
      <point x="419" y="58"/>
      <point x="488" y="46" type="curve"/>
      <point x="497" y="76" type="line"/>
      <point x="454" y="236"/>
      <point x="382" y="382"/>
      <point x="260" y="382" type="curve" smooth="yes"/>
      <point x="187" y="382"/>
      <point x="132" y="337"/>
      <point x="91" y="237" type="curve"/>
      <point x="112" y="225" type="line"/>
      <point x="148" y="311"/>
      <point x="193" y="355"/>
      <point x="260" y="355" type="curve" smooth="yes"/>
      <point x="364" y="355"/>
      <point x="431" y="219"/>
      <point x="474" y="66" type="curve"/>
      <point x="482" y="72" type="line"/>
      <point x="425" y="81"/>
      <point x="356" y="91"/>
      <point x="275" y="91" type="curve" smooth="yes"/>
      <point x="124" y="91"/>
      <point x="40" y="35"/>
      <point x="40" y="-99" type="curve" smooth="yes"/>
      <point x="40" y="-165"/>
      <point x="49" y="-252"/>
    </contour>
  </outline>
</glyph>
<glyph name="heh-ar" format="2">
  <advance width="455"/>
  <unicode hex="0647"/>
  <anchor x="219" y="-111" name="bottom"/>
  <anchor x="207" y="600" name="top"/>
  <anchor x="207" y="531" name="top.dot"/>
  <outline>
    <contour>
      <point x="215" y="0" type="curve" smooth="yes"/>
      <point x="358" y="0"/>
      <point x="425" y="68"/>
      <point x="425" y="171" type="curve" smooth="yes"/>
      <point x="425" y="292"/>
      <point x="342" y="393"/>
      <point x="177" y="510" type="curve"/>
      <point x="160" y="489" type="line"/>
      <point x="326" y="375"/>
      <point x="400" y="275"/>
      <point x="400" y="172" type="curve" smooth="yes"/>
      <point x="400" y="85"/>
      <point x="344" y="26"/>
      <point x="218" y="26" type="curve" smooth="yes"/>
      <point x="113" y="26"/>
      <point x="55" y="83"/>
      <point x="55" y="162" type="curve" smooth="yes"/>
      <point x="55" y="271"/>
      <point x="125" y="349"/>
      <point x="234" y="445" type="curve"/>
      <point x="215" y="462" type="line"/>
      <point x="106" y="363"/>
      <point x="30" y="278"/>
      <point x="30" y="161" type="curve" smooth="yes"/>
      <point x="30" y="64"/>
      <point x="100" y="0"/>
    </contour>
  </outline>
</glyph>
<glyph name="waw-ar" format="2">
  <advance width="461"/>
  <unicode hex="0648"/>
  <anchor x="201" y="-300" name="bottom"/>
  <anchor x="241" y="-96" name="center"/>
  <anchor x="233" y="413" name="top"/>
  <anchor x="233" y="347" name="top.dot"/>
  <outline>
    <contour>
      <point x="151" y="-260" type="curve" smooth="yes"/>
      <point x="330" y="-257"/>
      <point x="417" y="-131"/>
      <point x="417" y="60" type="curve" smooth="yes"/>
      <point x="417" y="221"/>
      <point x="359" y="346"/>
      <point x="232" y="346" type="curve" smooth="yes"/>
      <point x="134" y="346"/>
      <point x="60" y="255"/>
      <point x="60" y="142" type="curve" smooth="yes"/>
      <point x="60" y="48"/>
      <point x="113" y="-7"/>
      <point x="233" y="-7" type="curve" smooth="yes"/>
      <point x="296" y="-7"/>
      <point x="366" y="12"/>
      <point x="403" y="34" type="curve"/>
      <point x="404" y="62" type="line"/>
      <point x="358" y="36"/>
      <point x="298" y="19"/>
      <point x="239" y="19" type="curve" smooth="yes"/>
      <point x="126" y="19"/>
      <point x="85" y="60"/>
      <point x="85" y="145" type="curve" smooth="yes"/>
      <point x="85" y="239"/>
      <point x="145" y="319"/>
      <point x="230" y="319" type="curve" smooth="yes"/>
      <point x="339" y="319"/>
      <point x="392" y="216"/>
      <point x="392" y="53" type="curve" smooth="yes"/>
      <point x="392" y="-119"/>
      <point x="310" y="-230"/>
      <point x="153" y="-233" type="curve" smooth="yes"/>
      <point x="99" y="-234"/>
      <point x="46" y="-222"/>
      <point x="10" y="-205" type="curve"/>
      <point x="10" y="-231" type="line"/>
      <point x="43" y="-248"/>
      <point x="96" y="-261"/>
    </contour>
  </outline>
</glyph>
<glyph name="alefMaksura-ar" format="2">
  <advance width="789"/>
  <unicode hex="0649"/>
  <anchor x="347" y="-281" name="bottom"/>
  <anchor x="347" y="-246" name="bottom.dot"/>
  <anchor x="218" y="306" name="top"/>
  <anchor x="115" y="181" name="top.dot"/>
  <outline>
    <contour>
      <point x="332" y="-240" type="curve" smooth="yes"/>
      <point x="572" y="-240"/>
      <point x="721" y="-113"/>
      <point x="721" y="-1" type="curve" smooth="yes"/>
      <point x="721" y="66"/>
      <point x="673" y="86"/>
      <point x="550" y="114" type="curve" smooth="yes"/>
      <point x="445" y="138"/>
      <point x="398" y="159"/>
      <point x="398" y="218" type="curve" smooth="yes"/>
      <point x="398" y="303"/>
      <point x="492" y="400"/>
      <point x="620" y="400" type="curve" smooth="yes"/>
      <point x="662" y="400"/>
      <point x="704" y="388"/>
      <point x="739" y="368" type="curve"/>
      <point x="747" y="392" type="line"/>
      <point x="717" y="411"/>
      <point x="673" y="426"/>
      <point x="620" y="426" type="curve" smooth="yes"/>
      <point x="479" y="426"/>
      <point x="373" y="318"/>
      <point x="373" y="215" type="curve" smooth="yes"/>
      <point x="373" y="141"/>
      <point x="432" y="113"/>
      <point x="542" y="89" type="curve" smooth="yes"/>
      <point x="657" y="64"/>
      <point x="696" y="46"/>
      <point x="696" y="-2" type="curve" smooth="yes"/>
      <point x="696" y="-100"/>
      <point x="550" y="-214"/>
      <point x="338" y="-214" type="curve" smooth="yes"/>
      <point x="159" y="-214"/>
      <point x="75" y="-149"/>
      <point x="75" y="-19" type="curve" smooth="yes"/>
      <point x="75" y="32"/>
      <point x="88" y="101"/>
      <point x="114" y="163" type="curve"/>
      <point x="92" y="171" type="line"/>
      <point x="60" y="97"/>
      <point x="50" y="28"/>
      <point x="50" y="-22" type="curve" smooth="yes"/>
      <point x="50" y="-176"/>
      <point x="156" y="-240"/>
    </contour>
  </outline>
</glyph>
<glyph name="fathatan-ar" format="2">
  <unicode hex="064B"/>
  <anchor x="146" y="383" name="_top"/>
  <anchor x="142" y="613" name="top"/>
  <outline>
    <contour>
      <point x="34" y="516" type="line"/>
      <point x="250" y="564" type="line"/>
      <point x="246" y="587" type="line"/>
      <point x="30" y="538" type="line"/>
    </contour>
    <contour>
      <point x="34" y="397" type="line"/>
      <point x="250" y="445" type="line"/>
      <point x="246" y="468" type="line"/>
      <point x="30" y="419" type="line"/>
    </contour>
  </outline>
</glyph>
<glyph name="dammatan-ar" format="2">
  <unicode hex="064C"/>
  <anchor x="165" y="383" name="_top"/>
  <anchor x="169" y="608" name="top"/>
  <outline>
    <contour>
      <point x="46" y="399" type="line"/>
      <point x="185" y="404"/>
      <point x="297" y="458"/>
      <point x="297" y="549" type="curve" smooth="yes"/>
      <point x="297" y="595"/>
      <point x="270" y="622"/>
      <point x="228" y="622" type="curve" smooth="yes"/>
      <point x="190" y="622"/>
      <point x="156" y="596"/>
      <point x="156" y="548" type="curve" smooth="yes"/>
      <point x="156" y="505"/>
      <point x="188" y="471"/>
      <point x="220" y="452" type="curve"/>
      <point x="235" y="469" type="line"/>
      <point x="203" y="488"/>
      <point x="179" y="513"/>
      <point x="179" y="547" type="curve" smooth="yes"/>
      <point x="179" y="579"/>
      <point x="198" y="598"/>
      <point x="227" y="598" type="curve" smooth="yes"/>
      <point x="259" y="598"/>
      <point x="274" y="579"/>
      <point x="274" y="546" type="curve" smooth="yes"/>
      <point x="274" y="472"/>
      <point x="165" y="430"/>
      <point x="77" y="422" type="curve"/>
      <point x="70" y="415" type="line"/>
      <point x="109" y="416"/>
      <point x="130" y="445"/>
      <point x="130" y="482" type="curve" smooth="yes"/>
      <point x="130" y="520"/>
      <point x="111" y="545"/>
      <point x="75" y="545" type="curve" smooth="yes"/>
      <point x="58" y="545"/>
      <point x="41" y="539"/>
      <point x="30" y="531" type="curve"/>
      <point x="34" y="513" type="line"/>
      <point x="46" y="520"/>
      <point x="59" y="524"/>
      <point x="72" y="524" type="curve" smooth="yes"/>
      <point x="96" y="524"/>
      <point x="109" y="508"/>
      <point x="109" y="481" type="curve" smooth="yes"/>
      <point x="109" y="452"/>
      <point x="92" y="426"/>
      <point x="44" y="421" type="curve"/>
    </contour>
  </outline>
</glyph>
<glyph name="fatha-ar" format="2">
  <unicode hex="064E"/>
  <anchor x="142" y="363" name="_top"/>
  <anchor x="142" y="356" name="_top.dot"/>
  <anchor x="141" y="482" name="top"/>
  <outline>
    <contour>
      <point x="34" y="397" type="line"/>
      <point x="250" y="445" type="line"/>
      <point x="246" y="468" type="line"/>
      <point x="30" y="419" type="line"/>
    </contour>
  </outline>
</glyph>
<glyph name="shadda-ar" format="2">
  <unicode hex="0651"/>
  <anchor x="145" y="383" name="_top"/>
  <anchor x="147" y="574" name="top"/>
  <outline>
    <contour>
      <point x="87" y="402" type="curve" smooth="yes"/>
      <point x="129" y="402"/>
      <point x="150" y="440"/>
      <point x="150" y="482" type="curve"/>
      <point x="140" y="480" type="line"/>
      <point x="142" y="446"/>
      <point x="162" y="429"/>
      <point x="190" y="429" type="curve" smooth="yes"/>
      <point x="232" y="429"/>
      <point x="254" y="461"/>
      <point x="254" y="504" type="curve" smooth="yes"/>
      <point x="254" y="535"/>
      <point x="249" y="554"/>
      <point x="242" y="578" type="curve"/>
      <point x="222" y="571" type="line"/>
      <point x="229" y="549"/>
      <point x="232" y="528"/>
      <point x="232" y="504" type="curve" smooth="yes"/>
      <point x="232" y="467"/>
      <point x="217" y="452"/>
      <point x="191" y="452" type="curve" smooth="yes"/>
      <point x="167" y="452"/>
      <point x="155" y="466"/>
      <point x="155" y="502" type="curve" smooth="yes"/>
      <point x="155" y="549" type="line"/>
      <point x="134" y="543" type="line"/>
      <point x="133" y="499" type="line" smooth="yes"/>
      <point x="132" y="447"/>
      <point x="115" y="425"/>
      <point x="86" y="425" type="curve" smooth="yes"/>
      <point x="59" y="425"/>
      <point x="51" y="443"/>
      <point x="51" y="472" type="curve" smooth="yes"/>
      <point x="51" y="485"/>
      <point x="53" y="498"/>
      <point x="56" y="523" type="curve"/>
      <point x="36" y="517" type="line"/>
      <point x="32" y="497"/>
      <point x="30" y="483"/>
      <point x="30" y="470" type="curve" smooth="yes"/>
      <point x="30" y="426"/>
      <point x="48" y="402"/>
    </contour>
  </outline>
</glyph>
<glyph name="madda-ar" format="2">
  <unicode hex="0653"/>
  <guideline x="93" y="1351" angle="0"/>
  <anchor x="149" y="383" name="_top"/>
  <anchor x="149" y="356" name="_top.dot"/>
  <anchor x="149" y="531" name="top"/>
  <outline>
    <contour>
      <point x="216" y="426" type="curve" smooth="yes"/>
      <point x="251" y="426"/>
      <point x="278" y="442"/>
      <point x="306" y="473" type="curve"/>
      <point x="294" y="490" type="line"/>
      <point x="269" y="465"/>
      <point x="251" y="449"/>
      <point x="219" y="449" type="curve" smooth="yes"/>
      <point x="166" y="449"/>
      <point x="125" y="500"/>
      <point x="78" y="500" type="curve" smooth="yes"/>
      <point x="40" y="500"/>
      <point x="18" y="475"/>
      <point x="0" y="451" type="curve"/>
      <point x="15" y="437" type="line"/>
      <point x="31" y="458"/>
      <point x="50" y="477"/>
      <point x="76" y="477" type="curve" smooth="yes"/>
      <point x="113" y="477"/>
      <point x="158" y="426"/>
    </contour>
  </outline>
</glyph>
<glyph name="noonghunnaabove-ar" format="2">
  <unicode hex="0658"/>
  <anchor x="137" y="383" name="_top"/>
  <anchor x="138" y="613" name="top"/>
  <outline>
    <contour>
      <point x="132" y="413" type="curve" smooth="yes"/>
      <point x="204" y="413"/>
      <point x="244" y="448"/>
      <point x="244" y="523" type="curve" smooth="yes"/>
      <point x="244" y="547"/>
      <point x="241" y="573"/>
      <point x="235" y="597" type="curve"/>
      <point x="215" y="593" type="line"/>
      <point x="219" y="569"/>
      <point x="223" y="540"/>
      <point x="223" y="523" type="curve" smooth="yes"/>
      <point x="223" y="459"/>
      <point x="192" y="435"/>
      <point x="132" y="435" type="curve" smooth="yes"/>
      <point x="74" y="435"/>
      <point x="51" y="461"/>
      <point x="51" y="509" type="curve" smooth="yes"/>
      <point x="51" y="532"/>
      <point x="53" y="550"/>
      <point x="58" y="572" type="curve"/>
      <point x="39" y="575" type="line"/>
      <point x="33" y="553"/>
      <point x="30" y="531"/>
      <point x="30" y="509" type="curve" smooth="yes"/>
      <point x="30" y="445"/>
      <point x="64" y="413"/>
    </contour>
  </outline>
</glyph>
<glyph name="fathaHorizont-ar" format="2">
  <unicode hex="0659"/>
  <anchor x="143" y="420" name="_top"/>
  <anchor x="141" y="598" name="top"/>
  <outline>
    <contour>
      <point x="30" y="523" type="line"/>
      <point x="254" y="523" type="line"/>
      <point x="254" y="545" type="line"/>
      <point x="30" y="544" type="line"/>
    </contour>
  </outline>
</glyph>
<glyph name="fathatwodots-ar" format="2">
  <unicode hex="065E"/>
  <anchor x="133" y="388" name="_top"/>
  <anchor x="135" y="653" name="top"/>
  <outline>
    <contour>
      <point x="30" y="429" type="line"/>
      <point x="227" y="595" type="line"/>
      <point x="227" y="624" type="line"/>
      <point x="30" y="457" type="line"/>
    </contour>
    <contour>
      <point x="192" y="421" type="curve"/>
      <point x="224" y="452" type="line"/>
      <point x="211" y="466"/>
      <point x="203" y="474"/>
      <point x="191" y="483" type="curve"/>
      <point x="160" y="451" type="line"/>
      <point x="174" y="439"/>
      <point x="181" y="432"/>
    </contour>
    <contour>
      <point x="63" y="578" type="curve"/>
      <point x="95" y="609" type="line"/>
      <point x="82" y="623"/>
      <point x="74" y="631"/>
      <point x="62" y="640" type="curve"/>
      <point x="31" y="608" type="line"/>
      <point x="45" y="596"/>
      <point x="52" y="589"/>
    </contour>
  </outline>
</glyph>
<glyph name="zero-ar" format="2">
  <advance width="269"/>
  <unicode hex="0660"/>
  <outline>
    <contour>
      <point x="140" y="193" type="curve"/>
      <point x="175" y="229" type="line"/>
      <point x="159" y="247"/>
      <point x="146" y="260"/>
      <point x="129" y="275" type="curve"/>
      <point x="94" y="238" type="line"/>
      <point x="113" y="222"/>
      <point x="123" y="211"/>
    </contour>
  </outline>
</glyph>
<glyph name="one-ar" format="2">
  <advance width="299"/>
  <unicode hex="0661"/>
  <outline>
    <contour>
      <point x="185" y="-5" type="curve"/>
      <point x="209" y="-3" type="line"/>
      <point x="197" y="211"/>
      <point x="161" y="457"/>
      <point x="105" y="664" type="curve"/>
      <point x="80" y="657" type="line"/>
      <point x="137" y="451"/>
      <point x="171" y="203"/>
    </contour>
  </outline>
</glyph>
<glyph name="two-ar" format="2">
  <advance width="485"/>
  <unicode hex="0662"/>
  <outline>
    <contour>
      <point x="180" y="-5" type="curve"/>
      <point x="204" y="-3" type="line"/>
      <point x="171" y="242"/>
      <point x="91" y="433"/>
      <point x="91" y="531" type="curve" smooth="yes"/>
      <point x="91" y="600"/>
      <point x="135" y="637"/>
      <point x="273" y="637" type="curve" smooth="yes"/>
      <point x="325" y="637"/>
      <point x="394" y="630"/>
      <point x="453" y="615" type="curve"/>
      <point x="458" y="639" type="line"/>
      <point x="399" y="656"/>
      <point x="331" y="663"/>
      <point x="274" y="663" type="curve" smooth="yes"/>
      <point x="124" y="663"/>
      <point x="66" y="616"/>
      <point x="66" y="534" type="curve" smooth="yes"/>
      <point x="66" y="442"/>
      <point x="148" y="229"/>
    </contour>
  </outline>
</glyph>
<glyph name="three-ar" format="2">
  <advance width="645"/>
  <unicode hex="0663"/>
  <outline>
    <contour>
      <point x="154" y="-5" type="curve"/>
      <point x="181" y="-3" type="line"/>
      <point x="171" y="196"/>
      <point x="152" y="332"/>
      <point x="124" y="479" type="curve"/>
      <point x="109" y="473" type="line"/>
      <point x="124" y="424"/>
      <point x="174" y="403"/>
      <point x="235" y="403" type="curve" smooth="yes"/>
      <point x="306" y="403"/>
      <point x="340" y="439"/>
      <point x="350" y="487" type="curve"/>
      <point x="341" y="487" type="line"/>
      <point x="348" y="432"/>
      <point x="389" y="407"/>
      <point x="455" y="407" type="curve" smooth="yes"/>
      <point x="541" y="407"/>
      <point x="580" y="459"/>
      <point x="580" y="549" type="curve" smooth="yes"/>
      <point x="580" y="588"/>
      <point x="576" y="626"/>
      <point x="563" y="675" type="curve"/>
      <point x="540" y="669" type="line"/>
      <point x="552" y="622"/>
      <point x="555" y="587"/>
      <point x="555" y="547" type="curve" smooth="yes"/>
      <point x="555" y="476"/>
      <point x="529" y="433"/>
      <point x="459" y="433" type="curve" smooth="yes"/>
      <point x="396" y="433"/>
      <point x="371" y="456"/>
      <point x="365" y="496" type="curve" smooth="yes"/>
      <point x="360" y="527"/>
      <point x="362" y="588"/>
      <point x="362" y="657" type="curve"/>
      <point x="337" y="657" type="line"/>
      <point x="337" y="589"/>
      <point x="336" y="535"/>
      <point x="331" y="501" type="curve" smooth="yes"/>
      <point x="325" y="458"/>
      <point x="296" y="429"/>
      <point x="240" y="429" type="curve" smooth="yes"/>
      <point x="173" y="429"/>
      <point x="131" y="451"/>
      <point x="121" y="498" type="curve" smooth="yes"/>
      <point x="112" y="538"/>
      <point x="99" y="600"/>
      <point x="85" y="657" type="curve"/>
      <point x="60" y="651" type="line"/>
      <point x="119" y="430"/>
      <point x="144" y="191"/>
    </contour>
  </outline>
</glyph>
<glyph name="four-ar" format="2">
  <advance width="457"/>
  <unicode hex="0664"/>
  <outline>
    <contour>
      <point x="264" y="-6" type="curve" smooth="yes"/>
      <point x="330" y="-6"/>
      <point x="399" y="6"/>
      <point x="450" y="26" type="curve"/>
      <point x="446" y="49" type="line"/>
      <point x="396" y="33"/>
      <point x="340" y="20"/>
      <point x="268" y="20" type="curve" smooth="yes"/>
      <point x="139" y="20"/>
      <point x="86" y="62"/>
      <point x="86" y="131" type="curve" smooth="yes"/>
      <point x="86" y="212"/>
      <point x="158" y="270"/>
      <point x="337" y="335" type="curve"/>
      <point x="334" y="359" type="line"/>
      <point x="216" y="361"/>
      <point x="85" y="380"/>
      <point x="85" y="464" type="curve" smooth="yes"/>
      <point x="85" y="547"/>
      <point x="209" y="609"/>
      <point x="342" y="648" type="curve"/>
      <point x="338" y="672" type="line"/>
      <point x="198" y="629"/>
      <point x="60" y="568"/>
      <point x="60" y="463" type="curve" smooth="yes"/>
      <point x="60" y="376"/>
      <point x="167" y="343"/>
      <point x="307" y="338" type="curve"/>
      <point x="307" y="345" type="line"/>
      <point x="133" y="285"/>
      <point x="61" y="209"/>
      <point x="61" y="134" type="curve" smooth="yes"/>
      <point x="61" y="45"/>
      <point x="129" y="-6"/>
    </contour>
  </outline>
</glyph>
<glyph name="five-ar" format="2">
  <advance width="510"/>
  <unicode hex="0665"/>
  <outline>
    <contour>
      <point x="254" y="0" type="curve" smooth="yes"/>
      <point x="381" y="0"/>
      <point x="450" y="77"/>
      <point x="450" y="219" type="curve" smooth="yes"/>
      <point x="450" y="379"/>
      <point x="369" y="485"/>
      <point x="262" y="485" type="curve" smooth="yes"/>
      <point x="157" y="485"/>
      <point x="60" y="376"/>
      <point x="60" y="209" type="curve" smooth="yes"/>
      <point x="60" y="64"/>
      <point x="139" y="0"/>
    </contour>
    <contour>
      <point x="255" y="26" type="curve" smooth="yes"/>
      <point x="155" y="26"/>
      <point x="85" y="78"/>
      <point x="85" y="209" type="curve" smooth="yes"/>
      <point x="85" y="358"/>
      <point x="162" y="459"/>
      <point x="261" y="459" type="curve" smooth="yes"/>
      <point x="355" y="459"/>
      <point x="425" y="364"/>
      <point x="425" y="216" type="curve" smooth="yes"/>
      <point x="425" y="85"/>
      <point x="358" y="26"/>
    </contour>
  </outline>
</glyph>
<glyph name="six-ar" format="2">
  <advance width="502"/>
  <unicode hex="0666"/>
  <outline>
    <contour>
      <point x="412" y="0" type="curve"/>
      <point x="437" y="5" type="line"/>
      <point x="406" y="207"/>
      <point x="383" y="447"/>
      <point x="370" y="641" type="curve"/>
      <point x="324" y="637"/>
      <point x="259" y="635"/>
      <point x="209" y="635" type="curve" smooth="yes"/>
      <point x="150" y="635"/>
      <point x="78" y="638"/>
      <point x="27" y="646" type="curve"/>
      <point x="25" y="620" type="line"/>
      <point x="76" y="612"/>
      <point x="144" y="609"/>
      <point x="204" y="609" type="curve" smooth="yes"/>
      <point x="254" y="609"/>
      <point x="320" y="612"/>
      <point x="362" y="616" type="curve"/>
      <point x="347" y="625" type="line"/>
      <point x="360" y="434"/>
      <point x="382" y="203"/>
    </contour>
  </outline>
</glyph>
<glyph name="seven-ar" format="2">
  <advance width="589"/>
  <unicode hex="0667"/>
  <outline>
    <contour>
      <point x="288" y="0" type="curve"/>
      <point x="311" y="2" type="line"/>
      <point x="379" y="231"/>
      <point x="464" y="476"/>
      <point x="543" y="667" type="curve"/>
      <point x="520" y="675" type="line"/>
      <point x="441" y="485"/>
      <point x="353" y="235"/>
      <point x="294" y="22" type="curve"/>
      <point x="305" y="23" type="line"/>
      <point x="251" y="238"/>
      <point x="147" y="489"/>
      <point x="70" y="673" type="curve"/>
      <point x="46" y="664" type="line"/>
      <point x="125" y="478"/>
      <point x="224" y="227"/>
    </contour>
  </outline>
</glyph>
<glyph name="nine-ar" format="2">
  <advance width="527"/>
  <unicode hex="0669"/>
  <outline>
    <contour>
      <point x="439" y="-5" type="curve"/>
      <point x="462" y="-1" type="line"/>
      <point x="446" y="108"/>
      <point x="428" y="240"/>
      <point x="413" y="395" type="curve" smooth="yes"/>
      <point x="396" y="572"/>
      <point x="345" y="675"/>
      <point x="222" y="675" type="curve" smooth="yes"/>
      <point x="122" y="675"/>
      <point x="35" y="588"/>
      <point x="35" y="460" type="curve" smooth="yes"/>
      <point x="35" y="359"/>
      <point x="96" y="301"/>
      <point x="225" y="301" type="curve" smooth="yes"/>
      <point x="291" y="301"/>
      <point x="356" y="311"/>
      <point x="402" y="325" type="curve"/>
      <point x="403" y="350" type="line"/>
      <point x="352" y="337"/>
      <point x="299" y="327"/>
      <point x="230" y="327" type="curve" smooth="yes"/>
      <point x="107" y="327"/>
      <point x="60" y="377"/>
      <point x="60" y="463" type="curve" smooth="yes"/>
      <point x="60" y="560"/>
      <point x="122" y="649"/>
      <point x="219" y="649" type="curve" smooth="yes"/>
      <point x="328" y="649"/>
      <point x="371" y="559"/>
      <point x="389" y="389" type="curve" smooth="yes"/>
      <point x="405" y="235"/>
      <point x="421" y="103"/>
    </contour>
  </outline>
</glyph>
<glyph name="percent-ar" format="2">
  <advance width="480"/>
  <unicode hex="066A"/>
  <outline>
    <contour>
      <point x="62" y="-9" type="line"/>
      <point x="439" y="675" type="line"/>
      <point x="417" y="687" type="line"/>
      <point x="40" y="4" type="line"/>
    </contour>
    <contour>
      <point x="399" y="-9" type="curve"/>
      <point x="440" y="31" type="line"/>
      <point x="428" y="47"/>
      <point x="411" y="64"/>
      <point x="393" y="78" type="curve"/>
      <point x="353" y="35" type="line"/>
      <point x="371" y="20"/>
      <point x="381" y="9"/>
    </contour>
    <contour>
      <point x="92" y="597" type="curve"/>
      <point x="133" y="637" type="line"/>
      <point x="121" y="653"/>
      <point x="104" y="670"/>
      <point x="86" y="684" type="curve"/>
      <point x="46" y="641" type="line"/>
      <point x="64" y="626"/>
      <point x="74" y="615"/>
    </contour>
  </outline>
</glyph>
<glyph name="thousandseparator-ar" format="2">
  <advance width="245"/>
  <unicode hex="066C"/>
  <outline>
    <contour>
      <point x="117" y="0" type="curve" smooth="yes"/>
      <point x="137" y="0"/>
      <point x="148" y="11"/>
      <point x="148" y="30" type="curve" smooth="yes"/>
      <point x="148" y="41"/>
      <point x="139" y="49"/>
      <point x="129" y="56" type="curve" smooth="yes"/>
      <point x="119" y="63"/>
      <point x="108" y="70"/>
      <point x="108" y="84" type="curve" smooth="yes"/>
      <point x="108" y="118"/>
      <point x="122" y="160"/>
      <point x="175" y="220" type="curve"/>
      <point x="156" y="235" type="line"/>
      <point x="109" y="186"/>
      <point x="74" y="130"/>
      <point x="74" y="63" type="curve" smooth="yes"/>
      <point x="74" y="21"/>
      <point x="94" y="0"/>
    </contour>
  </outline>
</glyph>
<glyph name="dotlessqaf-ar" format="2">
  <advance width="765"/>
  <unicode hex="066F"/>
  <anchor x="367" y="-291" name="bottom"/>
  <anchor x="367" y="-241" name="bottom.dot"/>
  <anchor x="367" y="495" name="top"/>
  <anchor x="535" y="376" name="top.dot"/>
  <outline>
    <contour>
      <point x="352" y="-261" type="curve" smooth="yes"/>
      <point x="621" y="-261"/>
      <point x="719" y="-138"/>
      <point x="719" y="63" type="curve" smooth="yes"/>
      <point x="719" y="234"/>
      <point x="661" y="359"/>
      <point x="534" y="359" type="curve" smooth="yes"/>
      <point x="436" y="359"/>
      <point x="362" y="268"/>
      <point x="362" y="155" type="curve" smooth="yes"/>
      <point x="362" y="61"/>
      <point x="415" y="6"/>
      <point x="535" y="6" type="curve" smooth="yes"/>
      <point x="598" y="6"/>
      <point x="668" y="25"/>
      <point x="705" y="47" type="curve"/>
      <point x="706" y="75" type="line"/>
      <point x="660" y="49"/>
      <point x="600" y="33"/>
      <point x="541" y="33" type="curve" smooth="yes"/>
      <point x="428" y="33"/>
      <point x="387" y="73"/>
      <point x="387" y="158" type="curve" smooth="yes"/>
      <point x="387" y="252"/>
      <point x="448" y="332"/>
      <point x="530" y="332" type="curve" smooth="yes"/>
      <point x="639" y="332"/>
      <point x="694" y="229"/>
      <point x="694" y="56" type="curve" smooth="yes"/>
      <point x="694" y="-127"/>
      <point x="603" y="-234"/>
      <point x="356" y="-234" type="curve" smooth="yes"/>
      <point x="158" y="-234"/>
      <point x="76" y="-133"/>
      <point x="76" y="0" type="curve" smooth="yes"/>
      <point x="76" y="71"/>
      <point x="88" y="122"/>
      <point x="105" y="173" type="curve"/>
      <point x="83" y="180" type="line"/>
      <point x="63" y="128"/>
      <point x="50" y="67"/>
      <point x="50" y="-3" type="curve" smooth="yes"/>
      <point x="50" y="-146"/>
      <point x="140" y="-261"/>
    </contour>
  </outline>
</glyph>
<glyph name="dotlessfeh-ar" format="2">
  <advance width="960"/>
  <unicode hex="06A1"/>
  <anchor x="456" y="-111" name="bottom"/>
  <anchor x="711" y="-20" name="bottom.dot"/>
  <anchor x="332" y="571" name="top"/>
  <anchor x="714" y="535" name="top.dot"/>
  <outline>
    <contour>
      <point x="412" y="-15" type="line"/>
      <point x="589" y="-15"/>
      <point x="770" y="0"/>
      <point x="830" y="47" type="curve" smooth="yes"/>
      <point x="885" y="90"/>
      <point x="900" y="142"/>
      <point x="900" y="235" type="curve" smooth="yes"/>
      <point x="900" y="392"/>
      <point x="839" y="509"/>
      <point x="715" y="509" type="curve" smooth="yes"/>
      <point x="612" y="509"/>
      <point x="542" y="426"/>
      <point x="542" y="323" type="curve" smooth="yes"/>
      <point x="542" y="227"/>
      <point x="599" y="176"/>
      <point x="710" y="176" type="curve" smooth="yes"/>
      <point x="777" y="176"/>
      <point x="840" y="190"/>
      <point x="885" y="208" type="curve"/>
      <point x="884" y="234" type="line"/>
      <point x="839" y="216"/>
      <point x="771" y="202"/>
      <point x="715" y="202" type="curve" smooth="yes"/>
      <point x="609" y="202"/>
      <point x="567" y="242"/>
      <point x="567" y="328" type="curve" smooth="yes"/>
      <point x="567" y="409"/>
      <point x="621" y="482"/>
      <point x="713" y="482" type="curve" smooth="yes"/>
      <point x="824" y="482"/>
      <point x="875" y="376"/>
      <point x="875" y="237" type="curve" smooth="yes"/>
      <point x="875" y="141"/>
      <point x="863" y="107"/>
      <point x="818" y="70" type="curve" smooth="yes"/>
      <point x="764" y="25"/>
      <point x="581" y="11"/>
      <point x="416" y="11" type="curve"/>
    </contour>
    <component base="_part.beh.fina" xOffset="-10"/>
  </outline>
</glyph>
<glyph name="keheh-ar" format="2">
  <advance width="868"/>
  <unicode hex="06A9"/>
  <anchor x="424" y="-111" name="bottom"/>
  <anchor x="424" y="-20" name="bottom.dot"/>
  <anchor x="782" y="539" name="center"/>
  <anchor x="279" y="539" name="top"/>
  <anchor x="527" y="555" name="top.dot"/>
  <outline>
    <contour>
      <point x="406" y="-15" type="line"/>
      <point x="690" y="-15"/>
      <point x="780" y="26"/>
      <point x="780" y="136" type="curve" smooth="yes"/>
      <point x="780" y="237"/>
      <point x="693" y="306"/>
      <point x="438" y="457" type="curve"/>
      <point x="436" y="449" type="line"/>
      <point x="848" y="672" type="line"/>
      <point x="847" y="698" type="line"/>
      <point x="424" y="469" type="line"/>
      <point x="418" y="440" type="line"/>
      <point x="680" y="285"/>
      <point x="755" y="218"/>
      <point x="755" y="135" type="curve" smooth="yes"/>
      <point x="755" y="53"/>
      <point x="687" y="11"/>
      <point x="415" y="11" type="curve"/>
    </contour>
    <component base="_part.beh.fina" xOffset="-10"/>
  </outline>
</glyph>
<glyph name="kafswash-ar" format="2">
  <advance width="1094"/>
  <unicode hex="06AA"/>
  <anchor x="540" y="-111" name="bottom"/>
  <anchor x="399" y="611" name="top"/>
  <outline>
    <contour>
      <point x="406" y="-15" type="line"/>
      <point x="483" y="-15"/>
      <point x="669" y="-15"/>
      <point x="749" y="-15" type="curve" smooth="yes"/>
      <point x="948" y="-15"/>
      <point x="1052" y="23"/>
      <point x="1052" y="141" type="curve" smooth="yes"/>
      <point x="1052" y="215"/>
      <point x="1007" y="256"/>
      <point x="880" y="256" type="curve" smooth="yes"/>
      <point x="486" y="256" type="line" smooth="yes"/>
      <point x="390" y="256"/>
      <point x="353" y="275"/>
      <point x="353" y="319" type="curve" smooth="yes"/>
      <point x="353" y="396"/>
      <point x="491" y="479"/>
      <point x="713" y="558" type="curve"/>
      <point x="707" y="582" type="line"/>
      <point x="489" y="504"/>
      <point x="328" y="417"/>
      <point x="328" y="319" type="curve" smooth="yes"/>
      <point x="328" y="256"/>
      <point x="376" y="231"/>
      <point x="480" y="231" type="curve" smooth="yes"/>
      <point x="876" y="231" type="line" smooth="yes"/>
      <point x="992" y="231"/>
      <point x="1026" y="200"/>
      <point x="1026" y="140" type="curve" smooth="yes"/>
      <point x="1026" y="44"/>
      <point x="938" y="11"/>
      <point x="756" y="11" type="curve" smooth="yes"/>
      <point x="677" y="11"/>
      <point x="491" y="11"/>
      <point x="416" y="11" type="curve"/>
    </contour>
    <component base="_part.beh.fina" xOffset="-10"/>
  </outline>
</glyph>
<glyph name="noonghunna-ar" format="2">
  <advance width="664"/>
  <unicode hex="06BA"/>
  <anchor x="324" y="-284" name="bottom"/>
  <anchor x="325" y="-243" name="bottom.dot"/>
  <anchor x="343" y="260" name="top.dot"/>
  <outline>
    <contour>
      <point x="312" y="-240" type="curve" smooth="yes"/>
      <point x="530" y="-240"/>
      <point x="614" y="-129"/>
      <point x="614" y="49" type="curve" smooth="yes"/>
      <point x="614" y="110"/>
      <point x="598" y="183"/>
      <point x="580" y="254" type="curve"/>
      <point x="556" y="248" type="line"/>
      <point x="576" y="174"/>
      <point x="590" y="103"/>
      <point x="590" y="46" type="curve" smooth="yes"/>
      <point x="590" y="-111"/>
      <point x="519" y="-214"/>
      <point x="316" y="-214" type="curve" smooth="yes"/>
      <point x="148" y="-214"/>
      <point x="76" y="-132"/>
      <point x="76" y="1" type="curve" smooth="yes"/>
      <point x="76" y="72"/>
      <point x="88" y="123"/>
      <point x="105" y="174" type="curve"/>
      <point x="83" y="181" type="line"/>
      <point x="63" y="129"/>
      <point x="50" y="68"/>
      <point x="50" y="-2" type="curve" smooth="yes"/>
      <point x="50" y="-145"/>
      <point x="130" y="-240"/>
    </contour>
  </outline>
</glyph>
<glyph name="hehDoachashmee-ar" format="2">
  <advance width="768"/>
  <unicode hex="06BE"/>
  <anchor x="383" y="-112" name="bottom"/>
  <anchor x="383" y="619" name="top"/>
  <anchor x="383" y="564" name="top.dot"/>
  <outline>
    <contour>
      <point x="135" y="-5" type="curve" smooth="yes"/>
      <point x="202" y="-5"/>
      <point x="289" y="7"/>
      <point x="364" y="45" type="curve" smooth="yes"/>
      <point x="453" y="90"/>
      <point x="517" y="163"/>
      <point x="517" y="261" type="curve" smooth="yes"/>
      <point x="517" y="388"/>
      <point x="424" y="447"/>
      <point x="355" y="447" type="curve" smooth="yes"/>
      <point x="256" y="447"/>
      <point x="191" y="363"/>
      <point x="191" y="268" type="curve" smooth="yes"/>
      <point x="191" y="107"/>
      <point x="366" y="-5"/>
      <point x="544" y="-5" type="curve" smooth="yes"/>
      <point x="656" y="-5"/>
      <point x="722" y="42"/>
      <point x="722" y="135" type="curve" smooth="yes"/>
      <point x="722" y="253"/>
      <point x="603" y="374"/>
      <point x="269" y="509" type="curve"/>
      <point x="262" y="484" type="line"/>
      <point x="588" y="350"/>
      <point x="697" y="237"/>
      <point x="697" y="133" type="curve" smooth="yes"/>
      <point x="697" y="54"/>
      <point x="634" y="21"/>
      <point x="547" y="21" type="curve" smooth="yes"/>
      <point x="384" y="21"/>
      <point x="217" y="118"/>
      <point x="217" y="271" type="curve" smooth="yes"/>
      <point x="217" y="349"/>
      <point x="268" y="423"/>
      <point x="356" y="423" type="curve" smooth="yes"/>
      <point x="431" y="423"/>
      <point x="492" y="359"/>
      <point x="492" y="260" type="curve" smooth="yes"/>
      <point x="492" y="155"/>
      <point x="405" y="90"/>
      <point x="338" y="60" type="curve" smooth="yes"/>
      <point x="275" y="32"/>
      <point x="204" y="21"/>
      <point x="138" y="21" type="curve" smooth="yes"/>
      <point x="104" y="21"/>
      <point x="74" y="23"/>
      <point x="33" y="32" type="curve"/>
      <point x="30" y="6" type="line"/>
      <point x="65" y="-2"/>
      <point x="100" y="-5"/>
    </contour>
  </outline>
</glyph>
<glyph name="yehTail-ar" format="2">
  <advance width="919"/>
  <unicode hex="06CD"/>
  <anchor x="477" y="-281" name="bottom"/>
  <anchor x="477" y="-216" name="bottom.dot"/>
  <anchor x="398" y="376" name="top"/>
  <anchor x="238" y="165" name="top.dot"/>
  <outline>
    <contour>
      <point x="462" y="-240" type="curve" smooth="yes"/>
      <point x="702" y="-240"/>
      <point x="851" y="-113"/>
      <point x="851" y="-1" type="curve" smooth="yes"/>
      <point x="851" y="66"/>
      <point x="803" y="86"/>
      <point x="680" y="114" type="curve" smooth="yes"/>
      <point x="575" y="138"/>
      <point x="528" y="159"/>
      <point x="528" y="218" type="curve" smooth="yes"/>
      <point x="528" y="303"/>
      <point x="622" y="400"/>
      <point x="750" y="400" type="curve" smooth="yes"/>
      <point x="792" y="400"/>
      <point x="834" y="388"/>
      <point x="869" y="368" type="curve"/>
      <point x="877" y="392" type="line"/>
      <point x="847" y="411"/>
      <point x="803" y="426"/>
      <point x="750" y="426" type="curve" smooth="yes"/>
      <point x="609" y="426"/>
      <point x="503" y="318"/>
      <point x="503" y="215" type="curve" smooth="yes"/>
      <point x="503" y="141"/>
      <point x="562" y="113"/>
      <point x="672" y="89" type="curve" smooth="yes"/>
      <point x="787" y="64"/>
      <point x="826" y="46"/>
      <point x="826" y="-2" type="curve" smooth="yes"/>
      <point x="826" y="-100"/>
      <point x="680" y="-214"/>
      <point x="468" y="-214" type="curve" smooth="yes"/>
      <point x="289" y="-214"/>
      <point x="205" y="-149"/>
      <point x="205" y="-19" type="curve" smooth="yes"/>
      <point x="205" y="32"/>
      <point x="218" y="101"/>
      <point x="244" y="163" type="curve"/>
      <point x="225" y="173" type="line"/>
      <point x="30" y="108" type="line"/>
      <point x="36" y="85" type="line"/>
      <point x="219" y="146" type="line"/>
      <point x="214" y="151" type="line"/>
      <point x="188" y="85"/>
      <point x="180" y="24"/>
      <point x="180" y="-22" type="curve" smooth="yes"/>
      <point x="180" y="-176"/>
      <point x="286" y="-240"/>
    </contour>
  </outline>
</glyph>
<glyph name="yehbarree-ar" format="2">
  <advance width="943"/>
  <unicode hex="06D2"/>
  <anchor x="414" y="-81" name="bottom"/>
  <anchor x="421" y="552" name="top"/>
  <anchor x="420" y="488" name="top_1"/>
  <outline>
    <contour>
      <point x="479" y="-21" type="curve" smooth="yes"/>
      <point x="665" y="-21"/>
      <point x="796" y="-3"/>
      <point x="888" y="15" type="curve"/>
      <point x="889" y="40" type="line"/>
      <point x="798" y="24"/>
      <point x="668" y="5"/>
      <point x="483" y="5" type="curve" smooth="yes"/>
      <point x="167" y="5"/>
      <point x="75" y="52"/>
      <point x="75" y="116" type="curve" smooth="yes"/>
      <point x="75" y="181"/>
      <point x="172" y="216"/>
      <point x="246" y="283" type="curve" smooth="yes"/>
      <point x="315" y="346"/>
      <point x="356" y="414"/>
      <point x="420" y="414" type="curve" smooth="yes"/>
      <point x="488" y="414"/>
      <point x="516" y="360"/>
      <point x="554" y="244" type="curve"/>
      <point x="576" y="253" type="line"/>
      <point x="540" y="369"/>
      <point x="503" y="440"/>
      <point x="423" y="440" type="curve" smooth="yes"/>
      <point x="343" y="440"/>
      <point x="309" y="375"/>
      <point x="229" y="301" type="curve" smooth="yes"/>
      <point x="156" y="234"/>
      <point x="50" y="200"/>
      <point x="50" y="114" type="curve" smooth="yes"/>
      <point x="50" y="29"/>
      <point x="157" y="-21"/>
    </contour>
  </outline>
</glyph>
<glyph name="fullstop-ar" format="2">
  <advance width="299"/>
  <unicode hex="06D4"/>
  <outline>
    <contour>
      <point x="33" y="0" type="line"/>
      <point x="263" y="0" type="line"/>
      <point x="266" y="24" type="line"/>
      <point x="36" y="24" type="line"/>
    </contour>
  </outline>
</glyph>
<glyph name="threedotsabove-ar" format="2">
  <unicode hex="06DB"/>
  <anchor x="97" y="356" name="_top.dot"/>
  <anchor x="97" y="587" name="top"/>
  <outline>
    <contour>
      <point x="44" y="422" type="curve"/>
      <point x="75" y="452" type="line"/>
      <point x="63" y="465"/>
      <point x="54" y="473"/>
      <point x="43" y="482" type="curve"/>
      <point x="13" y="451" type="line"/>
      <point x="26" y="439"/>
      <point x="33" y="433"/>
    </contour>
    <contour>
      <point x="149" y="422" type="curve"/>
      <point x="180" y="452" type="line"/>
      <point x="168" y="465"/>
      <point x="159" y="473"/>
      <point x="148" y="482" type="curve"/>
      <point x="118" y="451" type="line"/>
      <point x="132" y="439"/>
      <point x="138" y="433"/>
    </contour>
    <contour>
      <point x="97" y="510" type="curve"/>
      <point x="128" y="540" type="line"/>
      <point x="116" y="553"/>
      <point x="107" y="562"/>
      <point x="96" y="571" type="curve"/>
      <point x="65" y="540" type="line"/>
      <point x="79" y="528"/>
      <point x="86" y="521"/>
    </contour>
  </outline>
</glyph>
<glyph name="seenabove-ar" format="2">
  <unicode hex="06DC"/>
  <anchor x="236" y="390" name="_top"/>
  <anchor x="236" y="642" name="top"/>
  <outline>
    <contour>
      <point x="125" y="411" type="curve" smooth="yes"/>
      <point x="193" y="411"/>
      <point x="242" y="445"/>
      <point x="236" y="529" type="curve"/>
      <point x="226" y="525" type="line"/>
      <point x="235" y="497"/>
      <point x="257" y="489"/>
      <point x="282" y="489" type="curve" smooth="yes"/>
      <point x="306" y="489"/>
      <point x="335" y="497"/>
      <point x="341" y="533" type="curve"/>
      <point x="331" y="532" type="line"/>
      <point x="337" y="497"/>
      <point x="361" y="489"/>
      <point x="385" y="489" type="curve" smooth="yes"/>
      <point x="433" y="489"/>
      <point x="451" y="517"/>
      <point x="451" y="558" type="curve" smooth="yes"/>
      <point x="451" y="581"/>
      <point x="447" y="604"/>
      <point x="438" y="631" type="curve"/>
      <point x="420" y="626" type="line"/>
      <point x="428" y="599"/>
      <point x="431" y="578"/>
      <point x="431" y="558" type="curve" smooth="yes"/>
      <point x="431" y="523"/>
      <point x="416" y="511"/>
      <point x="386" y="511" type="curve" smooth="yes"/>
      <point x="362" y="511"/>
      <point x="351" y="521"/>
      <point x="348" y="542" type="curve" smooth="yes"/>
      <point x="346" y="558"/>
      <point x="346" y="582"/>
      <point x="345" y="609" type="curve"/>
      <point x="327" y="608" type="line"/>
      <point x="327" y="582"/>
      <point x="328" y="554"/>
      <point x="325" y="540" type="curve" smooth="yes"/>
      <point x="321" y="520"/>
      <point x="309" y="511"/>
      <point x="282" y="511" type="curve" smooth="yes"/>
      <point x="256" y="511"/>
      <point x="245" y="520"/>
      <point x="239" y="538" type="curve" smooth="yes"/>
      <point x="234" y="554"/>
      <point x="232" y="572"/>
      <point x="226" y="600" type="curve"/>
      <point x="208" y="596" type="line"/>
      <point x="214" y="568"/>
      <point x="218" y="542"/>
      <point x="218" y="516" type="curve" smooth="yes"/>
      <point x="218" y="457"/>
      <point x="186" y="433"/>
      <point x="128" y="433" type="curve" smooth="yes"/>
      <point x="75" y="433"/>
      <point x="50" y="456"/>
      <point x="50" y="496" type="curve" smooth="yes"/>
      <point x="50" y="521"/>
      <point x="55" y="538"/>
      <point x="62" y="561" type="curve"/>
      <point x="44" y="565" type="line"/>
      <point x="33" y="539"/>
      <point x="30" y="515"/>
      <point x="30" y="491" type="curve" smooth="yes"/>
      <point x="30" y="437"/>
      <point x="68" y="411"/>
    </contour>
  </outline>
</glyph>
<glyph name="asteriskArt-ar" format="2">
  <advance width="999"/>
  <unicode hex="06DE"/>
  <outline>
    <contour>
      <point x="501" y="-200" type="line"/>
      <point x="961" y="260" type="line"/>
      <point x="499" y="722" type="line"/>
      <point x="39" y="262" type="line"/>
    </contour>
    <contour>
      <point x="501" y="-166" type="line"/>
      <point x="72" y="263" type="line"/>
      <point x="499" y="689" type="line"/>
      <point x="927" y="261" type="line"/>
    </contour>
    <contour>
      <point x="174" y="-64" type="line"/>
      <point x="827" y="-64" type="line"/>
      <point x="827" y="587" type="line"/>
      <point x="174" y="587" type="line"/>
    </contour>
    <contour>
      <point x="197" y="-40" type="line"/>
      <point x="197" y="563" type="line"/>
      <point x="803" y="563" type="line"/>
      <point x="803" y="-40" type="line"/>
    </contour>
    <contour>
      <point x="500" y="179" type="curve" smooth="yes"/>
      <point x="546" y="179"/>
      <point x="584" y="217"/>
      <point x="584" y="264" type="curve" smooth="yes"/>
      <point x="584" y="310"/>
      <point x="546" y="348"/>
      <point x="500" y="348" type="curve" smooth="yes"/>
      <point x="454" y="348"/>
      <point x="416" y="310"/>
      <point x="416" y="264" type="curve" smooth="yes"/>
      <point x="416" y="217"/>
      <point x="454" y="179"/>
    </contour>
    <contour>
      <point x="500" y="202" type="curve" smooth="yes"/>
      <point x="466" y="202"/>
      <point x="439" y="230"/>
      <point x="439" y="264" type="curve" smooth="yes"/>
      <point x="439" y="297"/>
      <point x="466" y="325"/>
      <point x="500" y="325" type="curve" smooth="yes"/>
      <point x="534" y="325"/>
      <point x="561" y="297"/>
      <point x="561" y="264" type="curve" smooth="yes"/>
      <point x="561" y="230"/>
      <point x="534" y="202"/>
    </contour>
  </outline>
</glyph>
<glyph name="sukunoval-ar" format="2">
  <unicode hex="06E0"/>
  <anchor x="103" y="396" name="_top"/>
  <anchor x="103" y="651" name="top"/>
  <outline>
    <contour>
      <point x="102" y="416" type="curve" smooth="yes"/>
      <point x="148" y="416"/>
      <point x="177" y="449"/>
      <point x="177" y="525" type="curve" smooth="yes"/>
      <point x="177" y="600"/>
      <point x="151" y="632"/>
      <point x="107" y="632" type="curve" smooth="yes"/>
      <point x="60" y="632"/>
      <point x="30" y="593"/>
      <point x="30" y="520" type="curve" smooth="yes"/>
      <point x="30" y="450"/>
      <point x="57" y="416"/>
    </contour>
    <contour>
      <point x="101" y="439" type="curve" smooth="yes"/>
      <point x="73" y="439"/>
      <point x="54" y="459"/>
      <point x="54" y="521" type="curve" smooth="yes"/>
      <point x="54" y="583"/>
      <point x="74" y="608"/>
      <point x="106" y="608" type="curve" smooth="yes"/>
      <point x="138" y="608"/>
      <point x="153" y="582"/>
      <point x="153" y="525" type="curve" smooth="yes"/>
      <point x="153" y="464"/>
      <point x="134" y="439"/>
    </contour>
  </outline>
</glyph>
<glyph name="hahabove-ar" format="2">
  <unicode hex="06E1"/>
  <anchor x="119" y="378" name="_top"/>
  <anchor x="126" y="624" name="top"/>
  <outline>
    <contour>
      <point x="34" y="434" type="line"/>
      <point x="129" y="434"/>
      <point x="194" y="481"/>
      <point x="218" y="533" type="curve"/>
      <point x="217" y="555" type="line"/>
      <point x="193" y="574"/>
      <point x="161" y="595"/>
      <point x="119" y="595" type="curve" smooth="yes"/>
      <point x="80" y="595"/>
      <point x="55" y="582"/>
      <point x="32" y="564" type="curve"/>
      <point x="40" y="546" type="line"/>
      <point x="63" y="562"/>
      <point x="85" y="572"/>
      <point x="115" y="572" type="curve" smooth="yes"/>
      <point x="157" y="572"/>
      <point x="180" y="554"/>
      <point x="207" y="534" type="curve"/>
      <point x="206" y="550" type="line"/>
      <point x="174" y="491"/>
      <point x="121" y="456"/>
      <point x="30" y="455" type="curve"/>
    </contour>
  </outline>
</glyph>
<glyph name="meemStopabove-ar" format="2">
  <unicode hex="06E2"/>
  <anchor x="95" y="356" name="_top.dot"/>
  <anchor x="102" y="672" name="top"/>
  <outline>
    <contour>
      <point x="33" y="411" type="curve"/>
      <point x="54" y="412" type="line"/>
      <point x="51" y="448"/>
      <point x="50" y="457"/>
      <point x="50" y="481" type="curve" smooth="yes"/>
      <point x="50" y="518"/>
      <point x="61" y="532"/>
      <point x="109" y="532" type="curve" smooth="yes"/>
      <point x="135" y="532"/>
      <point x="152" y="529"/>
      <point x="177" y="526" type="curve"/>
      <point x="184" y="545" type="line"/>
      <point x="166" y="610"/>
      <point x="142" y="646"/>
      <point x="102" y="646" type="curve" smooth="yes"/>
      <point x="76" y="646"/>
      <point x="56" y="630"/>
      <point x="43" y="595" type="curve"/>
      <point x="61" y="587" type="line"/>
      <point x="73" y="614"/>
      <point x="84" y="623"/>
      <point x="101" y="623" type="curve" smooth="yes"/>
      <point x="125" y="623"/>
      <point x="143" y="602"/>
      <point x="164" y="539" type="curve"/>
      <point x="174" y="547" type="line"/>
      <point x="153" y="550"/>
      <point x="132" y="554"/>
      <point x="108" y="554" type="curve" smooth="yes"/>
      <point x="51" y="554"/>
      <point x="29" y="530"/>
      <point x="29" y="483" type="curve" smooth="yes"/>
      <point x="29" y="460"/>
      <point x="30" y="448"/>
    </contour>
  </outline>
</glyph>
<glyph name="maddalong-ar" format="2">
  <unicode hex="06E4"/>
  <anchor x="189" y="378" name="_top"/>
  <anchor x="183" y="519" name="top"/>
  <outline>
    <contour>
      <point x="268" y="433" type="curve" smooth="yes"/>
      <point x="300" y="433"/>
      <point x="336" y="448"/>
      <point x="367" y="487" type="curve"/>
      <point x="352" y="502" type="line"/>
      <point x="324" y="470"/>
      <point x="301" y="456"/>
      <point x="269" y="456" type="curve" smooth="yes"/>
      <point x="194" y="456"/>
      <point x="153" y="518"/>
      <point x="94" y="518" type="curve" smooth="yes"/>
      <point x="58" y="518"/>
      <point x="29" y="495"/>
      <point x="1" y="463" type="curve"/>
      <point x="16" y="448" type="line"/>
      <point x="44" y="477"/>
      <point x="63" y="495"/>
      <point x="93" y="495" type="curve" smooth="yes"/>
      <point x="141" y="495"/>
      <point x="186" y="433"/>
    </contour>
  </outline>
</glyph>
<glyph name="yehabove-ar" format="2">
  <unicode hex="06E7"/>
  <anchor x="169" y="378" name="_top"/>
  <anchor x="176" y="634" name="top"/>
  <outline>
    <contour>
      <point x="175" y="427" type="curve" smooth="yes"/>
      <point x="224" y="427"/>
      <point x="282" y="434"/>
      <point x="322" y="443" type="curve"/>
      <point x="322" y="465" type="line"/>
      <point x="281" y="456"/>
      <point x="226" y="449"/>
      <point x="175" y="449" type="curve" smooth="yes"/>
      <point x="94" y="449"/>
      <point x="50" y="454"/>
      <point x="50" y="478" type="curve" smooth="yes"/>
      <point x="50" y="498"/>
      <point x="73" y="505"/>
      <point x="99" y="534" type="curve" smooth="yes"/>
      <point x="126" y="564"/>
      <point x="137" y="584"/>
      <point x="160" y="584" type="curve" smooth="yes"/>
      <point x="185" y="584"/>
      <point x="191" y="566"/>
      <point x="207" y="528" type="curve"/>
      <point x="226" y="536" type="line"/>
      <point x="212" y="578"/>
      <point x="195" y="607"/>
      <point x="161" y="607" type="curve" smooth="yes"/>
      <point x="130" y="607"/>
      <point x="113" y="581"/>
      <point x="86" y="550" type="curve" smooth="yes"/>
      <point x="59" y="518"/>
      <point x="28" y="506"/>
      <point x="28" y="478" type="curve" smooth="yes"/>
      <point x="28" y="437"/>
      <point x="74" y="427"/>
    </contour>
  </outline>
</glyph>
<glyph name="noonabove-ar" format="2">
  <unicode hex="06E8"/>
  <anchor x="123" y="356" name="_top.dot"/>
  <anchor x="116" y="691" name="top"/>
  <outline>
    <contour>
      <point x="113" y="431" type="curve" smooth="yes"/>
      <point x="190" y="431"/>
      <point x="223" y="475"/>
      <point x="223" y="534" type="curve" smooth="yes"/>
      <point x="223" y="566"/>
      <point x="216" y="592"/>
      <point x="208" y="613" type="curve"/>
      <point x="187" y="608" type="line"/>
      <point x="195" y="584"/>
      <point x="201" y="563"/>
      <point x="201" y="532" type="curve" smooth="yes"/>
      <point x="201" y="484"/>
      <point x="171" y="453"/>
      <point x="115" y="453" type="curve" smooth="yes"/>
      <point x="61" y="453"/>
      <point x="40" y="478"/>
      <point x="40" y="521" type="curve" smooth="yes"/>
      <point x="40" y="543"/>
      <point x="45" y="562"/>
      <point x="50" y="580" type="curve"/>
      <point x="30" y="585" type="line"/>
      <point x="23" y="568"/>
      <point x="18" y="546"/>
      <point x="18" y="521" type="curve" smooth="yes"/>
      <point x="18" y="468"/>
      <point x="46" y="431"/>
    </contour>
    <contour>
      <point x="120" y="633" type="curve"/>
      <point x="140" y="654" type="line"/>
      <point x="132" y="662"/>
      <point x="127" y="667"/>
      <point x="118" y="674" type="curve"/>
      <point x="98" y="653" type="line"/>
      <point x="106" y="645"/>
      <point x="111" y="641"/>
    </contour>
  </outline>
</glyph>
<glyph name="sajdah-ar" format="2">
  <advance width="538"/>
  <unicode hex="06E9"/>
  <guideline x="94" y="391" angle="0"/>
  <outline>
    <contour>
      <point x="53" y="0" type="line"/>
      <point x="485" y="0" type="line"/>
      <point x="484" y="31" type="line"/>
      <point x="440" y="55"/>
      <point x="428" y="83"/>
      <point x="428" y="161" type="curve" smooth="yes"/>
      <point x="427" y="368" type="line"/>
      <point x="470" y="392"/>
      <point x="498" y="420"/>
      <point x="498" y="468" type="curve" smooth="yes"/>
      <point x="498" y="554"/>
      <point x="379" y="597"/>
      <point x="269" y="676" type="curve"/>
      <point x="160" y="599"/>
      <point x="40" y="550"/>
      <point x="40" y="468" type="curve" smooth="yes"/>
      <point x="40" y="420"/>
      <point x="68" y="391"/>
      <point x="111" y="367" type="curve"/>
      <point x="110" y="161" type="line" smooth="yes"/>
      <point x="110" y="83"/>
      <point x="98" y="55"/>
      <point x="54" y="31" type="curve"/>
    </contour>
    <contour>
      <point x="86" y="24" type="line"/>
      <point x="123" y="52"/>
      <point x="134" y="83"/>
      <point x="134" y="166" type="curve" smooth="yes"/>
      <point x="135" y="382" type="line"/>
      <point x="93" y="403"/>
      <point x="66" y="426"/>
      <point x="66" y="464" type="curve" smooth="yes"/>
      <point x="66" y="536"/>
      <point x="156" y="570"/>
      <point x="268" y="647" type="curve"/>
      <point x="380" y="570"/>
      <point x="472" y="535"/>
      <point x="472" y="466" type="curve" smooth="yes"/>
      <point x="472" y="425"/>
      <point x="445" y="403"/>
      <point x="403" y="382" type="curve"/>
      <point x="404" y="166" type="line" smooth="yes"/>
      <point x="404" y="83"/>
      <point x="414" y="52"/>
      <point x="451" y="24" type="curve"/>
    </contour>
  </outline>
</glyph>
<glyph name="rhombusStopabove-ar" format="2">
  <unicode hex="06EB"/>
  <anchor x="102" y="390" name="_top"/>
  <anchor x="100" y="601" name="top"/>
  <outline>
    <contour>
      <point x="100" y="415" type="line"/>
      <point x="184" y="498" type="line"/>
      <point x="100" y="581" type="line"/>
      <point x="17" y="496" type="line"/>
    </contour>
    <contour>
      <point x="100" y="443" type="line"/>
      <point x="46" y="497" type="line"/>
      <point x="101" y="553" type="line"/>
      <point x="156" y="499" type="line"/>
    </contour>
  </outline>
</glyph>
<glyph name="dotStopabove-ar" format="2">
  <unicode hex="06EC"/>
  <anchor x="50" y="373" name="_top"/>
  <anchor x="51" y="534" name="top"/>
  <outline>
    <contour>
      <point x="50" y="446" type="curve" smooth="yes"/>
      <point x="67" y="446"/>
      <point x="80" y="460"/>
      <point x="80" y="477" type="curve" smooth="yes"/>
      <point x="80" y="494"/>
      <point x="67" y="508"/>
      <point x="50" y="508" type="curve" smooth="yes"/>
      <point x="33" y="508"/>
      <point x="20" y="494"/>
      <point x="20" y="477" type="curve" smooth="yes"/>
      <point x="20" y="460"/>
      <point x="33" y="446"/>
    </contour>
  </outline>
</glyph>
<glyph name="four-persian" format="2">
  <advance width="566"/>
  <unicode hex="06F4"/>
  <outline>
    <contour>
      <point x="152" y="-5" type="curve"/>
      <point x="176" y="-3" type="line"/>
      <point x="167" y="158"/>
      <point x="140" y="353"/>
      <point x="106" y="517" type="curve"/>
      <point x="95" y="515" type="line"/>
      <point x="117" y="390"/>
      <point x="204" y="355"/>
      <point x="351" y="355" type="curve" smooth="yes"/>
      <point x="444" y="355"/>
      <point x="495" y="366"/>
      <point x="540" y="380" type="curve"/>
      <point x="536" y="402" type="line"/>
      <point x="495" y="390"/>
      <point x="463" y="384"/>
      <point x="423" y="384" type="curve" smooth="yes"/>
      <point x="338" y="384"/>
      <point x="290" y="440"/>
      <point x="290" y="520" type="curve" smooth="yes"/>
      <point x="290" y="597"/>
      <point x="346" y="650"/>
      <point x="435" y="650" type="curve" smooth="yes"/>
      <point x="460" y="650"/>
      <point x="484" y="646"/>
      <point x="510" y="638" type="curve"/>
      <point x="513" y="660" type="line"/>
      <point x="489" y="669"/>
      <point x="463" y="674"/>
      <point x="433" y="674" type="curve" smooth="yes"/>
      <point x="330" y="674"/>
      <point x="265" y="607"/>
      <point x="265" y="519" type="curve" smooth="yes"/>
      <point x="265" y="428"/>
      <point x="321" y="371"/>
      <point x="397" y="362" type="curve"/>
      <point x="403" y="379" type="line"/>
      <point x="371" y="378"/>
      <point x="377" y="378"/>
      <point x="351" y="378" type="curve" smooth="yes"/>
      <point x="197" y="378"/>
      <point x="135" y="427"/>
      <point x="104" y="533" type="curve" smooth="yes"/>
      <point x="92" y="574"/>
      <point x="83" y="618"/>
      <point x="72" y="664" type="curve"/>
      <point x="47" y="657" type="line"/>
      <point x="104" y="451"/>
      <point x="138" y="203"/>
    </contour>
  </outline>
</glyph>
<glyph name="five-persian" format="2">
  <advance width="569"/>
  <unicode hex="06F5"/>
  <guideline x="160" y="24" angle="0"/>
  <outline>
    <contour>
      <point x="181" y="-5" type="curve" smooth="yes"/>
      <point x="259" y="-5"/>
      <point x="280" y="57"/>
      <point x="282" y="88" type="curve"/>
      <point x="278" y="87" type="line"/>
      <point x="278" y="40"/>
      <point x="320" y="-5"/>
      <point x="385" y="-5" type="curve" smooth="yes"/>
      <point x="470" y="-5"/>
      <point x="509" y="61"/>
      <point x="509" y="163" type="curve" smooth="yes"/>
      <point x="509" y="328"/>
      <point x="393" y="479"/>
      <point x="239" y="634" type="curve"/>
      <point x="221" y="615" type="line"/>
      <point x="374" y="463"/>
      <point x="484" y="314"/>
      <point x="484" y="160" type="curve" smooth="yes"/>
      <point x="484" y="70"/>
      <point x="448" y="21"/>
      <point x="389" y="21" type="curve" smooth="yes"/>
      <point x="337" y="21"/>
      <point x="290" y="43"/>
      <point x="291" y="167" type="curve"/>
      <point x="267" y="166" type="line"/>
      <point x="269" y="57"/>
      <point x="234" y="21"/>
      <point x="183" y="21" type="curve" smooth="yes"/>
      <point x="129" y="21"/>
      <point x="85" y="50"/>
      <point x="85" y="158" type="curve" smooth="yes"/>
      <point x="85" y="315"/>
      <point x="208" y="469"/>
      <point x="289" y="562" type="curve"/>
      <point x="275" y="582" type="line"/>
      <point x="191" y="484"/>
      <point x="60" y="325"/>
      <point x="60" y="158" type="curve" smooth="yes"/>
      <point x="60" y="46"/>
      <point x="104" y="-5"/>
    </contour>
  </outline>
</glyph>
<glyph name="six-persian" format="2">
  <advance width="478"/>
  <unicode hex="06F6"/>
  <outline>
    <contour>
      <point x="82" y="-5" type="line"/>
      <point x="165" y="148"/>
      <point x="299" y="284"/>
      <point x="453" y="370" type="curve"/>
      <point x="443" y="392" type="line"/>
      <point x="392" y="365"/>
      <point x="342" y="348"/>
      <point x="284" y="348" type="curve" smooth="yes"/>
      <point x="169" y="348"/>
      <point x="113" y="403"/>
      <point x="113" y="492" type="curve" smooth="yes"/>
      <point x="113" y="585"/>
      <point x="186" y="648"/>
      <point x="288" y="648" type="curve" smooth="yes"/>
      <point x="334" y="648"/>
      <point x="361" y="641"/>
      <point x="394" y="631" type="curve"/>
      <point x="398" y="655" type="line"/>
      <point x="364" y="667"/>
      <point x="331" y="674"/>
      <point x="293" y="674" type="curve" smooth="yes"/>
      <point x="169" y="674"/>
      <point x="88" y="597"/>
      <point x="88" y="490" type="curve" smooth="yes"/>
      <point x="88" y="394"/>
      <point x="152" y="323"/>
      <point x="278" y="323" type="curve" smooth="yes"/>
      <point x="327" y="323"/>
      <point x="361" y="335"/>
      <point x="395" y="348" type="curve"/>
      <point x="386" y="359" type="line"/>
      <point x="267" y="284"/>
      <point x="144" y="161"/>
      <point x="60" y="5" type="curve"/>
    </contour>
  </outline>
</glyph>
<glyph name="rehLoop-ar" format="2">
  <advance width="638"/>
  <unicode hex="08AA"/>
  <anchor x="308" y="-357" name="bottom"/>
  <anchor x="447" y="481" name="top"/>
  <outline>
    <contour>
      <point x="285" y="-365" type="line"/>
      <point x="310" y="-255"/>
      <point x="325" y="-180"/>
      <point x="325" y="-86" type="curve" smooth="yes"/>
      <point x="325" y="22"/>
      <point x="287" y="85"/>
      <point x="207" y="85" type="curve" smooth="yes"/>
      <point x="133" y="85"/>
      <point x="74" y="17"/>
      <point x="74" y="-89" type="curve" smooth="yes"/>
      <point x="74" y="-188"/>
      <point x="143" y="-260"/>
      <point x="271" y="-260" type="curve" smooth="yes"/>
      <point x="455" y="-260"/>
      <point x="552" y="-160"/>
      <point x="552" y="35" type="curve" smooth="yes"/>
      <point x="552" y="127"/>
      <point x="520" y="225"/>
      <point x="468" y="308" type="curve"/>
      <point x="446" y="294" type="line"/>
      <point x="498" y="214"/>
      <point x="527" y="120"/>
      <point x="527" y="34" type="curve" smooth="yes"/>
      <point x="527" y="-139"/>
      <point x="437" y="-236"/>
      <point x="271" y="-236" type="curve" smooth="yes"/>
      <point x="157" y="-236"/>
      <point x="98" y="-175"/>
      <point x="98" y="-84" type="curve"/>
      <point x="98" y="-84" type="line"/>
      <point x="98" y="-3"/>
      <point x="141" y="60"/>
      <point x="206" y="60" type="curve" smooth="yes"/>
      <point x="270" y="60"/>
      <point x="300" y="11"/>
      <point x="300" y="-87" type="curve" smooth="yes"/>
      <point x="300" y="-178"/>
      <point x="285" y="-251"/>
      <point x="262" y="-361" type="curve"/>
    </contour>
  </outline>
</glyph>
<glyph name="aleflow-ar" format="2">
  <advance width="263"/>
  <unicode hex="08AD"/>
  <anchor x="128" y="-263" name="bottom"/>
  <anchor x="119" y="210" name="top"/>
  <outline>
    <contour>
      <point x="127" y="-203" type="curve"/>
      <point x="151" y="-203" type="line"/>
      <point x="155" y="-84"/>
      <point x="150" y="33"/>
      <point x="133" y="155" type="curve"/>
      <point x="109" y="153" type="line"/>
      <point x="126" y="31"/>
      <point x="131" y="-84"/>
    </contour>
  </outline>
</glyph>
<glyph name="fathaCurly-ar" format="2">
  <unicode hex="08E4"/>
  <anchor x="148" y="390" name="_top"/>
  <anchor x="151" y="624" name="top"/>
  <outline>
    <contour>
      <point x="47" y="419" type="curve"/>
      <point x="65" y="427" type="line"/>
      <point x="58" y="441"/>
      <point x="52" y="455"/>
      <point x="52" y="468" type="curve" smooth="yes"/>
      <point x="52" y="484"/>
      <point x="60" y="492"/>
      <point x="83" y="501" type="curve" smooth="yes"/>
      <point x="114" y="513"/>
      <point x="186" y="530"/>
      <point x="226" y="546" type="curve" smooth="yes"/>
      <point x="249" y="555"/>
      <point x="258" y="573"/>
      <point x="258" y="596" type="curve" smooth="yes"/>
      <point x="258" y="618"/>
      <point x="250" y="642"/>
      <point x="244" y="651" type="curve"/>
      <point x="224" y="643" type="line"/>
      <point x="231" y="627"/>
      <point x="236" y="614"/>
      <point x="236" y="598" type="curve" smooth="yes"/>
      <point x="236" y="581"/>
      <point x="229" y="572"/>
      <point x="210" y="565" type="curve" smooth="yes"/>
      <point x="178" y="553"/>
      <point x="107" y="535"/>
      <point x="71" y="522" type="curve" smooth="yes"/>
      <point x="39" y="510"/>
      <point x="30" y="491"/>
      <point x="30" y="469" type="curve" smooth="yes"/>
      <point x="30" y="454"/>
      <point x="33" y="438"/>
    </contour>
  </outline>
</glyph>
<glyph name="dammaCurly-ar" format="2">
  <unicode hex="08E5"/>
  <anchor x="175" y="383" name="_top"/>
  <anchor x="178" y="664" name="top"/>
  <outline>
    <contour>
      <point x="70" y="414" type="line"/>
      <point x="193" y="427"/>
      <point x="285" y="464"/>
      <point x="285" y="555" type="curve" smooth="yes"/>
      <point x="285" y="605"/>
      <point x="256" y="635"/>
      <point x="212" y="635" type="curve" smooth="yes"/>
      <point x="168" y="635"/>
      <point x="137" y="601"/>
      <point x="137" y="558" type="curve" smooth="yes"/>
      <point x="137" y="518"/>
      <point x="162" y="482"/>
      <point x="209" y="463" type="curve"/>
      <point x="227" y="479" type="line"/>
      <point x="186" y="494"/>
      <point x="161" y="523"/>
      <point x="161" y="556" type="curve" smooth="yes"/>
      <point x="161" y="590"/>
      <point x="180" y="612"/>
      <point x="211" y="612" type="curve" smooth="yes"/>
      <point x="242" y="612"/>
      <point x="262" y="592"/>
      <point x="262" y="555" type="curve" smooth="yes"/>
      <point x="262" y="486"/>
      <point x="201" y="453"/>
      <point x="66" y="437" type="curve"/>
      <point x="76" y="434" type="line"/>
      <point x="67" y="462"/>
      <point x="59" y="492"/>
      <point x="51" y="521" type="curve"/>
      <point x="30" y="515" type="line"/>
      <point x="38" y="486"/>
      <point x="46" y="454"/>
      <point x="56" y="426" type="curve"/>
    </contour>
  </outline>
</glyph>
<glyph name="toneloopabove-ar" format="2">
  <unicode hex="08EC"/>
  <anchor x="138" y="390" name="_top"/>
  <anchor x="139" y="610" name="top"/>
  <outline>
    <contour>
      <point x="108" y="428" type="curve" smooth="yes"/>
      <point x="170" y="428"/>
      <point x="215" y="478"/>
      <point x="274" y="566" type="curve"/>
      <point x="256" y="577" type="line"/>
      <point x="199" y="493"/>
      <point x="160" y="449"/>
      <point x="111" y="449" type="curve" smooth="yes"/>
      <point x="70" y="449"/>
      <point x="50" y="469"/>
      <point x="50" y="503" type="curve" smooth="yes"/>
      <point x="50" y="534"/>
      <point x="68" y="556"/>
      <point x="105" y="556" type="curve" smooth="yes"/>
      <point x="150" y="556"/>
      <point x="189" y="525"/>
      <point x="269" y="456" type="curve"/>
      <point x="282" y="471" type="line"/>
      <point x="202" y="545"/>
      <point x="153" y="577"/>
      <point x="106" y="577" type="curve" smooth="yes"/>
      <point x="55" y="577"/>
      <point x="30" y="542"/>
      <point x="30" y="503" type="curve" smooth="yes"/>
      <point x="30" y="453"/>
      <point x="62" y="428"/>
    </contour>
  </outline>
</glyph>
<glyph name="highwaw-ar" format="2">
  <unicode hex="08F3"/>
  <anchor x="100" y="390" name="_top"/>
  <anchor x="108" y="675" name="top"/>
  <outline>
    <contour>
      <point x="71" y="431" type="curve" smooth="yes"/>
      <point x="143" y="431"/>
      <point x="180" y="473"/>
      <point x="180" y="546" type="curve" smooth="yes"/>
      <point x="180" y="624"/>
      <point x="149" y="655"/>
      <point x="107" y="655" type="curve" smooth="yes"/>
      <point x="71" y="655"/>
      <point x="40" y="625"/>
      <point x="40" y="579" type="curve" smooth="yes"/>
      <point x="40" y="540"/>
      <point x="61" y="522"/>
      <point x="106" y="522" type="curve" smooth="yes"/>
      <point x="131" y="522"/>
      <point x="153" y="528"/>
      <point x="170" y="536" type="curve"/>
      <point x="168" y="553" type="line"/>
      <point x="151" y="546"/>
      <point x="132" y="541"/>
      <point x="107" y="541" type="curve" smooth="yes"/>
      <point x="73" y="541"/>
      <point x="59" y="552"/>
      <point x="59" y="579" type="curve" smooth="yes"/>
      <point x="59" y="613"/>
      <point x="78" y="635"/>
      <point x="107" y="635" type="curve" smooth="yes"/>
      <point x="140" y="635"/>
      <point x="160" y="609"/>
      <point x="160" y="543" type="curve" smooth="yes"/>
      <point x="160" y="481"/>
      <point x="130" y="451"/>
      <point x="71" y="451" type="curve" smooth="yes"/>
      <point x="55" y="451"/>
      <point x="41" y="453"/>
      <point x="30" y="455" type="curve"/>
      <point x="31" y="436" type="line"/>
      <point x="41" y="433"/>
      <point x="54" y="431"/>
    </contour>
  </outline>
</glyph>
<glyph name="fathaRing-ar" format="2">
  <unicode hex="08F4"/>
  <anchor x="115" y="383" name="_top"/>
  <anchor x="116" y="592" name="top"/>
  <outline>
    <contour>
      <point x="115" y="422" type="curve" smooth="yes"/>
      <point x="159" y="422"/>
      <point x="187" y="446"/>
      <point x="187" y="492" type="curve" smooth="yes"/>
      <point x="187" y="542"/>
      <point x="157" y="572"/>
      <point x="118" y="572" type="curve" smooth="yes"/>
      <point x="76" y="572"/>
      <point x="44" y="537"/>
      <point x="44" y="488" type="curve" smooth="yes"/>
      <point x="44" y="447"/>
      <point x="69" y="422"/>
    </contour>
    <contour>
      <point x="115" y="445" type="curve" smooth="yes"/>
      <point x="84" y="445"/>
      <point x="68" y="460"/>
      <point x="68" y="490" type="curve" smooth="yes"/>
      <point x="68" y="520"/>
      <point x="86" y="548"/>
      <point x="117" y="548" type="curve" smooth="yes"/>
      <point x="145" y="548"/>
      <point x="163" y="523"/>
      <point x="163" y="492" type="curve" smooth="yes"/>
      <point x="163" y="462"/>
      <point x="146" y="445"/>
    </contour>
    <contour>
      <point x="6" y="455" type="line"/>
      <point x="223" y="518" type="line"/>
      <point x="223" y="540" type="line"/>
      <point x="6" y="476" type="line"/>
    </contour>
  </outline>
</glyph>
<glyph name="leftarrowheadabove-ar" format="2">
  <unicode hex="08F7"/>
  <anchor x="120" y="388" name="_top"/>
  <anchor x="124" y="599" name="top"/>
  <outline>
    <contour>
      <point x="190" y="418" type="curve"/>
      <point x="198" y="437" type="line"/>
      <point x="153" y="458"/>
      <point x="88" y="488"/>
      <point x="40" y="505" type="curve"/>
      <point x="40" y="493" type="line"/>
      <point x="81" y="510"/>
      <point x="147" y="546"/>
      <point x="195" y="571" type="curve"/>
      <point x="186" y="589" type="line"/>
      <point x="137" y="563"/>
      <point x="74" y="530"/>
      <point x="30" y="510" type="curve"/>
      <point x="32" y="487" type="line"/>
      <point x="80" y="470"/>
      <point x="146" y="437"/>
    </contour>
  </outline>
</glyph>
<glyph name="marksidewaysnoonghunna-ar" format="2">
  <unicode hex="08FF"/>
  <anchor x="69" y="388" name="_top"/>
  <anchor x="72" y="634" name="top"/>
  <outline>
    <contour>
      <point x="38" y="423" type="line"/>
      <point x="109" y="444"/>
      <point x="121" y="495"/>
      <point x="121" y="533" type="curve" smooth="yes"/>
      <point x="121" y="581"/>
      <point x="102" y="601"/>
      <point x="73" y="601" type="curve" smooth="yes"/>
      <point x="43" y="601"/>
      <point x="30" y="579"/>
      <point x="30" y="559" type="curve" smooth="yes"/>
      <point x="30" y="537"/>
      <point x="46" y="523"/>
      <point x="70" y="523" type="curve" smooth="yes"/>
      <point x="86" y="523"/>
      <point x="102" y="529"/>
      <point x="115" y="553" type="curve"/>
      <point x="100" y="550" type="line"/>
      <point x="102" y="496"/>
      <point x="95" y="464"/>
      <point x="30" y="441" type="curve"/>
    </contour>
  </outline>
</glyph>
<glyph name="keheh-ar.fina" format="2">
  <advance width="944"/>
  <unicode hex="FB8F"/>
  <anchor x="404" y="-111" name="bottom"/>
  <anchor x="404" y="-20" name="bottom.dot"/>
  <anchor x="847" y="544" name="center"/>
  <anchor x="279" y="539" name="top"/>
  <anchor x="577" y="555" name="top.dot"/>
  <outline>
    <contour>
      <point x="944" y="-5" type="curve" smooth="yes"/>
      <point x="952" y="-5"/>
      <point x="958" y="2"/>
      <point x="958" y="8" type="curve" smooth="yes"/>
      <point x="958" y="14"/>
      <point x="955" y="21"/>
      <point x="947" y="21" type="curve" smooth="yes"/>
      <point x="853" y="21"/>
      <point x="813" y="65"/>
      <point x="731" y="163" type="curve" smooth="yes"/>
      <point x="483" y="459" type="line"/>
      <point x="477" y="445" type="line"/>
      <point x="903" y="674" type="line"/>
      <point x="902" y="700" type="line"/>
      <point x="471" y="469" type="line"/>
      <point x="465" y="440" type="line"/>
      <point x="546" y="344"/>
      <point x="634" y="238"/>
      <point x="708" y="149" type="curve" smooth="yes"/>
      <point x="789" y="52"/>
      <point x="838" y="-5"/>
    </contour>
    <contour>
      <point x="406" y="-15" type="line"/>
      <point x="627" y="-15"/>
      <point x="686" y="67"/>
      <point x="704" y="176" type="curve"/>
      <point x="682" y="197" type="line"/>
      <point x="667" y="67"/>
      <point x="589" y="11"/>
      <point x="416" y="11" type="curve"/>
    </contour>
    <component base="_part.beh.fina" xOffset="-10"/>
  </outline>
</glyph>
<glyph name="noonghunna-ar.fina" format="2">
  <advance width="750"/>
  <unicode hex="FB9F"/>
  <anchor x="324" y="-284" name="bottom"/>
  <anchor x="325" y="-243" name="bottom.dot"/>
  <anchor x="343" y="260" name="top.dot"/>
  <outline>
    <contour>
      <point x="312" y="-240" type="curve" smooth="yes"/>
      <point x="530" y="-240"/>
      <point x="625" y="-109"/>
      <point x="615" y="92" type="curve"/>
      <point x="600" y="93" type="line"/>
      <point x="611" y="45"/>
      <point x="646" y="-5"/>
      <point x="750" y="-5" type="curve" smooth="yes"/>
      <point x="758" y="-5"/>
      <point x="764" y="2"/>
      <point x="764" y="8" type="curve" smooth="yes"/>
      <point x="764" y="14"/>
      <point x="761" y="21"/>
      <point x="753" y="21" type="curve" smooth="yes"/>
      <point x="688" y="21"/>
      <point x="636" y="42"/>
      <point x="616" y="108" type="curve" smooth="yes"/>
      <point x="603" y="151"/>
      <point x="599" y="174"/>
      <point x="582" y="244" type="curve"/>
      <point x="557" y="238" type="line"/>
      <point x="577" y="159"/>
      <point x="591" y="114"/>
      <point x="591" y="56" type="curve" smooth="yes"/>
      <point x="591" y="-91"/>
      <point x="519" y="-214"/>
      <point x="316" y="-214" type="curve" smooth="yes"/>
      <point x="148" y="-214"/>
      <point x="76" y="-132"/>
      <point x="76" y="1" type="curve" smooth="yes"/>
      <point x="76" y="72"/>
      <point x="88" y="123"/>
      <point x="105" y="174" type="curve"/>
      <point x="83" y="181" type="line"/>
      <point x="63" y="129"/>
      <point x="50" y="68"/>
      <point x="50" y="-2" type="curve" smooth="yes"/>
      <point x="50" y="-145"/>
      <point x="130" y="-240"/>
    </contour>
  </outline>
</glyph>
<glyph name="hehgoal-ar.fina" format="2">
  <advance width="619"/>
  <unicode hex="FBA7"/>
  <guideline x="477" y="-5" angle="0"/>
  <guideline x="385" y="0" angle="0"/>
  <anchor x="275" y="-111" name="bottom"/>
  <anchor x="270" y="488" name="top"/>
  <anchor x="270" y="339" name="top.dot"/>
  <outline>
    <contour>
      <point x="619" y="-5" type="curve" smooth="yes"/>
      <point x="627" y="-5"/>
      <point x="633" y="2"/>
      <point x="633" y="8" type="curve" smooth="yes"/>
      <point x="633" y="14"/>
      <point x="630" y="21"/>
      <point x="622" y="21" type="curve" smooth="yes"/>
      <point x="541" y="21"/>
      <point x="507" y="81"/>
      <point x="441" y="166" type="curve" smooth="yes"/>
      <point x="375" y="251"/>
      <point x="338" y="293"/>
      <point x="269" y="293" type="curve" smooth="yes"/>
      <point x="182" y="293"/>
      <point x="107" y="214"/>
      <point x="41" y="109" type="curve"/>
      <point x="61" y="96" type="line"/>
      <point x="126" y="196"/>
      <point x="192" y="267"/>
      <point x="267" y="267" type="curve" smooth="yes"/>
      <point x="331" y="267"/>
      <point x="363" y="225"/>
      <point x="424" y="145" type="curve" smooth="yes"/>
      <point x="489" y="60"/>
      <point x="531" y="-5"/>
    </contour>
  </outline>
</glyph>
<glyph name="hehgoal-ar.medi" format="2">
  <advance width="514"/>
  <unicode hex="FBA9"/>
  <guideline x="56" y="-5" angle="0"/>
  <anchor x="295" y="-358" name="bottom"/>
  <anchor x="272" y="298" name="top"/>
  <outline>
    <contour>
      <point x="295" y="-299" type="curve"/>
      <point x="314" y="-282" type="line"/>
      <point x="311" y="-263"/>
      <point x="307" y="-225"/>
      <point x="307" y="-188" type="curve" smooth="yes"/>
      <point x="307" y="-63"/>
      <point x="361" y="-5"/>
      <point x="514" y="-5" type="curve" smooth="yes"/>
      <point x="522" y="-5"/>
      <point x="528" y="2"/>
      <point x="528" y="8" type="curve" smooth="yes"/>
      <point x="528" y="14"/>
      <point x="525" y="21"/>
      <point x="517" y="21" type="curve" smooth="yes"/>
      <point x="356" y="21"/>
      <point x="284" y="-40"/>
      <point x="284" y="-194" type="curve" smooth="yes"/>
      <point x="284" y="-232"/>
      <point x="288" y="-254"/>
      <point x="292" y="-285" type="curve"/>
      <point x="301" y="-276" type="line"/>
      <point x="178" y="-225"/>
      <point x="131" y="-138"/>
      <point x="131" y="2" type="curve" smooth="yes"/>
      <point x="131" y="50"/>
      <point x="137" y="110"/>
      <point x="149" y="172" type="curve"/>
      <point x="126" y="176" type="line"/>
      <point x="106" y="54"/>
      <point x="63" y="21"/>
      <point x="4" y="21" type="curve"/>
      <point x="0" y="-5" type="line"/>
      <point x="79" y="-5"/>
      <point x="115" y="49"/>
      <point x="124" y="93" type="curve"/>
      <point x="118" y="97" type="line"/>
      <point x="112" y="63"/>
      <point x="108" y="29"/>
      <point x="108" y="-4" type="curve" smooth="yes"/>
      <point x="108" y="-145"/>
      <point x="162" y="-247"/>
    </contour>
  </outline>
</glyph>
<glyph name="hehDoachashmee-ar.fina" format="2">
  <advance width="622"/>
  <unicode hex="FBAB"/>
  <anchor x="379" y="-325" name="bottom"/>
  <anchor x="379" y="503" name="top"/>
  <anchor x="379" y="439" name="top.dot"/>
  <outline>
    <contour>
      <point x="383" y="-268" type="curve" smooth="yes"/>
      <point x="472" y="-268"/>
      <point x="526" y="-213"/>
      <point x="526" y="-129" type="curve" smooth="yes"/>
      <point x="526" y="-69"/>
      <point x="493" y="-4"/>
      <point x="425" y="19" type="curve"/>
      <point x="423" y="11" type="line"/>
      <point x="476" y="-6"/>
      <point x="566" y="-5"/>
      <point x="622" y="-5" type="curve" smooth="yes"/>
      <point x="630" y="-5"/>
      <point x="636" y="2"/>
      <point x="636" y="8" type="curve" smooth="yes"/>
      <point x="636" y="14"/>
      <point x="633" y="21"/>
      <point x="625" y="21" type="curve" smooth="yes"/>
      <point x="543" y="21"/>
      <point x="445" y="24"/>
      <point x="359" y="43" type="curve"/>
      <point x="355" y="18" type="line"/>
      <point x="474" y="0"/>
      <point x="500" y="-77"/>
      <point x="500" y="-129" type="curve" smooth="yes"/>
      <point x="500" y="-203"/>
      <point x="451" y="-242"/>
      <point x="385" y="-242" type="curve" smooth="yes"/>
      <point x="283" y="-242"/>
      <point x="210" y="-150"/>
      <point x="210" y="22" type="curve" smooth="yes"/>
      <point x="210" y="208"/>
      <point x="326" y="360"/>
      <point x="392" y="360" type="curve" smooth="yes"/>
      <point x="441" y="360"/>
      <point x="491" y="296"/>
      <point x="491" y="203" type="curve" smooth="yes"/>
      <point x="491" y="143"/>
      <point x="478" y="99"/>
      <point x="402" y="64" type="curve" smooth="yes"/>
      <point x="339" y="35"/>
      <point x="257" y="21"/>
      <point x="152" y="21" type="curve" smooth="yes"/>
      <point x="118" y="21"/>
      <point x="72" y="24"/>
      <point x="33" y="32" type="curve"/>
      <point x="30" y="6" type="line"/>
      <point x="68" y="-2"/>
      <point x="110" y="-5"/>
      <point x="150" y="-5" type="curve" smooth="yes"/>
      <point x="257" y="-5"/>
      <point x="345" y="11"/>
      <point x="414" y="42" type="curve" smooth="yes"/>
      <point x="488" y="75"/>
      <point x="516" y="126"/>
      <point x="516" y="203" type="curve" smooth="yes"/>
      <point x="516" y="305"/>
      <point x="458" y="385"/>
      <point x="394" y="385" type="curve" smooth="yes"/>
      <point x="305" y="385"/>
      <point x="186" y="210"/>
      <point x="186" y="17" type="curve" smooth="yes"/>
      <point x="186" y="-174"/>
      <point x="273" y="-268"/>
    </contour>
  </outline>
</glyph>
<glyph name="yehbarree-ar.fina" format="2">
  <advance width="659"/>
  <unicode hex="FBAF"/>
  <anchor x="367" y="-341" name="bottom"/>
  <anchor x="218" y="96" name="top"/>
  <outline>
    <contour>
      <point x="353" y="-298" type="curve" smooth="yes"/>
      <point x="465" y="-298"/>
      <point x="563" y="-288"/>
      <point x="641" y="-275" type="curve"/>
      <point x="642" y="-250" type="line"/>
      <point x="562" y="-262"/>
      <point x="478" y="-272"/>
      <point x="353" y="-272" type="curve" smooth="yes"/>
      <point x="132" y="-272"/>
      <point x="75" y="-220"/>
      <point x="75" y="-149" type="curve" smooth="yes"/>
      <point x="75" y="-65"/>
      <point x="150" y="-5"/>
      <point x="315" y="-5" type="curve" smooth="yes"/>
      <point x="401" y="-5"/>
      <point x="528" y="-5"/>
      <point x="659" y="-5" type="curve" smooth="yes"/>
      <point x="667" y="-5"/>
      <point x="673" y="2"/>
      <point x="673" y="8" type="curve" smooth="yes"/>
      <point x="673" y="14"/>
      <point x="670" y="21"/>
      <point x="662" y="21" type="curve" smooth="yes"/>
      <point x="534" y="21"/>
      <point x="405" y="21"/>
      <point x="315" y="21" type="curve" smooth="yes"/>
      <point x="140" y="21"/>
      <point x="50" y="-41"/>
      <point x="50" y="-149" type="curve" smooth="yes"/>
      <point x="50" y="-240"/>
      <point x="115" y="-298"/>
    </contour>
  </outline>
</glyph>
<glyph name="uniFBBC" format="2">
  <unicode hex="FBBC"/>
  <anchor x="107" y="0" name="_top"/>
  <outline>
    <contour>
      <point x="157" y="-208" type="line"/>
      <point x="181" y="-208" type="line"/>
      <point x="176" y="-37" type="line"/>
      <point x="152" y="-37" type="line"/>
    </contour>
    <contour>
      <point x="44" y="-208" type="line"/>
      <point x="68" y="-208" type="line"/>
      <point x="63" y="-37" type="line"/>
      <point x="39" y="-37" type="line"/>
    </contour>
  </outline>
</glyph>
<glyph name="kaf_alefMaksura-ar" format="2">
  <advance width="1036"/>
  <unicode hex="FC3D"/>
  <anchor x="357" y="-246" name="bottom.dot"/>
  <anchor x="837" y="-111" name="bottom_1"/>
  <anchor x="357" y="-291" name="bottom_2"/>
  <anchor x="115" y="181" name="top.dot_2"/>
  <anchor x="782" y="659" name="top_1"/>
  <anchor x="365" y="289" name="top_2"/>
  <outline>
    <contour>
      <point x="354" y="-240" type="curve" smooth="yes"/>
      <point x="583" y="-240"/>
      <point x="725" y="-147"/>
      <point x="725" y="-42" type="curve" smooth="yes"/>
      <point x="725" y="-6"/>
      <point x="703" y="18"/>
      <point x="668" y="33" type="curve"/>
      <point x="665" y="26" type="line"/>
      <point x="680" y="20"/>
      <point x="720" y="14"/>
      <point x="750" y="14" type="curve" smooth="yes"/>
      <point x="881" y="14"/>
      <point x="938" y="59"/>
      <point x="938" y="141" type="curve" smooth="yes"/>
      <point x="938" y="232"/>
      <point x="859" y="307"/>
      <point x="606" y="458" type="curve"/>
      <point x="604" y="449" type="line"/>
      <point x="1016" y="672" type="line"/>
      <point x="1015" y="698" type="line"/>
      <point x="592" y="469" type="line"/>
      <point x="586" y="440" type="line"/>
      <point x="848" y="285"/>
      <point x="912" y="216"/>
      <point x="912" y="137" type="curve" smooth="yes"/>
      <point x="912" y="76"/>
      <point x="868" y="40"/>
      <point x="752" y="40" type="curve" smooth="yes"/>
      <point x="689" y="40"/>
      <point x="637" y="55"/>
      <point x="562" y="85" type="curve"/>
      <point x="553" y="62" type="line"/>
      <point x="672" y="16"/>
      <point x="700" y="-7"/>
      <point x="700" y="-44" type="curve" smooth="yes"/>
      <point x="700" y="-128"/>
      <point x="575" y="-214"/>
      <point x="359" y="-214" type="curve" smooth="yes"/>
      <point x="166" y="-214"/>
      <point x="75" y="-142"/>
      <point x="75" y="-19" type="curve" smooth="yes"/>
      <point x="75" y="32"/>
      <point x="86" y="85"/>
      <point x="113" y="159" type="curve"/>
      <point x="91" y="165" type="line"/>
      <point x="62" y="90"/>
      <point x="50" y="33"/>
      <point x="50" y="-22" type="curve" smooth="yes"/>
      <point x="50" y="-179"/>
      <point x="179" y="-240"/>
    </contour>
  </outline>
</glyph>
<glyph name="kaf_alefMaksura-ar.fina" format="2">
  <advance width="1112"/>
  <unicode hex="FC83"/>
  <anchor x="357" y="-246" name="bottom.dot"/>
  <anchor x="881" y="-111" name="bottom_1"/>
  <anchor x="357" y="-291" name="bottom_2"/>
  <anchor x="115" y="181" name="top.dot_2"/>
  <anchor x="815" y="660" name="top_1"/>
  <anchor x="365" y="289" name="top_2"/>
  <outline>
    <contour>
      <point x="1112" y="-5" type="curve" smooth="yes"/>
      <point x="1120" y="-5"/>
      <point x="1126" y="2"/>
      <point x="1126" y="8" type="curve" smooth="yes"/>
      <point x="1126" y="14"/>
      <point x="1123" y="21"/>
      <point x="1115" y="21" type="curve" smooth="yes"/>
      <point x="1021" y="21"/>
      <point x="980" y="65"/>
      <point x="899" y="163" type="curve" smooth="yes"/>
      <point x="653" y="459" type="line"/>
      <point x="648" y="445" type="line"/>
      <point x="1066" y="672" type="line"/>
      <point x="1065" y="698" type="line"/>
      <point x="642" y="469" type="line"/>
      <point x="636" y="440" type="line"/>
      <point x="717" y="344"/>
      <point x="802" y="238"/>
      <point x="876" y="149" type="curve" smooth="yes"/>
      <point x="957" y="52"/>
      <point x="1006" y="-5"/>
    </contour>
    <contour>
      <point x="354" y="-240" type="curve" smooth="yes"/>
      <point x="583" y="-240"/>
      <point x="725" y="-147"/>
      <point x="725" y="-42" type="curve" smooth="yes"/>
      <point x="725" y="-8"/>
      <point x="706" y="26"/>
      <point x="636" y="50" type="curve"/>
      <point x="632" y="39" type="line"/>
      <point x="647" y="33"/>
      <point x="695" y="16"/>
      <point x="725" y="16" type="curve" smooth="yes"/>
      <point x="813" y="16"/>
      <point x="866" y="65"/>
      <point x="874" y="174" type="curve"/>
      <point x="852" y="195" type="line"/>
      <point x="848" y="79"/>
      <point x="799" y="40"/>
      <point x="729" y="40" type="curve" smooth="yes"/>
      <point x="677" y="40"/>
      <point x="635" y="57"/>
      <point x="562" y="85" type="curve"/>
      <point x="553" y="62" type="line"/>
      <point x="672" y="16"/>
      <point x="700" y="-8"/>
      <point x="700" y="-44" type="curve" smooth="yes"/>
      <point x="700" y="-128"/>
      <point x="575" y="-214"/>
      <point x="359" y="-214" type="curve" smooth="yes"/>
      <point x="166" y="-214"/>
      <point x="75" y="-142"/>
      <point x="75" y="-19" type="curve" smooth="yes"/>
      <point x="75" y="32"/>
      <point x="86" y="85"/>
      <point x="113" y="159" type="curve"/>
      <point x="91" y="165" type="line"/>
      <point x="62" y="90"/>
      <point x="50" y="33"/>
      <point x="50" y="-22" type="curve" smooth="yes"/>
      <point x="50" y="-179"/>
      <point x="179" y="-240"/>
    </contour>
  </outline>
</glyph>
<glyph name="seen_alefMaksura-ar" format="2">
  <advance width="1493"/>
  <unicode hex="FCFB"/>
  <anchor x="347" y="-246" name="bottom.dot_2"/>
  <anchor x="1139" y="-111" name="bottom_1"/>
  <anchor x="347" y="-281" name="bottom_2"/>
  <anchor x="1139" y="347" name="top.dot_1"/>
  <anchor x="115" y="181" name="top.dot_2"/>
  <anchor x="1136" y="448" name="top_1"/>
  <anchor x="268" y="356" name="top_2"/>
  <outline>
    <contour>
      <point x="332" y="-240" type="curve" smooth="yes"/>
      <point x="572" y="-240"/>
      <point x="712" y="-153"/>
      <point x="712" y="-51" type="curve" smooth="yes"/>
      <point x="712" y="16"/>
      <point x="673" y="36"/>
      <point x="550" y="64" type="curve" smooth="yes"/>
      <point x="445" y="88"/>
      <point x="398" y="109"/>
      <point x="398" y="168" type="curve" smooth="yes"/>
      <point x="398" y="253"/>
      <point x="492" y="330"/>
      <point x="612" y="330" type="curve" smooth="yes"/>
      <point x="705" y="330"/>
      <point x="748" y="282"/>
      <point x="796" y="177" type="curve" smooth="yes"/>
      <point x="857" y="44"/>
      <point x="894" y="-10"/>
      <point x="994" y="-10" type="curve" smooth="yes"/>
      <point x="1072" y="-10"/>
      <point x="1123" y="19"/>
      <point x="1142" y="104" type="curve"/>
      <point x="1134" y="102" type="line"/>
      <point x="1141" y="32"/>
      <point x="1180" y="-10"/>
      <point x="1280" y="-10" type="curve" smooth="yes"/>
      <point x="1379" y="-10"/>
      <point x="1433" y="35"/>
      <point x="1433" y="137" type="curve" smooth="yes"/>
      <point x="1433" y="213"/>
      <point x="1416" y="279"/>
      <point x="1387" y="363" type="curve"/>
      <point x="1363" y="354" type="line"/>
      <point x="1395" y="266"/>
      <point x="1408" y="200"/>
      <point x="1408" y="131" type="curve" smooth="yes"/>
      <point x="1408" y="55"/>
      <point x="1366" y="16"/>
      <point x="1285" y="16" type="curve" smooth="yes"/>
      <point x="1196" y="16"/>
      <point x="1163" y="46"/>
      <point x="1157" y="110" type="curve" smooth="yes"/>
      <point x="1154" y="144"/>
      <point x="1156" y="218"/>
      <point x="1154" y="284" type="curve"/>
      <point x="1129" y="282" type="line"/>
      <point x="1138" y="65"/>
      <point x="1092" y="16"/>
      <point x="996" y="16" type="curve" smooth="yes"/>
      <point x="912" y="16"/>
      <point x="877" y="61"/>
      <point x="821" y="186" type="curve" smooth="yes"/>
      <point x="769" y="302"/>
      <point x="715" y="356"/>
      <point x="613" y="356" type="curve" smooth="yes"/>
      <point x="482" y="356"/>
      <point x="373" y="268"/>
      <point x="373" y="165" type="curve" smooth="yes"/>
      <point x="373" y="91"/>
      <point x="432" y="63"/>
      <point x="542" y="39" type="curve" smooth="yes"/>
      <point x="657" y="14"/>
      <point x="687" y="-4"/>
      <point x="687" y="-52" type="curve" smooth="yes"/>
      <point x="687" y="-140"/>
      <point x="550" y="-214"/>
      <point x="338" y="-214" type="curve" smooth="yes"/>
      <point x="159" y="-214"/>
      <point x="75" y="-149"/>
      <point x="75" y="-19" type="curve" smooth="yes"/>
      <point x="75" y="32"/>
      <point x="88" y="101"/>
      <point x="114" y="163" type="curve"/>
      <point x="92" y="171" type="line"/>
      <point x="60" y="97"/>
      <point x="50" y="28"/>
      <point x="50" y="-22" type="curve" smooth="yes"/>
      <point x="50" y="-176"/>
      <point x="156" y="-240"/>
    </contour>
  </outline>
</glyph>
<glyph name="sad_alefMaksura-ar" format="2">
  <advance width="1538"/>
  <unicode hex="FD05"/>
  <anchor x="347" y="-246" name="bottom.dot_2"/>
  <anchor x="1154" y="-112" name="bottom_1"/>
  <anchor x="347" y="-281" name="bottom_2"/>
  <anchor x="1264" y="439" name="top.dot_1"/>
  <anchor x="115" y="181" name="top.dot_2"/>
  <anchor x="1243" y="536" name="top_1"/>
  <anchor x="268" y="356" name="top_2"/>
  <outline>
    <contour>
      <point x="332" y="-240" type="curve" smooth="yes"/>
      <point x="572" y="-240"/>
      <point x="712" y="-153"/>
      <point x="712" y="-51" type="curve" smooth="yes"/>
      <point x="712" y="16"/>
      <point x="673" y="36"/>
      <point x="550" y="64" type="curve" smooth="yes"/>
      <point x="445" y="88"/>
      <point x="398" y="109"/>
      <point x="398" y="168" type="curve" smooth="yes"/>
      <point x="398" y="253"/>
      <point x="492" y="330"/>
      <point x="612" y="330" type="curve" smooth="yes"/>
      <point x="705" y="330"/>
      <point x="745" y="284"/>
      <point x="796" y="177" type="curve" smooth="yes"/>
      <point x="867" y="29"/>
      <point x="907" y="-5"/>
      <point x="1115" y="-5" type="curve" smooth="yes"/>
      <point x="1380" y="-5"/>
      <point x="1492" y="63"/>
      <point x="1492" y="193" type="curve" smooth="yes"/>
      <point x="1492" y="306"/>
      <point x="1426" y="398"/>
      <point x="1309" y="398" type="curve" smooth="yes"/>
      <point x="1146" y="398"/>
      <point x="1007" y="216"/>
      <point x="888" y="56" type="curve"/>
      <point x="909" y="42" type="line"/>
      <point x="1023" y="192"/>
      <point x="1154" y="372"/>
      <point x="1308" y="372" type="curve" smooth="yes"/>
      <point x="1411" y="372"/>
      <point x="1467" y="282"/>
      <point x="1467" y="194" type="curve" smooth="yes"/>
      <point x="1467" y="94"/>
      <point x="1384" y="21"/>
      <point x="1110" y="21" type="curve" smooth="yes"/>
      <point x="909" y="21"/>
      <point x="880" y="62"/>
      <point x="821" y="186" type="curve" smooth="yes"/>
      <point x="764" y="306"/>
      <point x="715" y="356"/>
      <point x="613" y="356" type="curve" smooth="yes"/>
      <point x="482" y="356"/>
      <point x="373" y="268"/>
      <point x="373" y="165" type="curve" smooth="yes"/>
      <point x="373" y="91"/>
      <point x="432" y="63"/>
      <point x="542" y="39" type="curve" smooth="yes"/>
      <point x="657" y="14"/>
      <point x="687" y="-4"/>
      <point x="687" y="-52" type="curve" smooth="yes"/>
      <point x="687" y="-140"/>
      <point x="550" y="-214"/>
      <point x="338" y="-214" type="curve" smooth="yes"/>
      <point x="159" y="-214"/>
      <point x="75" y="-149"/>
      <point x="75" y="-19" type="curve" smooth="yes"/>
      <point x="75" y="32"/>
      <point x="88" y="101"/>
      <point x="114" y="163" type="curve"/>
      <point x="92" y="171" type="line"/>
      <point x="60" y="97"/>
      <point x="50" y="28"/>
      <point x="50" y="-22" type="curve" smooth="yes"/>
      <point x="50" y="-176"/>
      <point x="156" y="-240"/>
    </contour>
  </outline>
</glyph>
<glyph name="sad_reh-ar" format="2">
  <advance width="1315"/>
  <unicode hex="FD0F"/>
  <anchor x="931" y="-112" name="bottom_1"/>
  <anchor x="118" y="-297" name="bottom_2"/>
  <anchor x="1041" y="439" name="top.dot_1"/>
  <anchor x="295" y="270" name="top.dot_2"/>
  <anchor x="1020" y="536" name="top_1"/>
  <anchor x="291" y="401" name="top_2"/>
  <outline>
    <contour>
      <point x="66" y="-260" type="curve" smooth="yes"/>
      <point x="255" y="-260"/>
      <point x="352" y="-150"/>
      <point x="352" y="35" type="curve" smooth="yes"/>
      <point x="352" y="88"/>
      <point x="340" y="148"/>
      <point x="321" y="201" type="curve"/>
      <point x="312" y="191" type="line"/>
      <point x="415" y="197"/>
      <point x="514" y="212"/>
      <point x="607" y="251" type="curve"/>
      <point x="593" y="256" type="line"/>
      <point x="591" y="18"/>
      <point x="636" y="-5"/>
      <point x="892" y="-5" type="curve" smooth="yes"/>
      <point x="1157" y="-5"/>
      <point x="1269" y="63"/>
      <point x="1269" y="193" type="curve" smooth="yes"/>
      <point x="1269" y="306"/>
      <point x="1203" y="398"/>
      <point x="1086" y="398" type="curve" smooth="yes"/>
      <point x="918" y="398"/>
      <point x="776" y="205"/>
      <point x="655" y="43" type="curve"/>
      <point x="676" y="29" type="line"/>
      <point x="792" y="181"/>
      <point x="927" y="372"/>
      <point x="1085" y="372" type="curve" smooth="yes"/>
      <point x="1188" y="372"/>
      <point x="1244" y="282"/>
      <point x="1244" y="194" type="curve" smooth="yes"/>
      <point x="1244" y="94"/>
      <point x="1161" y="21"/>
      <point x="887" y="21" type="curve" smooth="yes"/>
      <point x="666" y="21"/>
      <point x="640" y="55"/>
      <point x="626" y="126" type="curve" smooth="yes"/>
      <point x="617" y="171"/>
      <point x="616" y="217"/>
      <point x="616" y="273" type="curve"/>
      <point x="591" y="272" type="line"/>
      <point x="512" y="238"/>
      <point x="403" y="219"/>
      <point x="313" y="217" type="curve"/>
      <point x="296" y="191" type="line"/>
      <point x="315" y="139"/>
      <point x="327" y="85"/>
      <point x="327" y="34" type="curve" smooth="yes"/>
      <point x="327" y="-139"/>
      <point x="235" y="-234"/>
      <point x="68" y="-234" type="curve" smooth="yes"/>
      <point x="4" y="-234"/>
      <point x="-33" y="-223"/>
      <point x="-75" y="-205" type="curve"/>
      <point x="-75" y="-231" type="line"/>
      <point x="-42" y="-248"/>
      <point x="1" y="-260"/>
    </contour>
  </outline>
</glyph>
<glyph name="seen_alefMaksura-ar.fina" format="2">
  <advance width="1588"/>
  <unicode hex="FD17"/>
  <anchor x="347" y="-246" name="bottom.dot_2"/>
  <anchor x="1139" y="-111" name="bottom_1"/>
  <anchor x="347" y="-281" name="bottom_2"/>
  <anchor x="1139" y="347" name="top.dot_1"/>
  <anchor x="115" y="181" name="top.dot_2"/>
  <anchor x="1136" y="448" name="top_1"/>
  <anchor x="268" y="356" name="top_2"/>
  <outline>
    <contour>
      <point x="332" y="-240" type="curve" smooth="yes"/>
      <point x="572" y="-240"/>
      <point x="712" y="-153"/>
      <point x="712" y="-51" type="curve" smooth="yes"/>
      <point x="712" y="16"/>
      <point x="673" y="36"/>
      <point x="550" y="64" type="curve" smooth="yes"/>
      <point x="445" y="88"/>
      <point x="398" y="109"/>
      <point x="398" y="168" type="curve" smooth="yes"/>
      <point x="398" y="253"/>
      <point x="492" y="330"/>
      <point x="612" y="330" type="curve" smooth="yes"/>
      <point x="705" y="330"/>
      <point x="748" y="282"/>
      <point x="796" y="177" type="curve" smooth="yes"/>
      <point x="857" y="44"/>
      <point x="894" y="-10"/>
      <point x="994" y="-10" type="curve" smooth="yes"/>
      <point x="1072" y="-10"/>
      <point x="1123" y="19"/>
      <point x="1142" y="104" type="curve"/>
      <point x="1134" y="102" type="line"/>
      <point x="1141" y="32"/>
      <point x="1180" y="-10"/>
      <point x="1280" y="-10" type="curve" smooth="yes"/>
      <point x="1343" y="-10"/>
      <point x="1411" y="12"/>
      <point x="1424" y="102" type="curve"/>
      <point x="1419" y="102" type="line"/>
      <point x="1432" y="29"/>
      <point x="1485" y="-5"/>
      <point x="1588" y="-5" type="curve" smooth="yes"/>
      <point x="1596" y="-5"/>
      <point x="1602" y="2"/>
      <point x="1602" y="8" type="curve" smooth="yes"/>
      <point x="1602" y="14"/>
      <point x="1599" y="21"/>
      <point x="1591" y="21" type="curve" smooth="yes"/>
      <point x="1505" y="21"/>
      <point x="1462" y="33"/>
      <point x="1442" y="99" type="curve" smooth="yes"/>
      <point x="1429" y="143"/>
      <point x="1424" y="233"/>
      <point x="1417" y="322" type="curve"/>
      <point x="1392" y="320" type="line"/>
      <point x="1397" y="235"/>
      <point x="1402" y="182"/>
      <point x="1402" y="125" type="curve" smooth="yes"/>
      <point x="1402" y="57"/>
      <point x="1359" y="16"/>
      <point x="1285" y="16" type="curve" smooth="yes"/>
      <point x="1196" y="16"/>
      <point x="1163" y="46"/>
      <point x="1157" y="110" type="curve" smooth="yes"/>
      <point x="1154" y="144"/>
      <point x="1156" y="218"/>
      <point x="1154" y="284" type="curve"/>
      <point x="1129" y="282" type="line"/>
      <point x="1138" y="65"/>
      <point x="1092" y="16"/>
      <point x="996" y="16" type="curve" smooth="yes"/>
      <point x="912" y="16"/>
      <point x="877" y="61"/>
      <point x="821" y="186" type="curve" smooth="yes"/>
      <point x="769" y="302"/>
      <point x="715" y="356"/>
      <point x="613" y="356" type="curve" smooth="yes"/>
      <point x="482" y="356"/>
      <point x="373" y="268"/>
      <point x="373" y="165" type="curve" smooth="yes"/>
      <point x="373" y="91"/>
      <point x="432" y="63"/>
      <point x="542" y="39" type="curve" smooth="yes"/>
      <point x="657" y="14"/>
      <point x="687" y="-4"/>
      <point x="687" y="-52" type="curve" smooth="yes"/>
      <point x="687" y="-140"/>
      <point x="550" y="-214"/>
      <point x="338" y="-214" type="curve" smooth="yes"/>
      <point x="159" y="-214"/>
      <point x="75" y="-149"/>
      <point x="75" y="-19" type="curve" smooth="yes"/>
      <point x="75" y="32"/>
      <point x="88" y="101"/>
      <point x="114" y="163" type="curve"/>
      <point x="92" y="171" type="line"/>
      <point x="60" y="97"/>
      <point x="50" y="28"/>
      <point x="50" y="-22" type="curve" smooth="yes"/>
      <point x="50" y="-176"/>
      <point x="156" y="-240"/>
    </contour>
  </outline>
</glyph>
<glyph name="seen_reh-ar.fina" format="2">
  <advance width="1363"/>
  <unicode hex="FD2A"/>
  <anchor x="914" y="-111" name="bottom_1"/>
  <anchor x="118" y="-297" name="bottom_2"/>
  <anchor x="914" y="347" name="top.dot_1"/>
  <anchor x="295" y="270" name="top.dot_2"/>
  <anchor x="911" y="448" name="top_1"/>
  <anchor x="291" y="401" name="top_2"/>
  <outline>
    <contour>
      <point x="66" y="-260" type="curve" smooth="yes"/>
      <point x="255" y="-260"/>
      <point x="352" y="-150"/>
      <point x="352" y="35" type="curve" smooth="yes"/>
      <point x="352" y="88"/>
      <point x="340" y="148"/>
      <point x="321" y="201" type="curve"/>
      <point x="312" y="191" type="line"/>
      <point x="415" y="197"/>
      <point x="514" y="212"/>
      <point x="607" y="251" type="curve"/>
      <point x="593" y="256" type="line"/>
      <point x="592" y="231"/>
      <point x="591" y="201"/>
      <point x="591" y="177" type="curve" smooth="yes"/>
      <point x="591" y="45"/>
      <point x="623" y="-10"/>
      <point x="749" y="-10" type="curve" smooth="yes"/>
      <point x="837" y="-10"/>
      <point x="898" y="19"/>
      <point x="917" y="104" type="curve"/>
      <point x="909" y="102" type="line"/>
      <point x="916" y="32"/>
      <point x="955" y="-10"/>
      <point x="1055" y="-10" type="curve" smooth="yes"/>
      <point x="1118" y="-10"/>
      <point x="1186" y="12"/>
      <point x="1199" y="102" type="curve"/>
      <point x="1194" y="102" type="line"/>
      <point x="1207" y="29"/>
      <point x="1260" y="-5"/>
      <point x="1363" y="-5" type="curve" smooth="yes"/>
      <point x="1371" y="-5"/>
      <point x="1377" y="2"/>
      <point x="1377" y="8" type="curve" smooth="yes"/>
      <point x="1377" y="14"/>
      <point x="1374" y="21"/>
      <point x="1366" y="21" type="curve" smooth="yes"/>
      <point x="1280" y="21"/>
      <point x="1237" y="33"/>
      <point x="1217" y="99" type="curve" smooth="yes"/>
      <point x="1204" y="143"/>
      <point x="1199" y="233"/>
      <point x="1192" y="322" type="curve"/>
      <point x="1167" y="320" type="line"/>
      <point x="1172" y="235"/>
      <point x="1177" y="182"/>
      <point x="1177" y="125" type="curve" smooth="yes"/>
      <point x="1177" y="57"/>
      <point x="1134" y="16"/>
      <point x="1060" y="16" type="curve" smooth="yes"/>
      <point x="971" y="16"/>
      <point x="938" y="46"/>
      <point x="932" y="110" type="curve" smooth="yes"/>
      <point x="929" y="144"/>
      <point x="931" y="218"/>
      <point x="929" y="284" type="curve"/>
      <point x="904" y="282" type="line"/>
      <point x="913" y="65"/>
      <point x="870" y="16"/>
      <point x="751" y="16" type="curve" smooth="yes"/>
      <point x="641" y="16"/>
      <point x="616" y="60"/>
      <point x="616" y="186" type="curve" smooth="yes"/>
      <point x="616" y="211"/>
      <point x="617" y="239"/>
      <point x="616" y="273" type="curve"/>
      <point x="591" y="272" type="line"/>
      <point x="512" y="238"/>
      <point x="403" y="219"/>
      <point x="313" y="217" type="curve"/>
      <point x="296" y="191" type="line"/>
      <point x="315" y="139"/>
      <point x="327" y="85"/>
      <point x="327" y="34" type="curve" smooth="yes"/>
      <point x="327" y="-139"/>
      <point x="235" y="-234"/>
      <point x="68" y="-234" type="curve" smooth="yes"/>
      <point x="4" y="-234"/>
      <point x="-33" y="-223"/>
      <point x="-75" y="-205" type="curve"/>
      <point x="-75" y="-231" type="line"/>
      <point x="-42" y="-248"/>
      <point x="1" y="-260"/>
    </contour>
  </outline>
</glyph>
<glyph name="sad_lam_yeh-ar" format="2">
  <advance width="1566"/>
  <unicode hex="FDF0"/>
  <outline>
    <contour>
      <point x="513" y="-298" type="curve" smooth="yes"/>
      <point x="705" y="-298"/>
      <point x="903" y="-288"/>
      <point x="1071" y="-275" type="curve"/>
      <point x="1072" y="-250" type="line"/>
      <point x="902" y="-262"/>
      <point x="718" y="-272"/>
      <point x="513" y="-272" type="curve" smooth="yes"/>
      <point x="227" y="-272"/>
      <point x="75" y="-246"/>
      <point x="75" y="-146" type="curve" smooth="yes"/>
      <point x="75" y="-56"/>
      <point x="142" y="-19"/>
      <point x="367" y="-5" type="curve" smooth="yes"/>
      <point x="483" y="2"/>
      <point x="541" y="40"/>
      <point x="557" y="107" type="curve"/>
      <point x="549" y="108" type="line"/>
      <point x="563" y="27"/>
      <point x="603" y="-5"/>
      <point x="693" y="-5" type="curve" smooth="yes"/>
      <point x="807" y="-5"/>
      <point x="843" y="44"/>
      <point x="858" y="116" type="curve"/>
      <point x="845" y="114" type="line"/>
      <point x="871" y="34"/>
      <point x="904" y="-5"/>
      <point x="1143" y="-5" type="curve" smooth="yes"/>
      <point x="1408" y="-5"/>
      <point x="1520" y="63"/>
      <point x="1520" y="193" type="curve" smooth="yes"/>
      <point x="1520" y="306"/>
      <point x="1454" y="398"/>
      <point x="1337" y="398" type="curve" smooth="yes"/>
      <point x="1169" y="398"/>
      <point x="1027" y="205"/>
      <point x="906" y="43" type="curve"/>
      <point x="927" y="29" type="line"/>
      <point x="1043" y="181"/>
      <point x="1178" y="372"/>
      <point x="1336" y="372" type="curve" smooth="yes"/>
      <point x="1439" y="372"/>
      <point x="1495" y="282"/>
      <point x="1495" y="194" type="curve" smooth="yes"/>
      <point x="1495" y="94"/>
      <point x="1412" y="21"/>
      <point x="1148" y="21" type="curve" smooth="yes"/>
      <point x="953" y="21"/>
      <point x="904" y="40"/>
      <point x="878" y="94" type="curve" smooth="yes"/>
      <point x="860" y="131"/>
      <point x="865" y="180"/>
      <point x="864" y="270" type="curve"/>
      <point x="841" y="269" type="line"/>
      <point x="846" y="59"/>
      <point x="803" y="21"/>
      <point x="695" y="21" type="curve" smooth="yes"/>
      <point x="604" y="21"/>
      <point x="568" y="52"/>
      <point x="564" y="177" type="curve" smooth="yes"/>
      <point x="547" y="714" type="line"/>
      <point x="523" y="714" type="line"/>
      <point x="540" y="175" type="line" smooth="yes"/>
      <point x="543" y="70"/>
      <point x="491" y="28"/>
      <point x="370" y="21" type="curve" smooth="yes"/>
      <point x="127" y="7"/>
      <point x="50" y="-38"/>
      <point x="50" y="-146" type="curve" smooth="yes"/>
      <point x="50" y="-267"/>
      <point x="195" y="-298"/>
    </contour>
  </outline>
</glyph>
<glyph name="qaf_lam_yeh-ar" format="2">
  <advance width="1181"/>
  <unicode hex="FDF1"/>
  <outline>
    <contour>
      <point x="509" y="-298" type="curve" smooth="yes"/>
      <point x="701" y="-298"/>
      <point x="899" y="-288"/>
      <point x="1067" y="-275" type="curve"/>
      <point x="1068" y="-250" type="line"/>
      <point x="898" y="-262"/>
      <point x="714" y="-272"/>
      <point x="509" y="-272" type="curve" smooth="yes"/>
      <point x="213" y="-272"/>
      <point x="71" y="-246"/>
      <point x="71" y="-146" type="curve" smooth="yes"/>
      <point x="71" y="-56"/>
      <point x="138" y="-19"/>
      <point x="363" y="-5" type="curve" smooth="yes"/>
      <point x="479" y="2"/>
      <point x="537" y="40"/>
      <point x="553" y="107" type="curve"/>
      <point x="545" y="108" type="line"/>
      <point x="559" y="27"/>
      <point x="609" y="-5"/>
      <point x="699" y="-5" type="curve" smooth="yes"/>
      <point x="876" y="-5"/>
      <point x="1005" y="0"/>
      <point x="1065" y="47" type="curve" smooth="yes"/>
      <point x="1120" y="90"/>
      <point x="1135" y="142"/>
      <point x="1135" y="235" type="curve" smooth="yes"/>
      <point x="1135" y="392"/>
      <point x="1074" y="509"/>
      <point x="950" y="509" type="curve" smooth="yes"/>
      <point x="847" y="509"/>
      <point x="777" y="426"/>
      <point x="777" y="323" type="curve" smooth="yes"/>
      <point x="777" y="227"/>
      <point x="834" y="176"/>
      <point x="945" y="176" type="curve" smooth="yes"/>
      <point x="1012" y="176"/>
      <point x="1075" y="190"/>
      <point x="1120" y="208" type="curve"/>
      <point x="1119" y="234" type="line"/>
      <point x="1074" y="216"/>
      <point x="1006" y="202"/>
      <point x="950" y="202" type="curve" smooth="yes"/>
      <point x="844" y="202"/>
      <point x="802" y="242"/>
      <point x="802" y="328" type="curve" smooth="yes"/>
      <point x="802" y="409"/>
      <point x="856" y="482"/>
      <point x="948" y="482" type="curve" smooth="yes"/>
      <point x="1059" y="482"/>
      <point x="1110" y="376"/>
      <point x="1110" y="237" type="curve" smooth="yes"/>
      <point x="1110" y="141"/>
      <point x="1098" y="107"/>
      <point x="1053" y="70" type="curve" smooth="yes"/>
      <point x="999" y="25"/>
      <point x="867" y="21"/>
      <point x="702" y="21" type="curve" smooth="yes"/>
      <point x="611" y="21"/>
      <point x="564" y="52"/>
      <point x="560" y="177" type="curve" smooth="yes"/>
      <point x="543" y="714" type="line"/>
      <point x="519" y="714" type="line"/>
      <point x="536" y="175" type="line" smooth="yes"/>
      <point x="539" y="70"/>
      <point x="487" y="28"/>
      <point x="366" y="21" type="curve" smooth="yes"/>
      <point x="123" y="7"/>
      <point x="46" y="-38"/>
      <point x="46" y="-146" type="curve" smooth="yes"/>
      <point x="46" y="-267"/>
      <point x="191" y="-298"/>
    </contour>
    <contour>
      <point x="890" y="597" type="curve"/>
      <point x="923" y="630" type="line"/>
      <point x="909" y="645"/>
      <point x="901" y="653"/>
      <point x="889" y="664" type="curve"/>
      <point x="856" y="630" type="line"/>
      <point x="871" y="616"/>
      <point x="877" y="610"/>
    </contour>
    <contour>
      <point x="992" y="597" type="curve"/>
      <point x="1025" y="630" type="line"/>
      <point x="1011" y="645"/>
      <point x="1003" y="653"/>
      <point x="991" y="664" type="curve"/>
      <point x="958" y="630" type="line"/>
      <point x="973" y="616"/>
      <point x="979" y="610"/>
    </contour>
  </outline>
</glyph>
<glyph name="allahlong-ar" format="2">
  <advance width="1104"/>
  <unicode hex="FDFA"/>
  <guideline x="30" y="57" angle="270"/>
  <guideline x="396" y="197" angle="0"/>
  <guideline x="504" y="230" angle="0"/>
  <guideline x="778" y="435" angle="0"/>
  <guideline x="639" y="215" angle="0"/>
  <outline>
    <contour>
      <point x="445" y="315" type="curve" smooth="yes"/>
      <point x="532" y="315"/>
      <point x="580" y="350"/>
      <point x="580" y="388" type="curve" smooth="yes"/>
      <point x="580" y="407"/>
      <point x="568" y="423"/>
      <point x="543" y="431" type="curve"/>
      <point x="544" y="425" type="line"/>
      <point x="602" y="426"/>
      <point x="632" y="444"/>
      <point x="635" y="470" type="curve"/>
      <point x="630" y="470" type="line"/>
      <point x="636" y="441"/>
      <point x="656" y="425"/>
      <point x="718" y="425" type="curve" smooth="yes"/>
      <point x="794" y="425"/>
      <point x="806" y="454"/>
      <point x="811" y="475" type="curve"/>
      <point x="807" y="475" type="line"/>
      <point x="815" y="441"/>
      <point x="829" y="425"/>
      <point x="916" y="425" type="curve" smooth="yes"/>
      <point x="1014" y="425"/>
      <point x="1054" y="450"/>
      <point x="1054" y="499" type="curve" smooth="yes"/>
      <point x="1054" y="539"/>
      <point x="1029" y="572"/>
      <point x="987" y="572" type="curve" smooth="yes"/>
      <point x="925" y="572"/>
      <point x="876" y="506"/>
      <point x="831" y="445" type="curve"/>
      <point x="843" y="440" type="line"/>
      <point x="886" y="496"/>
      <point x="928" y="558"/>
      <point x="986" y="558" type="curve" smooth="yes"/>
      <point x="1024" y="558"/>
      <point x="1040" y="530"/>
      <point x="1040" y="499" type="curve" smooth="yes"/>
      <point x="1040" y="461"/>
      <point x="1015" y="440"/>
      <point x="917" y="440" type="curve" smooth="yes"/>
      <point x="851" y="440"/>
      <point x="833" y="447"/>
      <point x="824" y="463" type="curve" smooth="yes"/>
      <point x="817" y="476"/>
      <point x="817" y="493"/>
      <point x="817" y="525" type="curve"/>
      <point x="804" y="525" type="line"/>
      <point x="805" y="461"/>
      <point x="792" y="440"/>
      <point x="719" y="440" type="curve" smooth="yes"/>
      <point x="655" y="440"/>
      <point x="641" y="454"/>
      <point x="640" y="487" type="curve" smooth="yes"/>
      <point x="634" y="688" type="line"/>
      <point x="620" y="688" type="line"/>
      <point x="626" y="488" type="line" smooth="yes"/>
      <point x="627" y="447"/>
      <point x="590" y="439"/>
      <point x="522" y="439" type="curve"/>
      <point x="521" y="425" type="line"/>
      <point x="555" y="419"/>
      <point x="566" y="405"/>
      <point x="566" y="388" type="curve" smooth="yes"/>
      <point x="566" y="357"/>
      <point x="527" y="330"/>
      <point x="446" y="330" type="curve" smooth="yes"/>
      <point x="378" y="330"/>
      <point x="350" y="350"/>
      <point x="350" y="396" type="curve" smooth="yes"/>
      <point x="350" y="407"/>
      <point x="351" y="418"/>
      <point x="354" y="431" type="curve"/>
      <point x="341" y="432" type="line"/>
      <point x="338" y="418"/>
      <point x="337" y="407"/>
      <point x="337" y="395" type="curve" smooth="yes"/>
      <point x="337" y="337"/>
      <point x="382" y="315"/>
    </contour>
    <contour>
      <point x="507" y="477" type="line"/>
      <point x="522" y="477" type="line"/>
      <point x="514" y="728" type="line"/>
      <point x="500" y="728" type="line"/>
    </contour>
    <contour>
      <point x="240" y="425" type="curve" smooth="yes"/>
      <point x="284" y="425"/>
      <point x="303" y="442"/>
      <point x="305" y="465" type="curve"/>
      <point x="299" y="464" type="line"/>
      <point x="305" y="436"/>
      <point x="321" y="425"/>
      <point x="358" y="425" type="curve" smooth="yes"/>
      <point x="401" y="425"/>
      <point x="426" y="444"/>
      <point x="424" y="491" type="curve" smooth="yes"/>
      <point x="416" y="651" type="line"/>
      <point x="402" y="651" type="line"/>
      <point x="409" y="491" type="line" smooth="yes"/>
      <point x="411" y="451"/>
      <point x="395" y="440"/>
      <point x="359" y="440" type="curve" smooth="yes"/>
      <point x="321" y="440"/>
      <point x="311" y="449"/>
      <point x="310" y="480" type="curve" smooth="yes"/>
      <point x="304" y="651" type="line"/>
      <point x="290" y="651" type="line"/>
      <point x="295" y="479" type="line" smooth="yes"/>
      <point x="296" y="450"/>
      <point x="280" y="440"/>
      <point x="241" y="440" type="curve" smooth="yes"/>
      <point x="208" y="440"/>
      <point x="196" y="446"/>
      <point x="194" y="481" type="curve" smooth="yes"/>
      <point x="187" y="627" type="line"/>
      <point x="173" y="627" type="line"/>
      <point x="181" y="476" type="line" smooth="yes"/>
      <point x="183" y="442"/>
      <point x="197" y="425"/>
    </contour>
    <contour>
      <point x="125" y="455" type="curve" smooth="yes"/>
      <point x="157" y="455"/>
      <point x="174" y="462"/>
      <point x="189" y="467" type="curve"/>
      <point x="188" y="481" type="line"/>
      <point x="174" y="476"/>
      <point x="159" y="469"/>
      <point x="126" y="469" type="curve" smooth="yes"/>
      <point x="88" y="469"/>
      <point x="70" y="478"/>
      <point x="70" y="504" type="curve" smooth="yes"/>
      <point x="70" y="549"/>
      <point x="136" y="572"/>
      <point x="182" y="585" type="curve"/>
      <point x="183" y="599" type="line"/>
      <point x="127" y="585"/>
      <point x="56" y="553"/>
      <point x="56" y="503" type="curve" smooth="yes"/>
      <point x="56" y="472"/>
      <point x="81" y="455"/>
    </contour>
    <contour>
      <point x="414" y="186" type="curve" smooth="yes"/>
      <point x="562" y="186"/>
      <point x="601" y="201"/>
      <point x="609" y="232" type="curve"/>
      <point x="605" y="232" type="line"/>
      <point x="607" y="201"/>
      <point x="622" y="190"/>
      <point x="669" y="190" type="curve" smooth="yes"/>
      <point x="718" y="190"/>
      <point x="742" y="205"/>
      <point x="746" y="232" type="curve"/>
      <point x="741" y="232" type="line"/>
      <point x="747" y="200"/>
      <point x="770" y="190"/>
      <point x="828" y="190" type="curve" smooth="yes"/>
      <point x="890" y="190"/>
      <point x="985" y="195"/>
      <point x="1043" y="216" type="curve"/>
      <point x="1040" y="230" type="line"/>
      <point x="1012" y="220"/>
      <point x="982" y="216"/>
      <point x="964" y="216" type="curve" smooth="yes"/>
      <point x="930" y="216"/>
      <point x="901" y="233"/>
      <point x="901" y="274" type="curve" smooth="yes"/>
      <point x="901" y="313"/>
      <point x="929" y="335"/>
      <point x="971" y="335" type="curve" smooth="yes"/>
      <point x="988" y="335"/>
      <point x="1000" y="332"/>
      <point x="1017" y="326" type="curve"/>
      <point x="1018" y="340" type="line"/>
      <point x="1005" y="346"/>
      <point x="987" y="350"/>
      <point x="969" y="350" type="curve" smooth="yes"/>
      <point x="921" y="350"/>
      <point x="887" y="321"/>
      <point x="887" y="274" type="curve" smooth="yes"/>
      <point x="887" y="222"/>
      <point x="926" y="202"/>
      <point x="957" y="202" type="curve"/>
      <point x="957" y="211" type="line"/>
      <point x="921" y="208"/>
      <point x="886" y="205"/>
      <point x="829" y="205" type="curve" smooth="yes"/>
      <point x="760" y="205"/>
      <point x="752" y="215"/>
      <point x="751" y="259" type="curve" smooth="yes"/>
      <point x="744" y="553" type="line"/>
      <point x="730" y="553" type="line"/>
      <point x="737" y="256" type="line" smooth="yes"/>
      <point x="738" y="216"/>
      <point x="718" y="205"/>
      <point x="670" y="205" type="curve" smooth="yes"/>
      <point x="628" y="205"/>
      <point x="618" y="215"/>
      <point x="616" y="232" type="curve" smooth="yes"/>
      <point x="614" y="249"/>
      <point x="614" y="268"/>
      <point x="614" y="291" type="curve"/>
      <point x="601" y="291" type="line"/>
      <point x="601" y="262"/>
      <point x="602" y="241"/>
      <point x="596" y="231" type="curve" smooth="yes"/>
      <point x="585" y="213"/>
      <point x="552" y="201"/>
      <point x="415" y="201" type="curve" smooth="yes"/>
      <point x="327" y="201"/>
      <point x="275" y="203"/>
      <point x="243" y="210" type="curve" smooth="yes"/>
      <point x="200" y="219"/>
      <point x="199" y="232"/>
      <point x="197" y="266" type="curve" smooth="yes"/>
      <point x="191" y="392" type="line"/>
      <point x="177" y="392" type="line"/>
      <point x="183" y="265" type="line" smooth="yes"/>
      <point x="185" y="226"/>
      <point x="193" y="206"/>
      <point x="237" y="196" type="curve" smooth="yes"/>
      <point x="270" y="188"/>
      <point x="324" y="186"/>
    </contour>
    <contour>
      <point x="130" y="220" type="curve" smooth="yes"/>
      <point x="161" y="220"/>
      <point x="177" y="227"/>
      <point x="192" y="232" type="curve"/>
      <point x="191" y="246" type="line"/>
      <point x="176" y="241"/>
      <point x="161" y="234"/>
      <point x="131" y="234" type="curve" smooth="yes"/>
      <point x="91" y="234"/>
      <point x="73" y="243"/>
      <point x="73" y="269" type="curve" smooth="yes"/>
      <point x="73" y="314"/>
      <point x="139" y="337"/>
      <point x="185" y="350" type="curve"/>
      <point x="185" y="364" type="line"/>
      <point x="131" y="350"/>
      <point x="59" y="318"/>
      <point x="59" y="268" type="curve" smooth="yes"/>
      <point x="59" y="237"/>
      <point x="85" y="220"/>
    </contour>
    <contour>
      <point x="946" y="-121" type="curve" smooth="yes"/>
      <point x="1009" y="-117"/>
      <point x="1043" y="-74"/>
      <point x="1043" y="-4" type="curve" smooth="yes"/>
      <point x="1043" y="54"/>
      <point x="1021" y="101"/>
      <point x="974" y="101" type="curve" smooth="yes"/>
      <point x="938" y="101"/>
      <point x="912" y="66"/>
      <point x="912" y="26" type="curve" smooth="yes"/>
      <point x="912" y="-9"/>
      <point x="931" y="-29"/>
      <point x="974" y="-29" type="curve" smooth="yes"/>
      <point x="997" y="-29"/>
      <point x="1023" y="-22"/>
      <point x="1037" y="-13" type="curve"/>
      <point x="1038" y="2" type="line"/>
      <point x="1021" y="-8"/>
      <point x="998" y="-14"/>
      <point x="976" y="-14" type="curve" smooth="yes"/>
      <point x="936" y="-14"/>
      <point x="925" y="-4"/>
      <point x="925" y="27" type="curve" smooth="yes"/>
      <point x="925" y="61"/>
      <point x="943" y="86"/>
      <point x="973" y="86" type="curve" smooth="yes"/>
      <point x="1014" y="86"/>
      <point x="1029" y="52"/>
      <point x="1029" y="-7" type="curve" smooth="yes"/>
      <point x="1029" y="-70"/>
      <point x="1000" y="-103"/>
      <point x="947" y="-106" type="curve" smooth="yes"/>
      <point x="928" y="-107"/>
      <point x="908" y="-105"/>
      <point x="893" y="-100" type="curve"/>
      <point x="893" y="-114" type="line"/>
      <point x="905" y="-119"/>
      <point x="928" y="-122"/>
    </contour>
    <contour>
      <point x="200" y="-76" type="curve" smooth="yes"/>
      <point x="235" y="-76"/>
      <point x="256" y="-57"/>
      <point x="256" y="-19" type="curve" smooth="yes"/>
      <point x="256" y="20"/>
      <point x="237" y="59"/>
      <point x="206" y="69" type="curve"/>
      <point x="210" y="62" type="line"/>
      <point x="267" y="65"/>
      <point x="313" y="83"/>
      <point x="323" y="117" type="curve"/>
      <point x="316" y="122" type="line"/>
      <point x="318" y="72"/>
      <point x="320" y="32"/>
      <point x="326" y="14" type="curve" smooth="yes"/>
      <point x="338" y="-21"/>
      <point x="370" y="-39"/>
      <point x="473" y="-39" type="curve" smooth="yes"/>
      <point x="579" y="-39"/>
      <point x="609" y="-17"/>
      <point x="623" y="11" type="curve"/>
      <point x="619" y="12" type="line"/>
      <point x="619" y="-29"/>
      <point x="638" y="-41"/>
      <point x="676" y="-41" type="curve" smooth="yes"/>
      <point x="713" y="-41"/>
      <point x="733" y="-22"/>
      <point x="738" y="8" type="curve"/>
      <point x="735" y="9" type="line"/>
      <point x="736" y="-16"/>
      <point x="752" y="-41"/>
      <point x="791" y="-41" type="curve" smooth="yes"/>
      <point x="822" y="-41"/>
      <point x="846" y="-24"/>
      <point x="846" y="12" type="curve" smooth="yes"/>
      <point x="846" y="43"/>
      <point x="840" y="60"/>
      <point x="829" y="93" type="curve"/>
      <point x="816" y="89" type="line"/>
      <point x="827" y="55"/>
      <point x="832" y="38"/>
      <point x="832" y="11" type="curve" smooth="yes"/>
      <point x="832" y="-17"/>
      <point x="819" y="-26"/>
      <point x="792" y="-26" type="curve" smooth="yes"/>
      <point x="767" y="-26"/>
      <point x="753" y="-15"/>
      <point x="748" y="6" type="curve" smooth="yes"/>
      <point x="744" y="21"/>
      <point x="745" y="41"/>
      <point x="745" y="66" type="curve"/>
      <point x="731" y="66" type="line"/>
      <point x="732" y="-13"/>
      <point x="709" y="-26"/>
      <point x="678" y="-26" type="curve" smooth="yes"/>
      <point x="648" y="-26"/>
      <point x="635" y="-19"/>
      <point x="632" y="4" type="curve" smooth="yes"/>
      <point x="630" y="21"/>
      <point x="632" y="36"/>
      <point x="634" y="52" type="curve"/>
      <point x="621" y="53" type="line"/>
      <point x="614" y="-14"/>
      <point x="568" y="-24"/>
      <point x="472" y="-24" type="curve" smooth="yes"/>
      <point x="351" y="-24"/>
      <point x="336" y="0"/>
      <point x="333" y="55" type="curve" smooth="yes"/>
      <point x="319" y="320" type="line"/>
      <point x="306" y="320" type="line"/>
      <point x="314" y="140" type="line" smooth="yes"/>
      <point x="316" y="98"/>
      <point x="268" y="76"/>
      <point x="189" y="76" type="curve" smooth="yes"/>
      <point x="148" y="76"/>
      <point x="112" y="47"/>
      <point x="112" y="2" type="curve" smooth="yes"/>
      <point x="112" y="-42"/>
      <point x="153" y="-76"/>
    </contour>
    <contour>
      <point x="200" y="-61" type="curve" smooth="yes"/>
      <point x="164" y="-61"/>
      <point x="127" y="-35"/>
      <point x="127" y="0" type="curve" smooth="yes"/>
      <point x="127" y="35"/>
      <point x="151" y="60"/>
      <point x="180" y="60" type="curve" smooth="yes"/>
      <point x="216" y="60"/>
      <point x="241" y="25"/>
      <point x="241" y="-18" type="curve" smooth="yes"/>
      <point x="241" y="-47"/>
      <point x="228" y="-61"/>
    </contour>
    <contour>
      <point x="41" y="-129" type="line"/>
      <point x="121" y="-101"/>
      <point x="124" y="-39"/>
      <point x="124" y="-8" type="curve"/>
      <point x="112" y="2" type="line"/>
      <point x="112" y="-27"/>
      <point x="112" y="-87"/>
      <point x="36" y="-116" type="curve"/>
    </contour>
    <contour>
      <point x="866" y="629" type="line"/>
      <point x="1035" y="677" type="line"/>
      <point x="1035" y="690" type="line"/>
      <point x="866" y="642" type="line"/>
    </contour>
    <contour>
      <point x="676" y="647" type="line"/>
      <point x="845" y="695" type="line"/>
      <point x="845" y="708" type="line"/>
      <point x="676" y="660" type="line"/>
    </contour>
    <contour>
      <point x="269" y="679" type="curve" smooth="yes"/>
      <point x="285" y="679"/>
      <point x="294" y="694"/>
      <point x="293" y="710" type="curve"/>
      <point x="289" y="709" type="line"/>
      <point x="290" y="694"/>
      <point x="298" y="689"/>
      <point x="308" y="689" type="curve" smooth="yes"/>
      <point x="323" y="689"/>
      <point x="331" y="701"/>
      <point x="331" y="718" type="curve" smooth="yes"/>
      <point x="331" y="729"/>
      <point x="330" y="736"/>
      <point x="327" y="745" type="curve"/>
      <point x="318" y="742" type="line"/>
      <point x="320" y="734"/>
      <point x="321" y="727"/>
      <point x="321" y="718" type="curve" smooth="yes"/>
      <point x="321" y="704"/>
      <point x="316" y="700"/>
      <point x="308" y="700" type="curve" smooth="yes"/>
      <point x="301" y="700"/>
      <point x="296" y="702"/>
      <point x="296" y="717" type="curve" smooth="yes"/>
      <point x="296" y="734" type="line"/>
      <point x="285" y="732" type="line"/>
      <point x="285" y="720" type="line" smooth="yes"/>
      <point x="285" y="695"/>
      <point x="279" y="690"/>
      <point x="270" y="690" type="curve" smooth="yes"/>
      <point x="261" y="690"/>
      <point x="258" y="695"/>
      <point x="258" y="706" type="curve" smooth="yes"/>
      <point x="258" y="710"/>
      <point x="259" y="717"/>
      <point x="260" y="725" type="curve"/>
      <point x="250" y="722" type="line"/>
      <point x="249" y="715"/>
      <point x="248" y="710"/>
      <point x="248" y="705" type="curve" smooth="yes"/>
      <point x="248" y="687"/>
      <point x="255" y="679"/>
    </contour>
    <contour>
      <point x="449" y="101" type="curve"/>
      <point x="461" y="115" type="line"/>
      <point x="456" y="121"/>
      <point x="453" y="124"/>
      <point x="448" y="129" type="curve"/>
      <point x="435" y="115" type="line"/>
      <point x="441" y="110"/>
      <point x="443" y="107"/>
    </contour>
    <contour>
      <point x="493" y="101" type="curve"/>
      <point x="506" y="115" type="line"/>
      <point x="501" y="121"/>
      <point x="498" y="124"/>
      <point x="492" y="129" type="curve"/>
      <point x="480" y="115" type="line"/>
      <point x="485" y="110"/>
      <point x="488" y="107"/>
    </contour>
  </outline>
</glyph>
<glyph name="jallajalalouhou-ar" format="2">
  <advance width="1227"/>
  <unicode hex="FDFB"/>
  <guideline x="-491" y="1501" angle="0"/>
  <guideline x="-491" y="1380" angle="0"/>
  <outline>
    <contour>
      <point x="440" y="-64" type="curve" smooth="yes"/>
      <point x="562" y="-64"/>
      <point x="723" y="-40"/>
      <point x="741" y="71" type="curve"/>
      <point x="737" y="71" type="line"/>
      <point x="747" y="31"/>
      <point x="783" y="9"/>
      <point x="843" y="9" type="curve" smooth="yes"/>
      <point x="990" y="9"/>
      <point x="1056" y="111"/>
      <point x="1185" y="142" type="curve"/>
      <point x="1185" y="156" type="line"/>
      <point x="1151" y="155"/>
      <point x="1126" y="159"/>
      <point x="1101" y="167" type="curve" smooth="yes"/>
      <point x="1030" y="189"/>
      <point x="989" y="231"/>
      <point x="923" y="231" type="curve" smooth="yes"/>
      <point x="894" y="231"/>
      <point x="876" y="223"/>
      <point x="859" y="219" type="curve"/>
      <point x="859" y="202" type="line"/>
      <point x="878" y="210"/>
      <point x="896" y="214"/>
      <point x="923" y="214" type="curve" smooth="yes"/>
      <point x="1002" y="214"/>
      <point x="1061" y="138"/>
      <point x="1173" y="142" type="curve"/>
      <point x="1173" y="153" type="line"/>
      <point x="1056" y="127"/>
      <point x="981" y="26"/>
      <point x="848" y="26" type="curve" smooth="yes"/>
      <point x="791" y="26"/>
      <point x="749" y="43"/>
      <point x="746" y="103" type="curve" smooth="yes"/>
      <point x="721" y="557" type="line"/>
      <point x="705" y="557" type="line"/>
      <point x="729" y="107" type="line" smooth="yes"/>
      <point x="736" y="-16"/>
      <point x="579" y="-46"/>
      <point x="442" y="-46" type="curve" smooth="yes"/>
      <point x="329" y="-46"/>
      <point x="204" y="-24"/>
      <point x="101" y="16" type="curve"/>
      <point x="98" y="-2" type="line"/>
      <point x="202" y="-42"/>
      <point x="326" y="-64"/>
    </contour>
    <contour>
      <point x="740" y="193" type="curve" smooth="yes"/>
      <point x="928" y="193"/>
      <point x="999" y="294"/>
      <point x="1135" y="324" type="curve"/>
      <point x="1135" y="341" type="line"/>
      <point x="1101" y="339"/>
      <point x="1074" y="343"/>
      <point x="1049" y="351" type="curve" smooth="yes"/>
      <point x="987" y="371"/>
      <point x="939" y="415"/>
      <point x="873" y="415" type="curve" smooth="yes"/>
      <point x="848" y="415"/>
      <point x="826" y="410"/>
      <point x="809" y="403" type="curve"/>
      <point x="809" y="387" type="line"/>
      <point x="828" y="393"/>
      <point x="846" y="398"/>
      <point x="874" y="398" type="curve" smooth="yes"/>
      <point x="957" y="398"/>
      <point x="1016" y="317"/>
      <point x="1123" y="326" type="curve"/>
      <point x="1123" y="336" type="line"/>
      <point x="991" y="304"/>
      <point x="918" y="210"/>
      <point x="743" y="210" type="curve" smooth="yes"/>
      <point x="672" y="210"/>
      <point x="619" y="229"/>
      <point x="613" y="324" type="curve" smooth="yes"/>
      <point x="597" y="578" type="line"/>
      <point x="582" y="578" type="line"/>
      <point x="594" y="344" type="line"/>
      <point x="601" y="294" type="line" smooth="yes"/>
      <point x="612" y="215"/>
      <point x="667" y="193"/>
    </contour>
    <contour>
      <point x="326" y="97" type="line"/>
      <point x="350" y="99"/>
      <point x="379" y="103"/>
      <point x="403" y="108" type="curve" smooth="yes"/>
      <point x="513" y="131"/>
      <point x="604" y="195"/>
      <point x="607" y="326" type="curve"/>
      <point x="594" y="344" type="line"/>
      <point x="596" y="211"/>
      <point x="507" y="150"/>
      <point x="403" y="125" type="curve" smooth="yes"/>
      <point x="378" y="119"/>
      <point x="351" y="116"/>
      <point x="323" y="113" type="curve"/>
    </contour>
    <contour>
      <point x="569" y="227" type="curve"/>
      <point x="580" y="241" type="line"/>
      <point x="515" y="323"/>
      <point x="408" y="442"/>
      <point x="331" y="515" type="curve"/>
      <point x="320" y="504" type="line"/>
      <point x="395" y="430"/>
      <point x="504" y="312"/>
    </contour>
    <contour>
      <point x="335" y="180" type="curve" smooth="yes"/>
      <point x="417" y="180"/>
      <point x="452" y="211"/>
      <point x="449" y="290" type="curve" smooth="yes"/>
      <point x="437" y="574" type="line"/>
      <point x="421" y="574" type="line"/>
      <point x="432" y="289" type="line" smooth="yes"/>
      <point x="435" y="221"/>
      <point x="406" y="197"/>
      <point x="337" y="197" type="curve" smooth="yes"/>
      <point x="284" y="197"/>
      <point x="257" y="212"/>
      <point x="254" y="264" type="curve" smooth="yes"/>
      <point x="243" y="491" type="line"/>
      <point x="226" y="491" type="line"/>
      <point x="237" y="259" type="line" smooth="yes"/>
      <point x="239" y="208"/>
      <point x="273" y="180"/>
    </contour>
    <contour>
      <point x="150" y="226" type="curve" smooth="yes"/>
      <point x="197" y="226"/>
      <point x="226" y="237"/>
      <point x="248" y="244" type="curve"/>
      <point x="246" y="260" type="line"/>
      <point x="224" y="252"/>
      <point x="199" y="243"/>
      <point x="151" y="243" type="curve" smooth="yes"/>
      <point x="94" y="243"/>
      <point x="58" y="261"/>
      <point x="58" y="299" type="curve" smooth="yes"/>
      <point x="58" y="364"/>
      <point x="163" y="413"/>
      <point x="237" y="431" type="curve"/>
      <point x="237" y="448" type="line"/>
      <point x="152" y="426"/>
      <point x="41" y="376"/>
      <point x="41" y="296" type="curve" smooth="yes"/>
      <point x="41" y="256"/>
      <point x="77" y="226"/>
    </contour>
    <contour>
      <point x="944" y="484" type="line"/>
      <point x="1155" y="546" type="line"/>
      <point x="1155" y="561" type="line"/>
      <point x="944" y="499" type="line"/>
    </contour>
    <contour>
      <point x="804" y="521" type="line"/>
      <point x="1015" y="585" type="line"/>
      <point x="1015" y="600" type="line"/>
      <point x="804" y="536" type="line"/>
    </contour>
    <contour>
      <point x="1029" y="-57" type="curve"/>
      <point x="1047" y="-38" type="line"/>
      <point x="1040" y="-30"/>
      <point x="1036" y="-26"/>
      <point x="1028" y="-19" type="curve"/>
      <point x="1010" y="-38" type="line"/>
      <point x="1017" y="-45"/>
      <point x="1021" y="-49"/>
    </contour>
    <contour>
      <point x="1156" y="10" type="curve"/>
      <point x="1175" y="28" type="line"/>
      <point x="1168" y="36"/>
      <point x="1163" y="41"/>
      <point x="1156" y="47" type="curve"/>
      <point x="1137" y="29" type="line"/>
      <point x="1144" y="23"/>
      <point x="1149" y="17"/>
    </contour>
  </outline>
</glyph>
